<svg width="382" height="406" fill="none" xmlns="http://www.w3.org/2000/svg"><path d="M0 .932h100.732V124.38c7.875.418 14.188.976 20.218.976h107.897c58.063.349 99.846 29.145 125.703 77.361 39.229 73.212 36.107 147.295-7.413 218.137-26.035 42.358-63.845 66.936-116.8 66.239-69.555-1.046-139.146-.279-208.736-.279H0V.932zm102.258 405.664c34.511 0 67.391 1.534 100.058-.802 12.237-.872 25.573-8.681 35.469-16.909 33.731-28.552 42.28-66.727 32.951-107.482-7.945-34.863-26.424-66.658-65.086-72.759-33.412-5.264-68.384-1.08-103.215-1.08l-.177 199.032z" fill="#F7F7F7"/></svg>