<svg width="381" height="405" fill="none" xmlns="http://www.w3.org/2000/svg"><path d="M381 .9v484.635h-21.176c-68.047 0-136.164-1.672-204.175.488-55.658 1.812-93.528-25.259-120.634-67.939-38.54-60.344-46.2-127.065-18.317-192.739 26.117-62.156 71.646-99.645 146.116-101.039 39.176-.662 78.387 0 119.54 0V.9H381zm-99.387 404.711V204.44c-32.047 0-62.576-1.846-92.788.558a77.59 77.59 0 00-33.759 10.091 76.468 76.468 0 00-25.64 23.913 112.925 112.925 0 00-19.811 45.121 112.236 112.236 0 001.352 49.158c8.683 37.663 39.071 70.413 70.588 72.121 32.717 1.568 65.541.209 100.058.209z" fill="#F7F7F7"/></svg>