<svg width="495" height="406" fill="none" xmlns="http://www.w3.org/2000/svg"><path d="M2.019.932h125.317v20.72c0 95.448-.177 190.897.354 286.311.213 37.817 17.432 67.312 53.89 80.858a187.852 187.852 0 0071.135 12.513 187.713 187.713 0 0070.586-15.229c27.317-11.422 40.532-33.848 44.11-61.393a522.842 522.842 0 003.756-65.396c.425-78.665 0-157.329 0-235.993V1.558H494.89v19.536c0 98.931.248 197.827 0 296.758-.319 95.728-49.248 145.838-141.721 160.359-51.126 8.009-104.095 9.123-155.894 6.964-57.149-2.333-111.818-18.7-155.397-57.875-24.34-21.869-40.603-51.12-41.064-83.574C-.745 231.527.39 119.294.531 7.096c.31-2.094.808-4.157 1.488-6.164z" fill="#F7F7F7"/></svg>