<svg width="367" height="366" fill="none" xmlns="http://www.w3.org/2000/svg"><path d="M607.042 189.848c-57.756-11.57-114.659-32.738-165.204-66.713-13.058-8.779-26.028-24.253-50.618-30.452a171.567 171.567 0 00-64.25 2.945c-19.835 4.824-43.937 11.473-59.206 21.879-19.358 13.342-43.138 40.89-48.541 65.9-13.033-22.12-26.811-52.009-55.216-39.358 7.622-3.366 20.992-29.015 24.273-36.7 4.979-11.879 11.048-22.93 17.962-33.408 13.721-20.76 30.552-38.483 48.793-53.812 30.585-25.494 56.421-40.514 92.453-54.365 12.79-4.97 26.775-9.312 41.279-11.981-.047-.152-.047-.152.058-.351 59.878-10.588 141.83-5.363 176.136 34.82 24.036 28.037 33.536 40.921 61.786 64.817 50.367 42.53 80.483 49.347 130.476 58.994l-1.682 90.685c-49.253.79-98.365-2.797-148.499-12.9z" fill="#EC1C2D"/><path d="M218.553 191.448c-3.968 9.231-11.835 17.173-17.748 25.508-9.701 13.845-17.327 29.545-30.054 41.162-3.795 3.345-7.438 6.642-11.479 9.73-6.751 5.096-14.488 9.164-20.993 14.516-3.176 2.653-10.016 14.442-14.136 14.055-4.776-.351-9.127-4.167-10.286-8.974-3.125-14.362 17.014-24.114 15.996-38.13-.677-8.623-3.031-18.892-11.518-19.924-23.704-2.808-53.638 39.816-23.926 49.092 4.603 1.405 11.873 2.814 11.937 9.461-.026 3.675-4.969 6.542-8.617 7.675-4 1.075-11.805 1.164-15.59-.827-11.706-6.033-22.783-18.094-23.496-32.205-.405-12.041 6.31-22.625 14.832-30.603 4.927-4.53 8.104-7.182 14.797-11.927 5.21-3.617 9.944-6.086 15.495-9.143-9.033-3.863-20.753-1.891-30.446-3.049-12.455-1.466-25.821 2.183-37.988 3.793-4.492.561-12.633 2.255-15.443-3.039-2.762-5.142 4.167-9.127 7.637-11.37 6.075-4.053 13.571-6.213 20.883-6.816 4.891-.352 7.722-.897 14.18-1.569 7.113-.708 15.772-.729 23.216-.374 4.424.294 8.849.587 13.367 1.184 2.611.356 10.017.057 11.894 1.808-8.55-7.679-17.314-7.458-27.793-9.539-5.866-1.179-11.873-2.814-17.681-4.344-6.558-1.797-13.478-3.149-19.768-5.696-3.245-1.326-10.217-4.995-10.485-9.079-.97-13.864 53.966 2.581 59.292 3.094 3.617.377 7.585.812 11.239 1.844-13.777-10.556-19.8-13.853-31.873-26.438-2.71-2.825-11.716-10.362-10.17-14.508 2.442-6.092 11.537-.415 14.163 1.603 18.374 14.628 50.461 28.334 73.724 18.446 7.061-3.025 13.943-7.162 21.57-8.363 12.376-2.008 25.041 3.893 34.121 12.741 6.956 6.84 12.209 15.709 13.368 25.349.588 5.651-.418 10.463-2.221 14.856z" fill="#EEB48E"/></svg>