<svg width="135" height="126" fill="none" xmlns="http://www.w3.org/2000/svg"><path d="M44.05 7.76L13.482 51.189m5.721 49.946L13.48 51.189" stroke="#93B0B6" stroke-width="3" stroke-miterlimit="10" stroke-linecap="round"/><path d="M13.481 51.189l7.612.828 9.199.997m60.953 6.425l35.125-1.433" stroke="#7697A0" stroke-width="3" stroke-miterlimit="10" stroke-linecap="round"/><path d="M99.206 21.916l27.164 36.09m-17.257 39.8l17.263-39.795M13.481 51.189l35.654 66.751" stroke="#93B0B6" stroke-width="3" stroke-miterlimit="10" stroke-linecap="round"/><path d="M57.434 102.492c-3.014 1.591-13.018-9.263-18.724-20.87-2.686-5.449-7.53-15.317-5.885-27.79 1.09-8.414 6.627-15.776 17.655-30.515 6.785-9.057 11.76-14.005 14.98-12.844 1.635.594 2.964 2.91 3.744 4.283a17.812 17.812 0 012.141 6.414c.545 3.596 2.153 7.389 5.351 14.98 1.886 4.479 2.425 3.939 8.043 14.434 2.888 5.384 4.36 8.517 3.139 10.108-.725.916-1.668.43-5.417 1.33a32.51 32.51 0 00-7.144 2.648 28.339 28.339 0 00-5.367 3.667c-1.71 1.444-5.525 4.686-7.988 9.896-2.343 4.964-2.076 8.664-2.692 8.647-.992-.032-1.695-9.53-1.777-18.347-.092-10.135.654-16.892.164-16.968-.49-.076-1.635 5.182-2.18 9.263-3.204 24.162 5.335 39.877 1.957 41.664z" fill="#4A7079"/><path d="M62.365 96.084c-1.597-.403-2.523-7.852.153-14.92 4.06-10.724 14.603-15.47 17.388-16.723 3.945-1.77 9.23-2.207 19.796-3.073 2.725-.224 5.94-.409 6.822 1.204.665 1.226-.425 2.768-2.01 5.618-.856 1.537-2.752 5.929-6.54 14.713-3.116 7.192-2.103 6.271-3.345 8.288-4.964 8.08-13.52 10.636-14.713 10.969-5.77 1.634-14.456 1.694-15.731-1.51-.757-1.89 1.253-4.495 4.577-8.8 3.324-4.305 6.441-6.871 6.207-7.15-.164-.19-1.804.834-3.411 2.072-6.332 4.865-7.842 9.655-9.193 9.312z" fill="#4A7079"/><path d="M13.481 64.67c7.446 0 13.481-6.036 13.481-13.481 0-7.446-6.035-13.481-13.48-13.481C6.035 37.708 0 43.743 0 51.188 0 58.635 6.036 64.67 13.481 64.67zm112.895 1.1a7.76 7.76 0 100-15.518 7.76 7.76 0 000 15.519zm-27.17-38.9a4.954 4.954 0 100-9.908 4.954 4.954 0 000 9.907zm9.907 75.889a4.953 4.953 0 100-9.906 4.953 4.953 0 000 9.906zm-89.91 6.136a7.76 7.76 0 100-15.52 7.76 7.76 0 000 15.52zM49.135 125.7a7.76 7.76 0 100-15.52 7.76 7.76 0 000 15.52zM44.05 15.519A7.76 7.76 0 1044.05 0a7.76 7.76 0 000 15.519z" fill="#7697A0"/></svg>