<svg width="305" height="305" fill="none" xmlns="http://www.w3.org/2000/svg"><path d="M286.97 31.534a5.917 5.917 0 00-5.124-2.938l-28.515.058-14.345-24.837A5.918 5.918 0 00233.85.859l-31.97.064a5.915 5.915 0 00-5.118 2.97L183.669 26.68l-10.34-5.405c.118-.831.181-1.68.179-2.543-.019-9.788-7.998-17.735-17.786-17.716-9.788.02-17.735 8-17.716 17.787.02 9.788 7.999 17.735 17.787 17.716a17.682 17.682 0 0012.045-4.761l13.884 7.259 15.179 25.848a5.916 5.916 0 005.114 2.92l28.486-.056 12.564 22.205-11.872 17.956a17.701 17.701 0 00-4.253-.51c-9.788.02-17.735 7.999-17.715 17.787.02 9.788 7.999 17.735 17.787 17.715a17.657 17.657 0 007.651-1.744l11.849 11.801a17.663 17.663 0 00-1.713 7.658c.019 9.788 7.999 17.736 17.787 17.716 9.787-.02 17.735-7.999 17.715-17.787-.02-9.788-7.999-17.735-17.787-17.715a17.67 17.67 0 00-7.651 1.743l-11.849-11.8a17.664 17.664 0 001.713-7.659 17.65 17.65 0 00-3.638-10.715l12.096-18.295 28.797-.058a5.92 5.92 0 005.134-2.996l15.931-28.06a5.915 5.915 0 00-.033-5.901L286.97 31.534zm-131.201-6.85a5.924 5.924 0 01-5.929-5.905 5.924 5.924 0 015.905-5.929 5.923 5.923 0 015.929 5.906 5.923 5.923 0 01-5.905 5.928zm37.04 9.842l12.511-21.775 25.13-.051 12.61 21.832-12.486 21.362-25.188.05-12.577-21.418zm28.25 90.617a5.925 5.925 0 015.905-5.929 5.923 5.923 0 015.929 5.905 5.918 5.918 0 01-5.905 5.929 5.923 5.923 0 01-5.929-5.905zm47.408 35.407a5.925 5.925 0 01-5.905 5.929 5.924 5.924 0 01-5.929-5.905 5.917 5.917 0 015.905-5.929 5.923 5.923 0 015.929 5.905zm10.054-76.35l-25.074.05-12.661-22.376 12.501-21.41 25.174-.05 12.614 21.672L278.521 84.2zm-163.382 38.79a5.917 5.917 0 00-4.863 2.564c-3.862 5.614-12.843 19.491-12.828 27.057.02 9.788 7.999 17.735 17.787 17.715 9.788-.02 17.735-7.999 17.715-17.787-.015-7.566-9.052-21.406-12.937-27.005a5.917 5.917 0 00-4.874-2.544zm.072 35.502c-3.263.007-5.922-2.642-5.929-5.898.044-1.809 2.495-6.971 5.893-12.721 3.417 5.73 5.887 10.88 5.941 12.696a5.923 5.923 0 01-5.905 5.923zm.293 145.559a5.917 5.917 0 10-.025-11.833 5.917 5.917 0 00.025 11.833z" fill="#4A707A"/><path d="M158.367 139.196l-.105-51.795 5.917-.012a5.917 5.917 0 005.905-5.93l-.047-23.667a5.918 5.918 0 00-5.929-5.905l-98.223.197a5.917 5.917 0 00-5.905 5.93l.048 23.667a5.917 5.917 0 005.929 5.906l5.917-.012.104 51.794L4.045 269.418a23.717 23.717 0 00-2.787 11.195c.026 13.05 10.665 23.647 23.715 23.62l63.904-.128a5.918 5.918 0 00-.023-11.834l-63.904.128c-6.526.013-11.845-5.285-11.858-11.81a11.686 11.686 0 011.398-5.609l36.055-69.021 129.522-.261 36.333 68.875a11.69 11.69 0 011.42 5.604c.013 6.525-5.285 11.845-11.81 11.858l-63.903.128a5.917 5.917 0 00.024 11.834l63.904-.128c13.05-.026 23.646-10.665 23.62-23.716a23.713 23.713 0 00-2.833-11.184l-68.455-129.773zm-86.541-75.29l86.389-.173.023 11.834-86.388.174-.024-11.834zM56.733 194.113l26.41-50.557a5.92 5.92 0 00.672-2.751l-.107-53.253 62.72-.126.107 53.253c.002.958.237 1.901.684 2.748l26.612 50.45-117.098.236z" fill="#4A707A"/></svg>