<svg width="968" height="397" fill="none" xmlns="http://www.w3.org/2000/svg"><path d="M92.936-1278.04c-109.155 120.48-304.728 458.514-321.863 675.087-34.656 441.973 426.889 813.281 426.889 813.281l51.543-17.211c-380.231-461.54-24.638-1125.403 94.876-1340.237L92.937-1278.04z" fill="#EC1C2D"/><path d="M251.033 189.549c15.443 1.612 31.036 6.791 42.867 17.043 6.76 5.81 10.966 13.134 16.531 20.126 2.363 2.729-4.492 14.239-6.188 13.89-12.038-3.291-14.22-7.888-24.202-14.564-7.782-5.476-17.443-8.755-26.301-3.369-8.859 5.386-12.149 17.084-8.468 27.292 2.34 6.805 7.575 12.097 14.009 15.528 6.096 3.089 12.862 7.88 20.168 7.071 9.854-.965 16.357-10.439 24.708-15.997 3.067-2.021 6.641-3.53 10.206-3.341 3.733.36 7.285 2.926 7.776 6.495.49 3.568-1.906 6.951-4.298 9.655-6.492 7.436-13.831 14.358-21.844 20.258-6.478 4.719-13.973 9.093-22.11 6.672-4.916-1.555-9.659-3.618-14.575-5.173-9.999-3.62-19.338-3.501-18.391 9.749.791 10.702 9.4 20.087 16.322 27.426 8.273 8.705 16.379 16.899 26.363 23.236.677.343 1.523.857 1.859 1.538.503 1.191-.013 2.377-.528 3.563-7.71 12.693-24.102-1.828-31.371-7.811-8.62-7.348-16.383-16.22-21.422-26.435-2.689-5.109-4.697-10.553-6.195-16.165-1.333-4.761-.789-11.041-2.803-15.467-4.473 10.843-2.509 24.438.657 35.492 1.166 4.252 14.615 29.115 1.377 28.025-2.207-.182-4.237-1.551-6.097-3.09-7.436-6.492-11.786-18.402-13.262-28.089-2.136-13.086-3.417-27.356-2.158-40.424-13.813 10.962-10.719 35.261-21.819 46.917-4.262 3.203-5.411-4.105-6.074-7.165-.662-3.06-.134-6.623.393-9.846 2.983-17.813 8.178-36.463 6.747-54.3-1.274-15.628-2.548-31.257 6.697-45.13 13.352-19.965 39.532-25.596 61.426-23.61z" fill="#EEB48E"/></svg>