<svg width="293" height="291" fill="none" xmlns="http://www.w3.org/2000/svg"><g filter="url(#filter0_d)"><path d="M98.444 54.678l4.782-50.397 29.716 40.987L155.611 0l12.899 48.952 37.497-34.022-5.664 50.304 47.259-18.187-23.459 44.861 50.641.108-38.087 33.362 47.182 18.387-47.569 17.356 37.351 34.183-50.63-.993 22.478 45.36-46.853-19.207 4.567 50.416-36.749-34.831-13.961 48.66-21.676-45.751-30.602 40.332-3.685-50.485-43.11 26.555 14.812-48.407-49.797 9.199 31.304-39.795L0 166.951l43.574-25.796L.575 114.416l49.95-8.326-30.433-40.46L69.68 75.904 55.92 27.188l42.523 27.49z" fill="#E6007E"/></g><defs><filter id="filter0_d" x="0" y="0" width="292.879" height="290.709" filterUnits="userSpaceOnUse" color-interpolation-filters="sRGB"><feFlood flood-opacity="0" result="BackgroundImageFix"/><feColorMatrix in="SourceAlpha" values="0 0 0 0 0 0 0 0 0 0 0 0 0 0 0 0 0 0 127 0" result="hardAlpha"/><feOffset dx="9" dy="6"/><feComposite in2="hardAlpha" operator="out"/><feColorMatrix values="0 0 0 0 0.568627 0 0 0 0 0.0823529 0 0 0 0 0.352941 0 0 0 1 0"/><feBlend in2="BackgroundImageFix" result="effect1_dropShadow"/><feBlend in="SourceGraphic" in2="effect1_dropShadow" result="shape"/></filter></defs></svg>