<svg width="101" height="40" fill="none" xmlns="http://www.w3.org/2000/svg"><path fill-rule="evenodd" clip-rule="evenodd" d="M53.01 20.716a4.88 4.88 0 00-.5.29v-2.962h-5.377v11.317h5.377v-.742c.155.105.317.2.485.288l.011.005.01.006c.766.381 1.601.557 2.477.557.881 0 1.72-.175 2.484-.56l.007-.004c.354-.181.679-.399.971-.652l-.843 1.725 1.04.693a5.639 5.639 0 001.806.765 8.35 8.35 0 002.066.247c1.423 0 2.737-.356 3.727-1.272a4.02 4.02 0 00.832-1.056h4.295v-.156a8.496 8.496 0 002.137.27c.807 0 1.575-.11 2.264-.383.533-.21 1.033-.508 1.438-.928.092.11.193.216.304.316l.004.004.005.005c.81.726 1.859.986 2.936.986.4 0 .799-.032 1.184-.114h4.994v-.749c.168.112.345.214.53.306l.006.003c.774.38 1.618.554 2.504.554.958 0 1.866-.21 2.663-.697l.036-.022c.445.232.95.396 1.484.515a8.544 8.544 0 001.863.204c.807 0 1.575-.11 2.264-.383.652-.257 1.255-.646 1.693-1.228a3.158 3.158 0 00.651-1.925c0-.756-.205-1.549-.801-2.164l.963-2.338-1.145-.606a5.412 5.412 0 00-1.539-.513 8.18 8.18 0 00-1.635-.163c-.796 0-1.556.112-2.241.383l-.008.003c-.4.16-.78.37-1.114.644a4.245 4.245 0 00-.471-.333c-.797-.488-1.705-.697-2.663-.697-.886 0-1.73.174-2.504.554l-.007.004c-.18.09-.355.19-.52.3a2.8 2.8 0 00.25-1.178 2.57 2.57 0 00-.922-2.005c-.598-.506-1.323-.687-2.025-.687-.724 0-1.449.204-2.043.725a2.612 2.612 0 00-.714.998h-4.844v1.639a6.329 6.329 0 00-.753-.187 8.18 8.18 0 00-1.636-.163c-.796 0-1.555.112-2.241.383l-.007.003a5.18 5.18 0 00-.186.078c.07-.25.106-.513.106-.784a2.57 2.57 0 00-.923-2.005c-.598-.506-1.323-.687-2.025-.687-.723 0-1.448.204-2.043.725a2.617 2.617 0 00-.905 2.013c0 .132.009.261.026.388h-2.716a4.46 4.46 0 00-1.025-.114c-.758 0-1.481.183-2.148.546-.444.24-.83.549-1.155.92a4.585 4.585 0 00-1.25-.907c-.764-.384-1.601-.56-2.48-.56-.877 0-1.712.177-2.477.559l-.008.003zm-1.108 4.093a3.043 3.043 0 01.608-1.878c.292-.393.67-.706 1.13-.94.55-.273 1.168-.41 1.853-.41.693 0 1.31.137 1.853.41a3.093 3.093 0 011.276 1.153c.27.426.423.905.456 1.437.005.075.007.151.007.228a3.1 3.1 0 01-.512 1.753c-.298.451-.707.81-1.227 1.077-.543.273-1.16.41-1.852.41-.686 0-1.303-.137-1.853-.41a3.288 3.288 0 01-1.276-1.153 3.1 3.1 0 01-.464-1.677zm8.167-1.968a2.927 2.927 0 00-.106.166c-.271.456-.407.981-.407 1.574 0 .077.003.153.008.228.03.502.163.954.399 1.358l.008.013a2.82 2.82 0 001.159 1.09 3.09 3.09 0 001.397.323c.081 0 .16-.003.237-.008.224-.015.43-.051.618-.11a1.843 1.843 0 00.85-.544v.114c0 .426-.116.75-.35.97-.233.22-.606.33-1.118.33-.078 0-.157-.002-.237-.008a3.756 3.756 0 01-.886-.182 2.885 2.885 0 01-.853-.425l-.859 1.757c.238.158.507.293.808.403a5.1 5.1 0 00.56.167c.534.137 1.11.206 1.727.206 1.205 0 2.13-.3 2.778-.902.304-.275.537-.613.7-1.015.053-.13.098-.267.136-.41.098-.37.147-.785.147-1.244v-4.997h-2.428v.707a1.787 1.787 0 00-.984-.707 2.533 2.533 0 00-.428-.09 3.374 3.374 0 00-.418-.024 3.04 3.04 0 00-1.48.376 2.748 2.748 0 00-.978.884zm9.121-1.648c-.395 0-.726-.09-.993-.27a1.46 1.46 0 01-.125-.095 1.364 1.364 0 01-.158-.168 1.175 1.175 0 01-.205-.391 1.345 1.345 0 01-.055-.388c0-.38.14-.692.418-.935.286-.251.659-.377 1.118-.377.467 0 .84.118 1.118.354.28.236.418.54.418.912 0 .155-.021.3-.064.434a1.237 1.237 0 01-.354.548c-.278.25-.651.376-1.118.376zm2.688 1.2c-.078.075-.15.154-.213.237a1.754 1.754 0 00-.36 1.064v.02c0 .51.131.901.395 1.175a2.25 2.25 0 00.494.378c.14.077.287.138.443.181a7.8 7.8 0 00.441.099 10.885 10.885 0 00.847.13l.146.017c.163.02.3.041.407.062l.019.003c.053.01.1.021.14.032.15.037.225.106.225.205 0 .099-.06.175-.18.228a.77.77 0 01-.163.041l-.007.001c-.112.018-.26.026-.44.026-.072 0-.144-.001-.216-.005h-.004a5.026 5.026 0 01-1.358-.276l-.01-.005a3.27 3.27 0 01-.57-.273l-.7 1.7a3.55 3.55 0 00.752.316 6.33 6.33 0 00.585.15c.482.1.97.15 1.464.15.685 0 1.269-.095 1.75-.285.483-.19.844-.445 1.085-.764.059-.078.11-.158.155-.24.138-.255.206-.528.206-.821a2.352 2.352 0 00-.06-.535 1.348 1.348 0 00-.347-.64 2.03 2.03 0 00-.772-.51l-.024-.009a2.03 2.03 0 00-.13-.04 7.246 7.246 0 00-.863-.183 11.952 11.952 0 00-.514-.07 5.477 5.477 0 01-.61-.1c-.15-.047-.226-.119-.226-.218 0-.126.114-.213.343-.258a2.711 2.711 0 01.493-.038c.058 0 .116.001.173.003h.002a3.83 3.83 0 01.866.14c.16.047.314.104.466.173l.02.009h.002c.086.04.172.084.255.131l.7-1.7a2.793 2.793 0 00-.113-.057l-.017-.008a3.47 3.47 0 00-.383-.15 4.59 4.59 0 00-.639-.161 6.807 6.807 0 00-1.367-.137c-.67 0-1.246.095-1.727.285-.351.14-.638.316-.86.527zm5.541-.356h.848v-1.745h2.552v1.745h1.266v1.883h-1.266v1.574c0 .19.05.338.147.445a.5.5 0 00.384.16c.032 0 .063-.002.094-.004a1.002 1.002 0 00.482-.168l.61 1.791a2.2 2.2 0 01-.547.217 3.063 3.063 0 01-.212.047l-.01.002a4.205 4.205 0 01-.8.065c-.867 0-1.533-.209-2-.627a1.945 1.945 0 01-.458-.633 2.712 2.712 0 01-.221-.85 4.075 4.075 0 01-.021-.422v-1.598h-.848v-1.882zm6.077-1.092c.26.165.581.248.96.248.466 0 .84-.126 1.118-.377a1.237 1.237 0 00.354-.548 1.43 1.43 0 00.064-.433c0-.372-.14-.677-.418-.912-.279-.236-.652-.354-1.118-.354-.46 0-.832.126-1.119.377a1.186 1.186 0 00-.418.935c0 .138.02.267.055.388.038.123.093.237.169.342.012.017.023.033.036.049.047.059.1.115.158.168a1.3 1.3 0 00.159.117zm3.503 2.199a3.23 3.23 0 011.299-1.152c.557-.274 1.186-.411 1.886-.411.753 0 1.397.163 1.932.49a2.867 2.867 0 01.316.224 2.508 2.508 0 01.79 1.134l-1.976.981a2.425 2.425 0 00-.078-.159c-.191-.357-.445-.57-.76-.638a1.105 1.105 0 00-.235-.024c-.301 0-.554.106-.757.32-.196.212-.294.513-.294.9 0 .396.098.7.294.913.203.213.456.32.757.32.082 0 .16-.009.235-.025.315-.069.569-.281.76-.638a2.45 2.45 0 00.078-.159l1.976.981a2.471 2.471 0 01-.839 1.172 2.867 2.867 0 01-.61.366c-.46.207-.99.31-1.589.31-.7 0-1.329-.137-1.886-.41a3.227 3.227 0 01-1.3-1.153 3.1 3.1 0 01-.462-1.677c0-.623.154-1.178.463-1.665zm6.43 4.29c.17.097.367.186.594.264.051.017.103.035.157.051a6.39 6.39 0 00.586.15c.481.1.969.15 1.464.15.684 0 1.268-.095 1.75-.285.482-.19.843-.445 1.084-.764.241-.32.362-.673.362-1.061 0-.196-.02-.374-.06-.535a1.353 1.353 0 00-.347-.64 2.032 2.032 0 00-.926-.56 7.252 7.252 0 00-.864-.182 11.952 11.952 0 00-.514-.07 5.462 5.462 0 01-.61-.1c-.15-.047-.226-.119-.226-.218 0-.126.115-.213.344-.258a2.715 2.715 0 01.492-.038c.058 0 .116.001.173.003h.003a3.83 3.83 0 01.866.14c.165.049.327.11.484.181l.004.002c.086.04.17.083.255.13l.7-1.7a3.329 3.329 0 00-.513-.215 4.834 4.834 0 00-.64-.161 6.815 6.815 0 00-1.366-.137c-.67 0-1.246.095-1.728.285a2.88 2.88 0 00-.714.4 1.99 1.99 0 00-.359.364 1.753 1.753 0 00-.361 1.064v.02c0 .136.009.263.028.381.039.251.12.465.242.642.038.054.08.105.125.152a2.24 2.24 0 00.494.378 2.056 2.056 0 00.554.209 10.73 10.73 0 001.177.2l.147.018c.163.02.299.041.407.062l.019.003c.053.01.1.021.139.032.15.037.225.106.225.205 0 .099-.06.175-.18.228a.761.761 0 01-.163.041l-.006.001a3 3 0 01-.44.026 3.95 3.95 0 01-.217-.005h-.003a5.026 5.026 0 01-1.357-.276l-.011-.005a3.288 3.288 0 01-.57-.273l-.7 1.7zM51.097 19.47v8.465h-2.553V19.47h2.553zm16.816 8.465v-6.24h2.552v6.24h-2.552zm15.265-6.24v6.24h2.553v-6.24h-2.553z" fill="#fff"/><path d="M56.592 24.806c0 .696-.488 1.261-1.089 1.261-.6 0-1.088-.565-1.088-1.261 0-.697.487-1.262 1.088-1.262.601 0 1.089.565 1.089 1.262zm7.724-.24c0 .596-.487 1.079-1.088 1.079a1.084 1.084 0 01-1.088-1.08c0-.595.487-1.078 1.088-1.078.6 0 1.088.483 1.088 1.079zM8.181 0H0v33.276h22l-9.182-8.762H8.18V0z" fill="#fff"/><path d="M31.817 39.52L15.545 24.514 31.817 9.601h12.727L28.635 24.514 44.544 39.52H31.817zM18.762 4.176c0 2.306-1.823 4.176-4.072 4.176-2.25 0-4.073-1.87-4.073-4.176S12.44 0 14.69 0c2.249 0 4.072 1.87 4.072 4.176z" fill="#fff"/><path d="M42.752 24.452c0 2.306-1.823 4.175-4.073 4.175-2.249 0-4.072-1.87-4.072-4.175 0-2.307 1.823-4.176 4.072-4.176 2.25 0 4.073 1.87 4.073 4.176z" fill="#fff"/><path fill-rule="evenodd" clip-rule="evenodd" d="M9.765 22.51V9.623h18.912L14.514 22.51H9.765z" fill="#fff"/><path d="M1.167 38.588H3.2v.868H0v-4.683h1.167v3.815zm6.493.868H6.495v-4.683H7.66v4.683zm5.183-1.743l-.48.508v1.235h-1.167v-4.683h1.168v2.065l.405-.595 1.045-1.47h1.443l-1.636 2.072 1.636 2.611h-1.383l-1.031-1.743zm9.429-.501c0 .456-.088.86-.263 1.212a1.907 1.907 0 01-.748.814 2.134 2.134 0 01-1.101.283 2.18 2.18 0 01-1.098-.274 1.922 1.922 0 01-.748-.788 2.624 2.624 0 01-.28-1.174v-.263c0-.459.087-.863.26-1.213.175-.351.425-.622.748-.813a2.158 2.158 0 011.111-.287c.41 0 .776.095 1.098.283.321.19.57.458.748.808.18.347.27.746.273 1.196v.215zm-1.188-.197c0-.465-.08-.818-.242-1.058a.775.775 0 00-.689-.363c-.585 0-.894.424-.928 1.273l-.003.345c0 .458.079.811.236 1.058.158.246.392.37.702.37a.77.77 0 00.682-.364c.16-.242.24-.59.242-1.045v-.216z" fill="#fff"/></svg>