<svg width="50" height="50" fill="none" xmlns="http://www.w3.org/2000/svg"><g clip-path="url(#clip0)" fill="#323232"><path d="M26.055 23.993c-.008-.009-.01-.02-.02-.028l-8.359-8.36v-5.253c0-.39-.154-.761-.43-1.036L8.459.43a1.466 1.466 0 00-2.5 1.036V5.86H1.464A1.463 1.463 0 00.43 8.36l8.886 8.887c.275.275.647.43 1.036.43h5.253l8.36 8.359c.008.008.02.01.028.019a1.44 1.44 0 002.015 0 1.445 1.445 0 00.047-2.062z"/><path d="M25 0c-3.747 0-7.291.954-10.482 2.444l4.493 4.493a18.939 18.939 0 015.99-.98c10.5 0 19.043 8.544 19.043 19.043 0 10.5-8.543 19.043-19.043 19.043S5.958 35.5 5.958 25c0-2.093.353-4.103.98-5.99l-4.494-4.493C.954 17.708.001 21.252.001 25c0 13.732 11.268 25 25 25 13.731 0 25-11.268 25-25C50 11.27 38.732 0 25 0z"/><path d="M25 11.816c-1.548 0-3.013.318-4.394.81v1.765l3.386 3.387c.333-.047.663-.102 1.008-.102 4.038 0 7.324 3.286 7.324 7.324S29.04 32.324 25 32.324c-4.038 0-7.324-3.285-7.324-7.324 0-.345.055-.675.102-1.008l-3.386-3.387h-1.765c-.493 1.382-.81 2.847-.81 4.395 0 7.27 5.913 13.184 13.183 13.184S38.184 32.27 38.184 25 32.27 11.816 25 11.816z"/></g><defs><clipPath id="clip0"><path fill="#fff" d="M0 0h50v50H0z"/></clipPath></defs></svg>