<svg version="1.0" xmlns="http://www.w3.org/2000/svg" width="602.667" height="602.667" viewBox="0 0 452 452"><path d="M208.9.5c-.2.1-3.6.6-7.6.9-4 .4-7.8.8-8.5 1.1-.7.2-3.2.6-5.6.9-10.8 1.4-33.3 7.8-46.7 13.3-28.9 12-51.7 27.4-74.6 50.2-30.9 31-51.6 68.9-60.8 111.6-1.8 8.6-2.3 11.2-3.9 23.5-.9 7.3-.9 40.8.1 49 4.9 41.7 20.8 80.8 46.5 114 8.8 11.3 28.5 30.9 40 39.8 30.6 23.5 69.3 39.9 105.2 44.8 3 .4 6.6.9 8 1.1 4.9.9 39.6 1 46.5.3 27.2-3.1 42.8-7.1 67-17.1 11.5-4.8 22.8-10.8 35-18.6 25.5-16.4 51.9-43.5 68.2-69.6 14.3-23.1 26-52.7 29.9-75.7.2-1.4.7-3.6.9-5 1.2-5.7 1.4-7.2 2.2-13.7 1-8.7 1-41.9 0-50.1-5.1-41.8-19.5-78-44.1-111.1-10.2-13.6-31.1-34.5-44.8-44.6-11.6-8.7-28.9-19.5-31.2-19.5-.8 0-1.6-.4-1.8-.8-.3-.9-11.5-6.1-21.3-10-7.7-3-23.3-7.9-30-9.3-3.3-.7-6.2-1.3-6.5-1.4-1-.2-8.6-1.5-12.5-2.1-2.2-.3-5.1-.8-6.5-1.1-3.1-.5-42.7-1.3-43.1-.8z"/></svg>