<svg width="68" height="69" fill="none" xmlns="http://www.w3.org/2000/svg"><path d="M33.601 68.737C15.077 68.737.035 53.47.035 34.669.035 15.87 15.077.602 33.6.602c18.525 0 33.567 15.266 33.567 34.067 0 18.801-15.042 34.068-33.567 34.068zm11.318-47.91c-1.354 0-2.467 1.128-2.467 2.503 0 1.374 1.113 2.503 2.467 2.503s2.467-1.129 2.467-2.503c0-1.375-1.113-2.504-2.467-2.504zm-11.076 3.239c-5.756 0-10.447 4.762-10.447 10.603 0 5.842 4.691 10.603 10.447 10.603 5.756 0 10.447-4.761 10.447-10.603 0-5.841-4.691-10.603-10.447-10.603zm0 17.377c-3.676 0-6.675-3.043-6.675-6.774 0-3.73 3-6.774 6.675-6.774 3.676 0 6.675 3.043 6.675 6.774 0 3.73-2.95 6.774-6.675 6.774zm21.088-15.61c0-7.118-5.707-12.91-12.72-12.91H25.427c-7.013 0-12.72 5.792-12.72 12.91v17.083c0 7.118 5.707 12.91 12.72 12.91h16.784c7.013 0 12.72-5.792 12.72-12.91V25.833zm-4.014 17.083c0 4.909-3.918 8.885-8.755 8.885H25.38c-4.837 0-8.755-3.976-8.755-8.885V25.833c0-4.909 3.918-8.885 8.755-8.885h16.783c4.837 0 8.755 3.976 8.755 8.885v17.083z" fill="#E6007E"/></svg>