<svg width="41" height="46" fill="none" xmlns="http://www.w3.org/2000/svg"><path d="M41 12.474c-5.656 0-10.248-4.587-10.248-10.236h-7.685v29.645c0 3.428-2.803 6.228-6.235 6.228-3.432 0-6.236-2.8-6.236-6.228s2.804-6.229 6.236-6.229c.628 0 1.401.097 1.981.29v-7.821a13.194 13.194 0 00-1.981-.145c-7.686 0-13.921 6.228-13.921 13.905 0 7.676 6.235 13.905 13.92 13.905 7.686 0 13.921-6.229 13.921-13.905V16.19A16.151 16.151 0 0041 19.812v-7.338z" fill="#E6007E"/><path d="M38.824 10.301c-5.655 0-10.247-4.587-10.247-10.236h-7.685V29.71c0 3.428-2.804 6.228-6.236 6.228-3.431 0-6.235-2.8-6.235-6.228s2.804-6.228 6.235-6.228c.629 0 1.402.096 1.982.29V15.95a13.206 13.206 0 00-1.982-.145c-7.685 0-13.92 6.228-13.92 13.905s6.235 13.905 13.92 13.905c7.686 0 13.921-6.228 13.921-13.905V14.019a16.151 16.151 0 0010.247 3.62v-7.338z" fill="#fff"/><path d="M38.825 12.232c-2.466-.531-4.592-1.98-6.043-3.91a10.086 10.086 0 01-3.915-6.036h-5.752V31.93c0 3.428-2.803 6.229-6.235 6.229-2.272 0-4.302-1.207-5.365-3.042-1.837-1.11-3.045-3.09-3.045-5.36 0-3.427 2.803-6.227 6.235-6.227.628 0 1.402.096 1.982.29v-5.843c-7.59.097-13.728 6.277-13.728 13.905a13.96 13.96 0 003.045 8.69 13.996 13.996 0 008.7 3.042c7.686 0 13.922-6.228 13.922-13.904V14.018a16.151 16.151 0 0010.247 3.621v-5.407h-.048z" fill="#E6007E"/></svg>