<?xml version="1.0" encoding="UTF-8" standalone="no"?>
<!-- Created with Inkscape (http://www.inkscape.org/) -->
<svg
   xmlns:dc="http://purl.org/dc/elements/1.1/"
   xmlns:cc="http://web.resource.org/cc/"
   xmlns:rdf="http://www.w3.org/1999/02/22-rdf-syntax-ns#"
   xmlns:svg="http://www.w3.org/2000/svg"
   xmlns="http://www.w3.org/2000/svg"
   xmlns:sodipodi="http://sodipodi.sourceforge.net/DTD/sodipodi-0.dtd"
   xmlns:inkscape="http://www.inkscape.org/namespaces/inkscape"
   id="svg2"
   sodipodi:version="0.32"
   inkscape:version="0.45"
   width="225.99654"
   height="250"
   version="1.0"
   sodipodi:docbase="/home/butze/Desktop"
   sodipodi:docname="Unilever_logo.png"
   sodipodi:modified="true">
  <metadata
     id="metadata7">
    <rdf:RDF>
      <cc:Work
         rdf:about="">
        <dc:format>image/svg+xml</dc:format>
        <dc:type
           rdf:resource="http://purl.org/dc/dcmitype/StillImage" />
      </cc:Work>
    </rdf:RDF>
  </metadata>
  <defs
     id="defs5" />
  <sodipodi:namedview
     inkscape:window-height="749"
     inkscape:window-width="1280"
     inkscape:pageshadow="2"
     inkscape:pageopacity="0.0"
     guidetolerance="10.0"
     gridtolerance="10.0"
     objecttolerance="10.0"
     borderopacity="1.0"
     bordercolor="#666666"
     pagecolor="#ffffff"
     id="base"
     inkscape:zoom="1.7857143"
     inkscape:cx="95"
     inkscape:cy="127.4"
     inkscape:window-x="0"
     inkscape:window-y="26"
     inkscape:current-layer="svg2" />
  <path
     style="fill:#000099;fill-opacity:1"
     d="M 7.9999597,247.93687 C 3.2376655,244.98613 0,237.52158 0,229.49266 C 0,216.23317 3.8350644,205.99548 8.8021037,205.99548 C 10.149624,205.99548 10.42817,209.20021 10.29051,223.12056 C 10.139157,238.42656 10.362109,240.5135 12.389485,242.76752 C 15.387863,246.1011 21.747693,246.13022 24.827481,242.82444 C 26.090542,241.46871 27.787445,237.98973 28.598377,235.09338 C 29.976273,230.17198 29.863308,227.03731 27.804806,213.07344 C 27.117663,208.41214 29.281305,205.4978 32.910207,206.19666 C 35.879257,206.76844 37.237161,213.38558 36.66641,224.50095 C 36.07999,235.92147 32.553216,244.35168 26.926456,247.78277 C 22.186762,250.67295 12.542541,250.75146 7.9999597,247.93687 z M 38.603875,248.44883 C 38.265447,247.56691 39.237401,242.34658 40.763779,236.8481 C 42.732382,229.75655 44.133377,226.73639 45.584003,226.45703 C 46.708762,226.24042 47.629014,226.60343 47.629014,227.26372 C 47.629014,227.924 48.168234,229.88249 48.827288,231.61594 L 50.025563,234.76763 L 54.864838,228.6455 C 61.103262,220.7533 62.957471,221.11544 66.306827,230.88023 C 67.738483,235.05413 69.494672,239.05396 70.209453,239.76874 C 72.538071,242.09735 75.398967,238.88278 76.890042,232.26228 C 78.1637,226.60709 79.928761,223.92788 82.41584,223.8746 C 84.389027,223.83232 85.818469,229.02372 85.128182,233.72519 C 84.232947,239.82239 86.301689,243.20565 90.925121,243.20565 C 92.696718,243.20565 95.166747,242.28207 96.414079,241.15325 C 98.280529,239.46415 98.462591,238.54207 97.442699,235.94383 C 95.466131,230.90845 95.876133,215.57944 98.131081,210.2066 C 102.05795,200.85011 106.31956,198.86339 110.65103,204.36998 C 113.98164,208.60415 113.97741,220.70516 110.64215,229.80999 C 106.64976,240.70868 106.64166,240.77095 108.99351,242.49067 C 110.20302,243.37508 112.42978,244.0987 113.94185,244.0987 C 116.42719,244.0987 116.69152,243.55581 116.69554,238.44275 C 116.70066,231.92555 119.93458,225.68832 124.35212,223.67555 C 128.34441,221.85655 130.77994,223.08722 132.81183,227.95021 C 134.89381,232.93311 133.77703,236.70854 129.14276,240.35385 C 126.58682,242.36436 126.3057,243.01679 127.75565,243.57319 C 131.34389,244.95012 136.64348,240.77383 139.8149,234.06998 C 141.50457,230.4983 142.88704,227.07261 142.88704,226.45735 C 142.88704,225.84209 143.61968,224.73064 144.51515,223.98747 C 146.81089,222.08218 148.0042,223.94902 151.0913,234.27521 C 153.78671,243.2913 155.93153,245.07624 158.43935,240.39033 C 159.25675,238.86304 159.47402,235.78729 158.99173,232.57115 C 158.07345,226.44757 160.4736,221.47491 164.34754,221.47491 C 168.08348,221.47491 167.58115,231.2349 163.42705,239.35915 C 157.14937,251.63657 149.58477,253.41213 145.79815,243.49701 L 143.74769,238.12793 L 138.09506,243.4153 C 131.70981,249.38797 125.47477,251.33208 120.77376,248.81619 C 118.54176,247.62165 117.22437,247.58817 114.85914,248.66583 C 110.4885,250.65722 107.91559,250.38989 104.33346,247.5722 L 101.18049,245.09207 L 96.057231,247.5722 C 87.974992,251.48474 84.184996,250.4912 79.91296,243.34001 C 78.728592,241.35745 78.466454,241.32294 77.444598,243.01515 C 76.815788,244.05644 75.241875,246.19974 73.947008,247.77805 C 70.847015,251.55661 68.390382,250.12009 63.925912,241.91819 C 62.083372,238.53317 59.860145,235.76362 58.98539,235.76362 C 58.110648,235.76362 53.847363,238.97858 49.511432,242.90797 C 41.349247,250.30487 39.647772,251.16918 38.603875,248.44883 z M 126.16249,237.61524 C 127.86948,235.55847 127.38571,230.78061 125.40445,230.12858 C 123.44531,229.48383 121.16606,234.17132 122.06362,236.99931 C 122.94436,239.77427 124.21251,239.96483 126.16249,237.61524 z M 107.01883,225.73077 C 108.49927,219.85139 108.73696,214.32736 107.63325,211.45114 C 104.90733,204.34752 100.81887,220.80373 103.14937,229.49892 C 104.1471,233.22145 105.45284,231.94991 107.01883,225.73077 z M 172.22039,247.58445 C 165.91803,242.62701 169.24927,226.24614 176.95299,224.31262 C 188.28735,221.46789 192.28188,235.07027 181.60701,240.16075 C 176.43565,242.62681 176.2491,244.0987 181.10789,244.0987 C 185.90635,244.0987 190.63282,239.09481 193.62167,230.8504 C 195.85991,224.67649 198.38643,222.20753 199.35697,225.24575 C 199.6359,226.11883 200.20483,229.37835 200.62129,232.48912 C 201.03775,235.5999 201.78598,238.14507 202.28401,238.14507 C 202.78204,238.14507 204.39715,235.47301 205.87313,232.20715 C 210.22284,222.58268 217.62163,218.26572 223.34263,222.01426 C 226.76191,224.25466 226.89853,228.18419 223.62839,230.23369 C 222.08478,231.20111 221.02546,230.96307 219.09347,229.21462 C 215.40292,225.87473 213.32513,227.70987 207.58722,239.37709 C 201.63303,251.48413 199.21246,252.45865 196.46969,243.85298 L 194.68359,238.249 L 191.93453,242.45455 C 187.23774,249.63976 177.91676,252.0652 172.22039,247.58445 z M 178.68708,236.91245 C 180.03407,236.19157 180.99026,234.42697 180.99026,232.6621 C 180.99026,230.21366 180.48483,229.71613 178.31112,230.02486 C 176.25772,230.31649 175.54484,231.30917 175.25886,234.27521 C 174.85296,238.48506 175.22043,238.76775 178.68708,236.91245 z M 79.072963,210.14756 C 78.091567,206.23736 80.514157,203.39521 84.439574,203.85151 C 90.348488,204.53838 88.674864,213.13984 82.632303,213.13984 C 80.625931,213.13984 79.609503,212.28535 79.072963,210.14756 z M 90.358276,184.1104 C 87.990864,183.26439 84.507993,181.47784 82.618561,180.14032 C 80.729131,178.8028 76.875014,177.32288 74.053864,176.85162 C 71.232714,176.38036 67.48193,174.72447 65.718787,173.17188 L 62.513081,170.34898 L 66.11799,170.31135 C 70.975947,170.26065 75.015696,167.23951 75.015696,163.65722 C 75.015696,162.0571 75.458123,160.74792 75.998867,160.74792 C 77.298174,160.74792 81.507305,165.4174 83.243871,168.78532 C 84.902659,172.00238 91.338338,172.56483 92.478958,169.59242 C 92.874053,168.5628 96.000124,166.48085 99.425781,164.96587 C 103.9156,162.98027 106.11247,161.17614 107.29578,158.50281 C 109.24073,154.1089 109.48479,154.06156 113.5811,157.28372 C 116.16722,159.31796 118.05019,159.69898 123.87911,159.36749 C 130.69792,158.97971 131.09032,159.11215 132.78214,162.37244 C 134.95206,166.55407 134.9559,166.70155 132.89496,166.70155 C 131.98361,166.70155 130.8702,168.17507 130.42074,169.97604 C 128.08384,179.33971 119.06898,179.67487 114.40711,170.5714 C 112.61973,167.08113 111.82346,167.17587 105.50341,171.63065 C 101.73248,174.28865 98.378954,175.54398 93.89941,175.9744 C 88.761025,176.46814 88.099494,176.76491 90.312445,177.58352 C 93.870821,178.89985 101.90603,177.04216 106.11551,173.92996 C 110.44824,170.72664 110.98796,170.79848 114.08785,174.99131 C 116.68107,178.49882 125.02617,181.8667 127.43508,180.37791 C 129.42249,179.14963 131.26393,180.99923 129.80446,182.75779 C 127.5633,185.45822 120.41693,186.12773 117.09147,183.9488 C 114.36589,182.16293 113.72365,182.15687 109.42614,183.8764 C 103.81071,186.12323 96.250414,186.21602 90.358276,184.1104 z M 124.22202,168.29952 C 125.29882,167.2227 122.63023,164.18849 121.31907,164.99885 C 119.67736,166.01347 120.07707,169.083 121.85089,169.083 C 122.7241,169.083 123.7911,168.73042 124.22202,168.29952 z M 135.12252,177.81852 C 132.86171,175.55772 133.42165,170.39009 136.4239,165.80806 C 138.04469,163.33443 138.86872,163.0951 143.41674,163.77712 C 147.31999,164.36246 149.94704,163.94213 154.23196,162.0467 C 158.52585,160.14731 160.2823,159.86739 161.51051,160.88669 C 165.84477,164.48384 160.56704,173.60937 151.86674,177.56136 C 145.75301,180.33844 137.76511,180.46112 135.12252,177.81852 z M 152.1479,171.9923 C 156.17629,169.1707 155.505,167.09677 150.74326,167.65267 C 147.5933,168.02042 146.57062,168.76179 146.14549,170.98576 C 145.49223,174.40304 148.08528,174.83786 152.1479,171.9923 z M 52.392523,166.55455 C 42.822008,162.73826 37.422497,150.17023 42.338264,143.15199 C 45.044211,139.2887 46.43592,139.90345 46.45584,144.97081 C 46.489287,153.4793 52.264913,159.79533 60.011926,159.79533 C 65.633602,159.79533 67.871345,157.84029 67.871345,152.9288 C 67.871345,146.72563 63.141831,142.30194 56.984531,142.74596 C 51.678682,143.12857 54.660092,152.41284 60.088811,152.41284 C 64.408381,152.41284 64.781365,150.42551 60.618077,149.59286 C 57.983418,149.06592 57.086565,148.28834 57.376577,146.78243 C 58.381251,141.56557 66.68062,145.89231 66.68062,151.63293 C 66.68062,154.82091 63.308486,158.36647 60.276422,158.36647 C 57.173725,158.36647 51.426702,155.0591 50.045758,152.4788 C 48.067081,148.78161 48.61628,143.09049 51.20119,140.50559 C 54.149068,137.55773 61.447691,137.33205 65.353806,140.06799 C 68.635885,142.36686 72.571126,150.48655 72.608098,155.03595 C 72.689174,165.01411 62.742462,170.68163 52.392523,166.55455 z M 82.424997,162.46649 C 78.357158,159.61727 79.052219,157.17574 83.931206,157.17574 C 87.498213,157.17574 88.518629,156.48694 91.167303,152.29116 C 93.849554,148.04219 94.70902,147.47383 97.77216,147.92341 C 100.48981,148.32227 101.22301,148.01034 100.98462,146.55667 C 100.81473,145.52073 101.06459,144.05393 101.53985,143.29712 C 102.93511,141.07539 108.09706,144.17545 108.7578,147.63195 C 109.49267,151.47614 108.63853,152.76448 105.84017,152.03269 C 104.19886,151.60348 103.5931,152.07811 103.5931,153.79332 C 103.5931,162.10114 89.908467,167.70812 82.424997,162.46649 z M 166.93969,161.7005 C 165.22563,159.98644 165.05196,157.17574 166.66011,157.17574 C 168.61625,157.17574 175.9161,150.15946 176.57284,147.64811 C 177.55023,143.9106 175.48368,144.8594 172.64587,149.45109 C 168.23204,156.59283 164.02192,157.68743 158.73055,153.069 L 155.38966,150.153 L 161.69758,144.59207 C 169.54734,137.67189 168.97104,136.06873 161.03819,142.75779 C 154.31359,148.42806 150.0314,149.20915 150.0314,144.76547 C 150.0314,142.55588 150.95416,141.57645 153.97542,140.57936 C 156.14463,139.86346 160.00416,137.14276 162.55215,134.53339 C 166.13871,130.86042 168.08906,129.78906 171.18902,129.78906 C 186.10532,129.78906 188.24776,145.15533 175.15669,158.24641 C 169.86458,163.53851 169.09937,163.86018 166.93969,161.7005 z M 179.2364,138.07198 C 180.31224,136.33125 177.57247,133.36124 174.89084,133.36124 C 172.36361,133.36124 171.93924,135.74119 174.08405,137.886 C 175.84349,139.64544 178.21112,139.7309 179.2364,138.07198 z M 142.58937,160.65254 C 139.76996,159.0104 139.95619,155.17211 142.93254,153.57922 C 144.26736,152.86484 147.61627,152.44412 150.37457,152.64428 C 154.66365,152.95553 155.44912,153.42949 155.80042,155.91831 C 156.05292,157.70713 155.39174,159.42759 154.08443,160.38352 C 151.56858,162.22316 145.52863,162.36452 142.58937,160.65254 z M 118.60113,153.28629 C 112.46145,149.76638 109.54673,144.08654 109.54673,135.64224 C 109.54673,130.1546 110.16549,128.10148 112.99755,124.19194 C 117.75801,117.6203 127.65171,113.84107 133.85921,116.22312 C 136.53305,117.24917 136.19122,118.96899 133.06355,120.22616 C 130.88152,121.10322 130.78726,121.31704 132.5555,121.37851 C 133.96087,121.42736 134.5873,122.1889 134.33169,123.53776 C 134.05837,124.98 132.60463,125.73294 129.60975,125.98343 C 126.01469,126.28413 125.38338,126.7303 125.8778,128.621 C 126.34371,130.40264 125.40884,131.32239 121.57114,132.85793 C 116.08281,135.05392 114.3284,138.77238 116.51568,143.57294 C 120.11372,151.46977 136.97517,154.40623 134.98325,146.78913 C 134.41497,144.61603 133.86811,144.39671 131.37832,145.34333 C 126.6639,147.13575 122.83026,146.64476 120.08208,143.89658 C 117.7366,141.55111 117.68615,141.21207 119.48672,139.89546 C 120.56871,139.10429 121.45399,137.84625 121.45399,137.09983 C 121.45399,135.26096 121.96787,135.36511 126.48579,138.11969 C 130.78436,140.74051 139.46587,141.29466 144.75032,139.28552 C 147.8801,138.09558 147.94108,138.15687 147.21902,141.76717 C 146.23671,146.67874 142.30894,152.0349 138.08939,154.2169 C 132.99017,156.85381 124.08182,156.42843 118.60113,153.28629 z M 76.655088,151.8973 C 75.264606,150.9131 73.517657,147.68818 72.772978,144.73078 C 71.358384,139.11291 68.680895,136.54252 62.7146,135.07474 C 55.892017,133.39631 57.648444,128.65252 65.10579,128.61657 C 69.278341,128.59647 73.296337,132.56368 74.629545,138.01993 C 75.502299,141.59174 77.008281,142.84331 80.464087,142.86881 C 83.66565,142.89242 88.449008,147.99657 87.91386,150.81821 C 87.371318,153.67881 80.149902,154.37093 76.655088,151.8973 z M 83.350774,148.3727 C 83.350774,146.57724 79.893217,144.75696 78.716995,145.93318 C 78.320591,146.32959 79.035526,147.41385 80.305732,148.34265 C 83.161591,150.43092 83.350774,150.43278 83.350774,148.3727 z M 32.214813,142.15583 C 24.450712,134.90189 23.478341,124.87802 29.604779,115.24988 C 30.975625,113.0955 33.006395,109.6031 34.117603,107.48901 C 36.034956,103.84123 36.026884,103.52241 33.959237,101.2377 C 30.640864,97.570937 29.376265,98.283008 30.188281,103.36105 C 31.440912,111.19462 25.138999,116.75761 22.594312,110.06458 C 21.301052,106.66305 21.22643,92.679386 22.477632,88.201955 C 23.79542,83.486317 26.195957,83.749628 26.195957,88.609812 C 26.195957,94.500042 28.187017,93.974386 29.202742,87.815995 C 30.067387,82.573541 31.597552,79.778598 33.603019,79.778598 C 34.308727,79.778598 34.491288,82.700339 34.068045,87.220632 C 33.338619,95.010875 33.443879,94.929847 37.161764,84.839181 C 38.46899,81.291237 40.200435,78.587873 41.165578,78.587873 C 43.332555,78.587873 43.311943,80.597035 41.080024,86.92295 C 38.22969,95.001662 39.154753,96.442412 42.6439,89.358636 C 44.403363,85.786521 46.378753,83.107388 47.033651,83.405009 C 49.448001,84.502214 47.541091,92.047536 41.640297,104.74561 C 36.727613,115.31734 35.821365,118.22449 36.84328,120.13395 C 37.536247,121.42875 38.103211,122.79129 38.103211,123.1618 C 38.103211,124.34294 33.510965,123.88416 32.732945,122.62529 C 31.562497,120.73147 29.768133,122.4963 29.768133,125.54132 C 29.768133,127.09447 31.846925,130.57153 34.531035,133.50792 C 39.228565,138.64693 40.259043,141.90091 38.212365,145.13264 C 37.391241,146.42922 36.1059,145.79127 32.214813,142.15583 z M 81.140169,139.87126 C 77.132902,136.49938 74.44734,129.88344 75.605129,126.23558 C 76.562151,123.22027 77.653332,123.21063 80.352885,126.19359 C 82.892678,129.00004 88.891981,130.33039 93.974223,129.21414 C 98.410068,128.23987 98.689662,125.76917 94.662665,123.13058 C 91.285934,120.91806 90.88428,118.20602 93.434074,114.8349 C 95.005034,112.75789 95.186132,112.7333 95.220162,114.59238 C 95.240988,115.73024 97.421754,118.02711 100.06632,119.69655 C 106.46088,123.73326 107.97103,127.16715 106.09922,133.41467 C 104.19855,139.75854 99.187814,142.87659 90.884172,142.88259 C 86.025488,142.8861 83.967094,142.24997 81.140169,139.87126 z M 100.54878,135.47775 C 103.3995,131.40775 103.0161,129.38208 99.723247,131.11615 C 96.705044,132.70559 95.303085,134.44568 95.276258,136.63573 C 95.246573,139.05896 98.548312,138.3338 100.54878,135.47775 z M 129.6195,137.31391 C 128.72773,132.18173 129.00895,128.59833 130.30347,128.59833 C 132.63345,128.59833 135.99754,132.94224 135.53722,135.35642 C 135.12893,137.49764 129.94914,139.21105 129.6195,137.31391 z M 44.592665,135.84352 C 43.97051,135.24408 42.121909,134.57429 40.484662,134.35511 C 37.039893,133.89396 35.802253,129.58474 38.262994,126.61972 C 39.106326,125.60357 40.36653,123.62846 41.063449,122.23059 C 42.57061,119.20752 45.794606,118.36479 49.27393,120.08444 C 50.661375,120.77016 52.868205,121.49828 54.178003,121.70245 C 57.148839,122.16555 57.998374,126.86016 55.605255,129.58958 C 54.647745,130.68165 53.49692,132.78076 53.047874,134.25428 C 52.461084,136.17984 51.316226,136.93341 48.977642,136.93341 C 47.188064,136.93341 45.214818,136.44296 44.592665,135.84352 z M 48.819739,127.93269 C 48.819739,126.989 48.015999,126.21688 47.033651,126.21688 C 45.240145,126.21688 44.585901,128.7305 46.009009,130.15361 C 47.12024,131.26483 48.819739,129.92198 48.819739,127.93269 z M 139.27992,134.7631 C 136.87207,132.81334 136.69724,131.99655 137.55955,126.7257 C 138.08748,123.49881 138.38993,119.88037 138.23167,118.68473 C 137.97937,116.77871 138.28514,116.687 140.71315,117.94049 C 142.23623,118.72678 144.68801,120.46822 146.16153,121.81035 C 149.55537,124.90152 149.82977,132.09701 146.66314,134.96278 C 143.88501,137.47696 142.58807,137.44188 139.27992,134.7631 z M 144.07777,125.62152 C 144.07777,124.63918 143.54194,123.83544 142.88704,123.83544 C 142.23214,123.83544 141.69632,124.63918 141.69632,125.62152 C 141.69632,126.60387 142.23214,127.40761 142.88704,127.40761 C 143.54194,127.40761 144.07777,126.60387 144.07777,125.62152 z M 151.26385,134.62992 C 150.46747,133.14189 150.42573,131.28836 151.14592,129.3941 C 151.75911,127.78131 151.93779,126.13876 151.54301,125.74396 C 151.14823,125.34917 151.98618,125.02616 153.40511,125.02616 C 156.09003,125.02616 160.74793,128.85249 160.74793,131.05807 C 160.74793,136.41779 153.6511,139.09057 151.26385,134.62992 z M 186.62333,133.4548 C 186.29427,132.19645 183.82056,130.04225 181.12619,128.66768 C 177.5517,126.84411 176.22735,125.43466 176.22735,123.45402 C 176.22735,120.01206 178.33663,117.88181 181.74467,117.88181 C 183.76087,117.88181 184.4954,117.08968 184.78102,114.60732 C 185.0745,112.05673 185.86522,111.25112 188.35772,110.96324 C 195.49626,110.13878 197.72596,123.71736 191.8151,132.01838 C 188.75631,136.31407 187.46452,136.67147 186.62333,133.4548 z M 86.128629,126.10103 C 81.487337,124.75731 76.206422,118.71833 76.206422,114.75451 C 76.206422,113.13498 77.025212,110.22656 78.025945,108.29134 C 79.749104,104.95914 79.990667,104.86788 82.586221,106.56856 C 87.45811,109.76074 86.998906,106.96148 82.064291,103.38685 C 74.956625,98.238085 74.89635,96.816927 81.541122,91.052418 C 86.001328,87.183073 87.138936,85.496015 86.621673,83.518013 C 85.756921,80.211202 87.055276,80.284581 90.287571,83.725199 C 93.534298,87.181185 93.549444,89.720669 90.35418,94.890712 L 87.831795,98.972029 L 90.35418,101.65699 C 93.526581,105.03385 93.52482,107.45577 90.345166,114.02405 C 88.292022,118.26528 88.062225,119.79859 89.128911,122.1397 C 89.852254,123.72726 91.290924,125.02616 92.325961,125.02616 C 93.360999,125.02616 93.876691,125.56199 93.47194,126.21688 C 92.611176,127.60964 91.266145,127.58842 86.128629,126.10103 z M 167.16624,125.33207 C 165.99541,123.47593 165.62868,123.44446 163.69701,125.03439 C 161.67733,126.69675 161.58687,126.58018 162.30452,123.24007 C 162.72666,121.27538 163.35983,118.59625 163.71156,117.28645 C 164.06329,115.97665 163.84911,114.13571 163.23561,113.19547 C 161.60512,110.69664 158.37174,113.69654 158.34824,117.72993 C 158.33822,119.45071 157.8312,121.64735 157.22157,122.61134 C 156.27037,124.11542 156.0027,124.0763 155.33468,122.33547 C 154.70692,120.69952 154.08712,120.55794 152.13255,121.60399 C 149.92052,122.78784 149.77693,122.62996 150.48818,119.79609 C 151.07185,117.47058 150.8134,116.69108 149.45871,116.69108 C 146.34164,116.69108 147.48862,114.63958 150.99812,113.93768 C 152.83961,113.56938 155.58682,112.26353 157.10301,111.03579 C 160.7559,108.07786 159.61679,104.56525 153.83978,100.97309 C 149.84692,98.490329 149.686,98.199339 152.11516,97.854344 C 153.83691,97.609817 154.7943,96.652424 154.7943,95.175212 C 154.7943,92.612154 156.67553,92.053572 157.52305,94.364984 C 157.95964,95.55571 158.38433,95.55571 159.6465,94.364984 C 162.51158,91.662085 163.22108,92.803673 162.42161,98.830204 C 161.75426,103.86104 161.93245,104.78383 163.57134,104.78383 C 165.08378,104.78383 165.51083,103.57194 165.51083,99.279768 C 165.51083,94.603123 165.77073,93.991412 167.23977,95.210606 C 168.21636,96.0211 170.08104,96.292468 171.52485,95.834218 C 173.71413,95.13937 173.96717,95.381598 173.28784,97.52193 C 172.71255,99.334554 173.0073,100.02093 174.36102,100.02093 C 175.38751,100.02093 176.22735,100.55676 176.22735,101.21166 C 176.22735,101.86655 175.44882,102.40238 174.49729,102.40238 C 172.03586,102.40238 166.70155,104.97746 166.70155,106.16569 C 166.70155,107.50936 173.99905,107.40856 176.1705,106.03489 C 178.63323,104.47696 180.19861,105.84504 178.4139,107.9955 C 177.18385,109.47761 177.28096,110.07378 178.95143,111.29526 C 181.51831,113.1722 181.60971,114.80213 179.09398,113.83675 C 177.82896,113.35132 176.98995,113.9035 176.57365,115.49545 C 175.92807,117.96411 173.8459,118.83547 173.8459,116.63696 C 173.8459,114.65292 167.99259,109.34419 166.69157,110.14826 C 164.59417,111.44452 165.41941,113.30936 169.91106,117.42354 C 173.02543,120.2762 173.72135,121.45399 172.29251,121.45399 C 170.93296,121.45399 170.27373,122.42607 170.27373,124.4308 C 170.27373,127.90561 169.01912,128.2695 167.16624,125.33207 z M 62.215399,124.23757 C 60.455317,123.52736 60.185653,116.69108 61.917718,116.69108 C 62.572617,116.69108 63.108444,117.22691 63.108444,117.88181 C 63.108444,118.53671 63.912183,119.07253 64.894532,119.07253 C 67.775885,119.07253 66.979658,115.70879 62.258729,107.9373 C 59.826685,103.93373 57.183727,98.23746 56.385465,95.278924 C 55.209314,90.91977 54.91886,90.542076 54.853728,93.287095 C 54.809529,95.150127 55.910735,100.41897 57.300859,104.99563 C 59.301039,111.58079 59.554783,113.91724 58.517101,116.19469 C 57.110403,119.28207 53.763023,119.96735 51.439335,117.64367 C 49.09457,115.2989 49.686861,112.85572 52.391915,113.71427 C 54.390976,114.34875 54.770461,113.93144 54.755291,111.11538 C 54.745348,109.27027 54.000751,105.34943 53.100635,102.40238 C 51.626374,97.575504 51.393611,97.339331 50.753596,100.02093 C 50.362848,101.65818 49.901823,105.3507 49.72912,108.22654 C 49.479234,112.38741 48.87487,113.65377 46.770049,114.42688 C 44.923102,115.10526 43.559745,114.83316 42.251662,113.52509 C 39.924056,111.19748 40.609462,108.82034 43.458224,109.34049 C 46.443682,109.88561 47.589625,107.50694 47.610784,100.72091 C 47.6313,94.140393 51.574542,86.131149 56.326929,83.017259 L 59.168834,81.155178 L 58.625862,86.805907 C 58.032096,92.985451 60.033383,97.989432 67.356094,108.63478 C 72.605954,116.26674 73.221536,118.59423 70.919447,122.10765 C 69.108294,124.87183 65.795982,125.68237 62.215399,124.23757 z M 135.80585,113.79038 C 134.77268,112.54548 134.73302,111.43331 135.66006,109.70113 C 137.82605,105.65395 137.09624,105.5849 132.72444,109.42338 C 130.40952,111.45592 127.3553,113.11891 125.93731,113.11891 C 123.93207,113.11891 123.67667,112.80138 124.78801,111.69004 C 125.57389,110.90416 126.21689,107.95711 126.21689,105.14105 C 126.21689,100.92605 126.6121,100.02093 128.45255,100.02093 C 129.68215,100.02093 131.35034,100.81877 132.15962,101.79391 C 133.65979,103.60149 135.74269,103.19882 135.74269,101.10122 C 135.74269,100.46289 133.85345,98.825936 131.54438,97.463553 C 125.85441,94.106382 124.54576,91.391183 126.20074,86.376528 L 127.52151,82.374545 L 132.22747,85.45562 C 136.3501,88.15479 136.93342,89.100856 136.93342,93.088088 C 136.93342,95.591353 137.46924,97.639478 138.12414,97.639478 C 138.77904,97.639478 139.31487,96.032 139.31487,94.067302 C 139.31487,89.951158 141.37811,89.474972 147.69839,92.132446 L 151.59243,93.769766 L 148.72814,95.433548 C 147.15278,96.348627 144.7922,97.67958 143.4824,98.39122 C 140.29343,100.12386 140.45953,102.90665 143.78008,103.37824 C 145.5821,103.63417 146.45922,103.14688 146.45922,101.88983 C 146.45922,99.092663 148.36168,99.614662 152.69174,103.59992 C 156.46729,107.07483 156.51317,107.23066 154.26904,108.95819 C 151.25327,111.27971 143.90077,111.39348 144.77893,109.10502 C 145.52763,107.15393 142.10718,105.53717 141.0047,107.32104 C 140.58236,108.0044 140.83311,109.15981 141.56192,109.88863 C 142.29073,110.61745 142.88704,112.17824 142.88704,113.35705 C 142.88704,116.00343 137.89599,116.30885 135.80585,113.79038 z M 182.82878,107.40404 C 182.39944,105.44927 180.52012,101.44044 178.6525,98.495517 C 175.89313,94.144437 174.11847,92.763004 169.18177,91.123295 C 165.84049,90.013498 162.65918,88.212543 162.11221,87.121173 C 160.96978,84.841675 161.74711,75.015696 163.06989,75.015696 C 164.47323,75.015696 167.37678,78.870566 168.91843,82.780477 C 169.69853,84.758959 172.24029,87.896544 174.56678,89.752891 C 176.89326,91.609237 179.86758,94.812917 181.1764,96.872179 C 183.24669,100.12954 183.44773,100.22929 182.72278,97.639478 C 181.78143,94.276526 181.25455,93.500149 174.10696,84.943675 C 168.48835,78.217567 168.83591,76.389103 175.13533,79.533619 C 178.49053,81.208456 179.81285,83.101706 182.67462,90.328086 L 186.14507,99.091485 L 187.86156,95.815453 C 189.50001,92.688352 189.4099,92.407831 185.87951,89.644884 C 181.25073,86.022319 181.05769,81.896632 185.33166,77.935654 C 190.04724,73.565407 190.89197,74.203217 189.9865,81.450294 C 189.0843,88.671257 190.50081,90.833366 193.4114,86.677928 C 197.93379,80.2213 193.61124,71.728113 186.52835,73.15374 C 176.12405,75.24789 169.68314,75.163619 165.5405,72.879148 C 160.97778,70.363015 155.98502,62.200088 155.98502,57.256388 L 155.98502,54.160347 L 165.80851,54.599284 C 177.28474,55.112071 180.59563,56.525247 184.91139,62.752881 C 186.6544,65.26806 189.70291,68.284305 191.68584,69.455648 C 195.73974,71.850352 198.85114,77.023868 198.85114,81.369868 C 198.85114,82.965011 196.70783,87.479753 194.08824,91.402628 C 188.64603,99.552397 188.02959,101.65335 192.24156,97.696395 C 197.89856,92.381915 201.25811,98.555609 196.80831,106.08852 C 194.44502,110.08925 192.89751,110.54314 192.89751,107.23555 C 192.89751,103.09142 190.23592,103.02063 186.8514,107.07475 L 183.6094,110.95815 L 182.82878,107.40404 z M 178.01344,69.062071 C 178.41819,68.407171 179.92334,67.86314 181.35821,67.853111 C 183.01603,67.841525 183.4461,67.503719 182.53797,66.926453 C 181.75197,66.426819 180.58033,64.693588 179.93432,63.074829 C 179.10498,60.996672 178.73757,60.744075 178.68428,62.215399 C 178.57837,65.139549 175.68325,64.809731 173.45822,61.620037 C 171.8893,59.370881 171.57934,59.275332 171.5269,61.024674 C 171.49255,62.170747 171.10477,63.108444 170.66516,63.108444 C 170.22556,63.108444 168.79389,62.170747 167.48368,61.024674 C 166.17346,59.878601 165.53014,59.670596 166.05405,60.562438 C 166.63048,61.543649 166.35865,62.594403 165.36569,63.223338 C 164.19878,63.962446 164.67068,64.26797 166.99923,64.280935 C 170.56063,64.300766 171.10455,65.35167 168.78531,67.731872 C 167.93646,68.603046 169.20915,68.357854 171.74718,67.161248 C 176.54149,64.900877 178.68296,65.507883 176.25123,68.437933 C 175.31205,69.569579 175.22172,70.252796 176.01128,70.252796 C 176.70771,70.252796 177.60869,69.716969 178.01344,69.062071 z M 69.545446,105.57231 C 65.022284,100.39269 62.307657,87.789524 64.263149,81.048188 C 64.915465,78.799416 65.226315,76.736665 64.953948,76.464294 C 63.845145,75.355484 55.850079,78.943446 54.209081,81.28629 C 52.044985,84.375967 50.655171,83.306922 51.655345,79.321952 C 52.828173,74.64902 55.663635,72.634247 61.067194,72.634247 C 65.620743,72.634247 65.851363,72.485405 64.065275,70.699317 C 63.001064,69.635106 60.713811,68.764389 58.982485,68.764389 C 56.286588,68.764389 55.88667,68.315629 56.197045,65.638735 C 56.755459,60.822598 61.26239,60.815391 66.222285,65.622703 L 70.252796,69.529233 L 70.252796,65.686104 C 70.252796,61.011223 72.975472,59.589106 76.250765,62.553215 C 78.964511,65.009118 79.329635,67.871345 76.929181,67.871345 C 76.016895,67.871345 74.981464,68.624516 74.628223,69.545059 C 74.077024,70.981456 74.438838,70.982497 77.179959,69.552395 C 81.10328,67.505518 87.143413,67.377372 89.066256,69.300216 C 90.709291,70.943252 91.015331,77.397147 89.450205,77.397147 C 88.87549,77.397147 87.738228,76.593408 86.92295,75.611059 C 86.031967,74.537481 83.480016,73.839416 80.525838,73.861181 C 76.301216,73.892304 75.945474,74.080298 77.99251,75.19994 C 81.003998,76.847097 83.350774,79.759261 83.350774,81.849126 C 83.350774,83.576209 77.727883,89.304401 76.032552,89.304401 C 75.473281,89.304401 75.015696,87.494617 75.015696,85.282661 C 75.015696,80.555893 71.929123,77.091383 70.18028,79.855164 C 68.122647,83.106934 69.021979,92.145121 72.050517,98.650758 C 73.68137,102.15401 75.015696,105.44559 75.015696,105.9654 C 75.015696,108.18701 71.61539,107.94267 69.545446,105.57231 z M 142.89987,87.533776 C 141.05114,85.306189 142.22635,80.286919 144.83063,79.287562 C 147.19656,78.379668 152.41285,81.544968 152.41285,83.888534 C 152.41285,88.3362 145.70048,90.908291 142.89987,87.533776 z M 153.00821,88.113676 C 151.90881,86.334805 153.4385,84.541499 156.0553,84.541499 C 157.57265,84.541499 158.36647,85.359453 158.36647,86.92295 C 158.36647,89.448549 154.38062,90.334292 153.00821,88.113676 z M 136.57768,82.59812 C 136.11844,82.138881 135.74269,80.743526 135.74269,79.497328 C 135.74269,77.828673 136.44878,77.331796 138.42182,77.612012 C 140.17327,77.860759 141.10095,78.81147 141.10095,80.357653 C 141.10095,82.719577 138.15722,84.177665 136.57768,82.59812 z M 152.58049,80.575951 C 150.5572,78.138052 152.2171,74.818609 155.24353,75.250422 C 157.04538,75.507512 157.77111,76.461087 157.77111,78.571566 C 157.77111,81.968413 154.71541,83.148385 152.58049,80.575951 z M 21.671202,79.540453 C 20.885322,78.754574 20.242331,76.840909 20.242331,75.287862 C 20.242331,72.720844 20.412438,72.634247 22.113472,74.335282 C 23.214001,75.435809 26.033745,76.209654 28.960143,76.214268 L 33.935672,76.222113 L 30.363496,78.587873 C 26.266806,81.301001 23.711759,81.581008 21.671202,79.540453 z M 127.45509,78.049711 C 124.97557,75.062079 126.44891,72.038884 130.38442,72.038884 C 132.84478,72.038884 134.0497,72.691668 134.3363,74.179854 C 134.80906,76.634732 132.58997,79.778598 130.38442,79.778598 C 129.56246,79.778598 128.24425,79.0006 127.45509,78.049711 z M 144.47765,75.531023 C 144.08379,74.504653 144.33251,73.093939 145.03034,72.396102 C 146.88246,70.543984 150.0314,72.169891 150.0314,74.978326 C 150.0314,77.914913 145.56307,78.35959 144.47765,75.531023 z M 35.959905,74.777551 C 33.928886,72.746531 34.191452,69.571754 36.588716,67.174489 C 38.538481,65.224725 38.686881,65.298329 39.418236,68.577844 C 39.842742,70.481416 40.581586,72.976579 41.060116,74.122653 C 41.711585,75.682892 41.359678,76.206422 39.659478,76.206422 C 38.410597,76.206422 36.745784,75.563431 35.959905,74.777551 z M 43.646026,72.838169 C 42.562168,71.640528 41.675387,69.522436 41.675387,68.131295 C 41.675387,64.927815 44.093512,59.536268 45.530289,59.536268 C 47.392809,59.536268 53.582641,66.390845 53.582641,68.453393 C 53.582641,74.483795 47.546009,77.147607 43.646026,72.838169 z M 135.1292,72.577106 C 134.70351,71.235881 135.00091,69.360489 135.79011,68.409567 C 138.96109,64.588775 144.99997,67.852831 143.50054,72.577106 C 142.95776,74.287259 141.70745,75.015696 139.31487,75.015696 C 136.92229,75.015696 135.67197,74.287259 135.1292,72.577106 z M 23.417602,71.840429 C 22.981,71.40383 22.623782,69.957099 22.623782,68.62547 C 22.623782,66.742361 22.941312,66.521856 24.052651,67.6332 C 24.838531,68.419079 27.047446,69.062071 28.961346,69.062071 C 31.919524,69.062071 32.218968,69.329819 30.958859,70.848159 C 29.446805,72.670074 24.851843,73.274673 23.417602,71.840429 z M 151.6746,70.905179 C 150.76599,68.537368 152.11202,66.68062 154.73718,66.68062 C 157.02236,66.68062 158.85542,69.689064 157.7047,71.550974 C 156.64547,73.264849 152.40585,72.810807 151.6746,70.905179 z M 129.43333,68.309416 C 128.97408,67.850178 128.59834,66.492089 128.59834,65.291439 C 128.59834,63.740971 129.48487,63.108444 131.65797,63.108444 C 134.14621,63.108444 134.64655,63.606493 134.3371,65.775411 C 133.9605,68.415074 131.04536,69.921459 129.43333,68.309416 z M 144.13216,67.341522 C 141.67058,64.375484 143.07985,60.178138 146.67681,59.762586 C 151.15547,59.245175 153.49957,63.50619 150.53712,66.779673 C 148.07249,69.503045 146.07173,69.678555 144.13216,67.341522 z M 25.668109,65.646695 C 23.740539,65.233004 22.267017,64.492661 22.393614,64.001487 C 22.520201,63.510313 22.623782,61.715295 22.623782,60.012558 C 22.623782,58.07938 24.144242,55.396207 26.672247,52.868206 C 29.92182,49.618639 31.657064,48.819739 35.465742,48.819739 C 39.30289,48.819739 40.612451,49.432774 42.310139,52.023769 C 44.170992,54.863803 44.216896,55.570944 42.714141,58.24828 C 40.713864,61.812029 33.798775,66.740484 31.080456,66.539739 C 30.031225,66.462255 27.595667,66.060385 25.668109,65.646695 z M 31.738772,59.74019 C 30.654914,58.54255 29.75993,56.801114 29.749903,55.870333 C 29.734365,54.42869 29.570295,54.433074 28.642255,55.899933 C 27.235092,58.124111 29.213541,61.917718 31.780662,61.917718 C 33.543233,61.917718 33.539626,61.730108 31.738772,59.74019 z M 38.491149,54.357473 C 37.30939,52.948966 36.256492,51.626947 36.151363,51.419651 C 36.046245,51.212355 35.66101,51.526902 35.29529,52.118646 C 34.350664,53.647082 38.023647,58.53526 39.452981,57.651887 C 40.166595,57.210847 39.783098,55.897316 38.491149,54.357473 z M 188.04133,60.861265 C 184.81814,57.517266 182.18098,54.018324 182.18098,53.085838 C 182.18098,52.153351 183.80129,51.034528 185.78168,50.599563 C 187.76206,50.164597 190.96605,48.476142 192.90165,46.84744 C 194.83726,45.218737 196.96773,44.2241 197.63603,44.637135 C 198.93977,45.442892 199.0545,56.700295 197.81721,62.414848 C 196.64949,67.808084 194.39125,67.449205 188.04133,60.861265 z M 135.81889,63.795622 C 133.97049,61.568424 135.14337,59.536268 138.27723,59.536268 C 140.0573,59.536268 140.57365,60.1994 140.29072,62.122133 C 139.81526,65.353444 137.75244,66.125408 135.81889,63.795622 z M 79.520794,62.215399 C 78.521097,61.069327 77.087439,58.940612 76.334889,57.484924 L 74.966616,54.838218 L 71.121299,57.182792 C 63.119707,62.061535 52.950294,58.734468 53.808188,51.518568 C 54.202818,48.199365 57.154817,46.194419 57.154817,49.245602 C 57.154817,51.845359 59.348382,52.839446 61.374509,51.157901 C 64.156794,48.848813 63.567504,44.287668 60.429311,43.841973 L 57.75018,43.461475 L 60.970556,40.186981 C 65.352592,35.731291 71.484898,35.671059 74.929274,40.049879 C 76.286606,41.775445 77.397147,43.949134 77.397147,44.8803 C 77.397147,46.295684 77.831131,46.269351 80.043546,44.71972 C 83.82704,42.069653 90.115511,42.313357 91.643961,45.169284 C 93.045612,47.788296 93.29245,53.960579 92.045415,55.20762 C 91.588271,55.66476 90.596386,54.884289 89.841215,53.473241 L 88.468179,50.907697 L 87.801563,53.45684 C 87.420197,54.915205 87.878222,56.749258 88.871977,57.743012 C 90.202149,59.073185 90.306956,60.044424 89.31944,61.889606 C 87.699386,64.916726 82.041202,65.104854 79.520794,62.215399 z M 85.581812,50.010465 C 85.539922,47.111252 85.496164,47.126773 83.90314,50.605827 C 83.003511,52.570524 82.286813,55.517569 82.310461,57.154817 C 82.352351,60.054029 82.396111,60.038508 83.989146,56.559454 C 84.888763,54.594757 85.60546,51.647712 85.581812,50.010465 z M 69.55615,44.056838 C 70.320572,39.94273 70.308449,39.927775 68.610821,42.890319 C 67.664992,44.54088 66.575478,48.023751 66.189659,50.630033 L 65.488179,55.368729 L 67.134988,51.796553 C 68.040726,49.831855 69.130251,46.348984 69.55615,44.056838 z M 79.760368,52.094235 C 79.746127,50.002481 79.502302,49.794223 78.648207,51.144337 C 78.046545,52.095418 77.818461,53.301027 78.141351,53.82347 C 79.17415,55.494569 79.77911,54.848423 79.760368,52.094235 z M 73.773234,50.668171 C 74.776968,49.458745 74.844364,48.304086 73.999103,46.798314 C 72.717013,44.514337 72.651273,44.597944 70.771297,50.903508 C 70.167313,52.92931 72.016998,52.784304 73.773234,50.668171 z M 126.10842,56.274164 C 125.42628,54.480005 125.20432,51.220261 125.61515,49.030285 C 126.20684,45.876363 126.78027,45.224823 128.37328,45.896525 C 129.47942,46.362928 131.59003,47.006007 133.06355,47.325585 C 134.53707,47.645164 135.74269,48.647912 135.74269,49.553914 C 135.74269,51.306111 139.03346,51.747852 141.22555,50.289912 C 141.94898,49.808767 143.37642,47.807623 144.39763,45.842926 L 146.25437,42.27075 L 147.01821,45.29404 C 148.85448,52.562304 141.75012,59.290813 133.81195,57.801604 C 131.32626,57.335286 129.78907,57.522515 129.78907,58.291586 C 129.78907,60.800217 127.31329,59.443201 126.10842,56.274164 z M 148.08359,56.567419 C 147.67117,55.492648 147.90469,54.042334 148.60252,53.344496 C 150.41672,51.530296 153.85411,53.188406 153.38021,55.649135 C 152.85237,58.390044 149.03685,59.051547 148.08359,56.567419 z M 45.681213,54.185968 C 45.268794,53.111197 45.502307,51.660883 46.200143,50.963045 C 48.014345,49.148845 51.451731,50.806955 50.977834,53.267684 C 50.449985,56.008594 46.634472,56.670096 45.681213,54.185968 z M 155.85794,49.418782 C 152.20953,47.435768 148.84067,42.686434 148.84067,39.526006 C 148.84067,37.794709 150.36121,36.928068 155.6066,35.669718 C 160.91226,34.396909 162.47801,34.363042 162.86127,35.512802 C 163.18626,36.487788 164.6618,36.732912 167.26551,36.244453 C 170.48224,35.64099 171.52506,36.001091 173.10882,38.262225 C 175.87375,42.209723 175.55473,47.131075 172.39023,49.347583 C 169.10657,51.647551 160.0304,51.686641 155.85794,49.418782 z M 167.23737,44.207277 C 166.61522,43.635121 163.69497,42.868458 160.74793,42.503583 C 155.8924,41.90242 155.60653,42.000028 157.70101,43.543869 C 160.17098,45.364479 169.17695,45.99099 167.23737,44.207277 z M 42.109037,48.232341 C 41.696617,47.157572 41.93013,45.707256 42.627967,45.009418 C 44.442169,43.195218 47.879555,44.853328 47.405657,47.314057 C 46.877809,50.054967 43.062296,50.716469 42.109037,48.232341 z M 22.113472,46.9486 C 19.885006,44.720134 19.693561,41.509725 21.671202,39.532081 C 23.750434,37.452844 25.005232,37.778831 25.005232,40.398239 C 25.005232,41.660504 26.344382,43.746642 27.981117,45.0341 C 30.45136,46.977193 30.637136,47.497682 29.074465,48.097337 C 26.03883,49.262219 24.108545,48.943674 22.113472,46.9486 z M 178.82271,47.291398 C 176.96757,45.056103 178.62735,43.31558 183.46077,42.427686 C 188.5507,41.492667 192.89751,37.766747 192.89751,34.338852 C 192.89751,32.268647 193.19317,32.103358 194.68359,33.340309 C 195.66594,34.155586 196.46969,36.271099 196.46969,38.04145 C 196.46969,44.952351 182.81955,52.107291 178.82271,47.291398 z M 50.810881,45.651073 C 50.389282,45.229469 49.699768,42.287073 49.278633,39.112414 C 48.857497,35.937757 48.214637,33.340309 47.850036,33.340309 C 47.485449,33.340309 45.986659,34.468101 44.519411,35.846512 C 41.054722,39.101417 39.079629,37.762327 39.327003,32.326125 C 39.435727,29.93688 39.472759,27.572463 39.409306,27.071861 C 39.345852,26.571259 36.094254,27.776869 32.183544,29.750994 C 28.27282,31.725117 24.522036,33.340309 23.848467,33.340309 C 21.197673,33.340309 22.874811,29.258759 27.982045,23.28068 C 30.929091,19.831127 33.340309,16.664665 33.340309,16.244098 C 33.340309,15.82353 31.063047,15.471224 28.279727,15.461196 C 25.496407,15.451168 22.476393,14.972577 21.568584,14.39766 C 19.826042,13.294108 19.917811,13.181815 27.303309,7.38096 L 30.196736,5.108342 L 25.814901,4.286304 C 23.151142,3.78658 21.433057,2.785111 21.433057,1.732133 C 21.433057,0.434328 23.000563,0.004077 27.684364,0.016259 C 39.174198,0.046143 42.50156,2.606287 36.317123,6.658485 C 32.188378,9.363743 32.577817,10.378382 38.103211,11.311891 C 40.722807,11.754469 42.866112,12.586661 42.866112,13.161209 C 42.866112,13.735755 41.134834,16.177654 39.018832,18.587651 L 35.17155,22.969463 L 38.9597,21.010535 C 44.845312,17.966964 45.64835,18.386438 44.897514,24.112188 L 44.233887,29.172771 L 46.869224,25.898276 C 50.56807,21.302331 52.192255,21.8048 52.642598,27.684364 L 53.030215,32.744947 L 54.618,27.406005 L 56.205796,22.067062 L 58.359581,24.726873 C 61.221799,28.261567 61.917718,28.083121 61.917718,23.814507 C 61.917718,19.46797 62.380148,19.417817 66.955927,23.268082 C 68.933674,24.932245 70.759497,26.086168 71.0133,25.832356 C 71.267114,25.578545 70.664012,23.430428 69.673067,21.058763 C 68.682122,18.687097 67.871345,16.193608 67.871345,15.517674 C 67.871345,13.91176 73.324033,13.936826 76.350714,15.556653 C 81.038123,18.065277 81.291498,15.842895 76.875372,10.954777 C 74.398961,8.213683 72.653905,5.238429 72.997477,4.343103 C 73.65671,2.625174 82.350149,1.4210855e-14 87.37995,1.4210855e-14 C 92.20396,1.4210855e-14 92.022923,1.988003 87.016506,3.991176 C 84.456862,5.015344 82.021531,6.405165 81.604658,7.079667 C 81.187797,7.75417 83.285535,10.913313 86.266289,14.099986 C 94.776034,23.197597 92.76085,26.188713 80.933293,22.015706 C 78.129193,21.026364 75.605845,20.446006 75.325821,20.72602 C 75.04581,21.006034 75.933138,23.759 77.29765,26.843723 C 82.040273,37.565214 80.204092,39.985595 72.111101,33.680406 C 67.5335,30.11403 66.307625,29.628268 65.421082,31.029434 C 64.824089,31.972966 64.327425,33.41473 64.317399,34.233354 C 64.29237,36.276873 61.928923,36.100994 59.4663,33.872353 C 57.571475,32.157558 57.318696,32.456611 55.993431,37.980917 C 54.591828,43.823427 52.330295,47.170491 50.810881,45.651073 z M 137.8687,44.35452 C 136.87031,43.208446 136.2961,41.600967 136.59265,40.782344 C 137.3719,38.63139 132.71189,38.922666 130.46948,41.165077 C 128.76844,42.866112 128.59834,42.774642 128.59834,40.158898 C 128.59834,37.1982 131.86207,33.340309 134.3668,33.340309 C 135.14416,33.340309 137.91506,34.006598 140.52434,34.820952 C 145.61788,36.410633 146.29084,38.128814 143.88663,43.405448 C 142.26827,46.957381 140.3937,47.253012 137.8687,44.35452 z M 29.768133,42.866112 C 26.907678,40.005656 26.70941,36.569132 29.257824,34.020725 C 31.795974,31.482576 32.952514,31.653543 36.371254,35.072273 C 38.194766,36.895791 39.293936,39.358751 39.293936,41.621263 C 39.293936,44.856668 38.90888,45.247563 35.72176,45.247563 C 33.737215,45.247563 31.09116,44.189141 29.768133,42.866112 z M 177.53147,37.80553 C 176.63464,35.404219 176.97817,35.040906 180.84433,34.301975 C 187.77449,32.977427 190.51606,33.19198 190.51606,35.058879 C 190.51606,37.51989 185.79585,40.484662 181.87767,40.484662 C 179.49844,40.484662 178.24303,39.710795 177.53147,37.80553 z M 84.041395,33.712639 C 77.235935,24.435397 78.553794,22.395859 87.128065,28.935671 C 90.718602,31.674263 92.281214,33.745466 92.281214,35.766034 C 92.281214,40.859926 88.614007,39.946042 84.041395,33.712639 z M 143.0982,31.376029 C 139.12331,30.020052 137.56673,29.939148 136.26343,31.020789 C 134.91269,32.141798 134.38488,31.905374 133.61956,29.836527 L 132.66336,27.251638 L 129.23682,29.946945 L 125.8103,32.642252 L 126.6868,29.716786 C 127.16888,28.107781 127.85868,25.853625 128.2197,24.707551 C 128.65941,23.31163 128.24066,22.623782 126.95113,22.623782 C 124.47978,22.623782 124.51795,21.586775 127.09412,18.740138 C 129.06327,16.564254 129.04905,16.371341 126.79643,14.7029 C 124.52086,13.017447 124.51335,12.889516 126.59921,11.342797 C 128.64121,9.828584 128.65345,9.514101 126.80908,5.947501 C 124.35364,1.199202 125.01071,0.505827 129.67841,2.919592 C 133.20975,4.745724 133.36124,4.724847 133.36124,2.412029 C 133.36124,-0.230366 134.58034,-0.686058 136.50378,1.237373 C 137.35979,2.093386 139.41981,2.025774 143.18777,1.017996 C 147.49872,-0.135009 149.66324,-0.130506 153.56868,1.039592 C 159.77703,2.899662 162.60313,5.706975 164.44033,11.83901 C 168.38001,24.988475 156.433,35.925008 143.0982,31.376029 z M 155.68733,24.344744 C 159.44549,20.074099 159.37668,12.023772 155.54396,7.567969 C 153.4278,5.107772 151.63992,4.286611 148.39961,4.286611 C 146.0226,4.286611 143.40798,4.991929 142.58937,5.853985 C 141.36997,7.138079 141.81634,7.323652 145.05915,6.880752 C 148.44307,6.418581 148.93432,6.657621 148.44512,8.528338 C 148.00976,10.193163 148.5414,10.716528 150.66795,10.716528 C 154.4872,10.716528 155.40484,12.687441 152.3474,14.323726 C 150.03761,15.559893 149.98664,15.837817 151.7187,17.751722 C 154.39373,20.707608 154.08321,21.433056 150.14287,21.433056 C 147.20749,21.433056 146.78197,21.814704 147.33964,23.947242 C 147.93919,26.23994 147.64091,26.393336 143.95367,25.68849 L 139.91023,24.915549 L 142.88704,26.752734 C 146.84269,29.194024 152.32808,28.162117 155.68733,24.344744 z M 140.43979,19.606303 C 141.1573,20.049748 141.39046,19.64008 140.99989,18.622232 C 140.59361,17.563507 141.18371,16.657904 142.50193,16.317064 C 144.56991,15.782369 144.56801,15.749115 142.46196,15.617555 C 140.97706,15.524797 140.48372,14.872478 140.95992,13.631498 C 141.36929,12.564699 141.16791,12.093273 140.48354,12.516243 C 139.83152,12.919215 138.99248,12.452649 138.61902,11.479427 C 138.03315,9.952646 137.65982,9.983125 135.89722,11.701638 C 133.78096,13.764995 133.57954,15.7575 135.12106,19.379678 C 135.80647,20.990223 136.40072,21.178536 137.61568,20.170212 C 138.49285,19.442218 139.76371,19.188459 140.43979,19.606303 z M 163.93076,30.172618 C 163.49833,29.740184 164.21277,28.638147 165.5184,27.723648 C 166.97544,26.703093 167.89228,24.707365 167.89228,22.556263 C 167.89228,18.678897 169.18173,18.087182 171.51214,20.895154 C 173.48469,23.271932 177.87083,22.648939 178.39139,19.91805 C 178.68843,18.359778 177.13408,17.065423 172.44993,14.970423 C 168.49155,13.20003 166.77779,11.902295 167.89228,11.519185 C 168.87463,11.181497 171.26685,10.422562 173.20834,9.832664 L 176.7383,8.760123 L 170.37554,5.736028 C 162.98839,2.225063 163.77908,1.025526 173.62255,0.810016 C 182.70965,0.611064 183.82208,1.457215 182.93944,7.896716 C 182.51583,10.987324 182.70047,13.097979 183.39449,13.097979 C 184.03686,13.097979 184.96429,13.231936 185.45547,13.39566 C 185.94664,13.559385 186.61643,11.068608 186.94388,7.8606 C 187.60351,1.398189 189.70352,-0.766805 194.20161,0.378243 C 196.89054,1.062739 197.08714,1.696979 197.42761,10.784723 C 197.85699,22.245516 196.4297,25.248118 188.93481,28.651034 C 185.39482,30.258312 181.20079,30.914074 174.34204,30.932708 C 169.04826,30.947091 164.36321,30.605051 163.93076,30.172618 z M 190.25111,21.9609 C 192.89804,20.106916 194.00195,14.288704 191.70678,14.288704 C 191.05188,14.288704 190.51606,15.118029 190.51606,16.131648 C 190.51606,17.145267 189.09824,19.288573 187.36537,20.89455 C 183.80851,24.190936 185.94181,24.979247 190.25111,21.9609 z M 192.89751,4.762901 C 192.89751,4.108003 192.36168,3.572176 191.70678,3.572176 C 191.05188,3.572176 190.51606,4.108003 190.51606,4.762901 C 190.51606,5.4178 191.05188,5.953627 191.70678,5.953627 C 192.36168,5.953627 192.89751,5.4178 192.89751,4.762901 z M 21.433057,22.112208 C 21.433057,18.80507 25.246663,16.05109 28.237171,17.198654 C 29.861308,17.821891 29.81431,18.2177 27.85977,20.377446 C 26.631882,21.73425 24.683546,23.34941 23.53015,23.966691 C 21.787785,24.899179 21.433057,24.585494 21.433057,22.112208 z M 53.582641,17.960107 C 53.582641,14.044873 52.48734,13.516587 48.639475,15.575902 C 45.290798,17.368059 44.695674,16.237939 47.075458,12.605928 L 49.09363,9.525803 L 44.789146,9.525803 C 39.857411,9.525803 39.042705,7.764428 43.461475,6.655388 C 46.548943,5.880482 47.324473,4.260411 45.228142,2.964809 C 44.562563,2.553457 44.326263,1.718095 44.703056,1.108449 C 45.770161,-0.618172 50.835983,-0.195106 52.817171,1.786088 C 55.091385,4.060297 56.532936,4.034544 60.164851,1.654827 C 62.11751,0.375392 64.182942,0.011515 66.372829,0.561139 C 69.529287,1.35336 69.566378,1.449275 67.344639,3.073851 C 65.058661,4.7454 65.058673,4.781016 67.34608,6.51112 C 68.617322,7.472641 70.059303,8.276381 70.550477,8.297208 C 71.041651,8.318036 71.44352,8.870904 71.44352,9.525803 C 71.44352,10.180702 69.836042,10.716528 67.871345,10.716528 C 64.098531,10.716528 63.540129,11.836257 65.493109,15.485446 C 67.269647,18.804928 64.513535,19.887548 62.306835,16.73704 C 60.125307,13.622477 58.048421,14.07552 57.154817,17.86088 C 56.132138,22.192997 53.582641,22.263817 53.582641,17.960107 z M 87.198448,11.251766 C 83.369052,8.569552 83.921941,7.144352 88.791853,7.144352 C 92.477196,7.144352 92.991625,7.488099 92.661711,9.730217 C 92.167286,13.090311 90.490197,13.557392 87.198448,11.251766 z "
     id="path3152" />
</svg>
