<svg width="68" height="68" fill="none" xmlns="http://www.w3.org/2000/svg"><path d="M1.992 51.93h1.926c1.075 0 2.111.279 2.789.677l16.416 13.959a9.68 9.68 0 005.1 1.434H51.93c2.2 0 3.984-1.917 3.984-4.117s-1.784-3.985-3.984-3.985H34a5.971 5.971 0 01-4.224-1.753L18.98 47.348a1.997 1.997 0 010-2.79c.757-.756 1.913-.796 2.71-.08l10.279 10.28c1.348 1.35 3.744 1.781 5.618 0a4.017 4.017 0 000-5.657L23.44 34.916a9.869 9.869 0 00-7.012-2.908H1.992A1.972 1.972 0 000 34v15.938c0 1.115.876 1.992 1.992 1.992z" fill="url(#paint0_linear)"/><path d="M48.941 55.914a2.988 2.988 0 000-5.977h-6.486c.166.646.28 1.308.28 1.993a7.96 7.96 0 01-1.056 3.984h7.262z" fill="url(#paint1_linear)"/><path d="M44.957 39.977H34.114l5.96 5.976h4.883a2.988 2.988 0 000-5.976z" fill="url(#paint2_linear)"/><path d="M66.008 16.07h-1.926c-1.075 0-2.111-.279-2.789-.677L44.877 1.567C43.323.611 41.57 0 39.777 0H16.07c-2.2 0-3.984 1.917-3.984 4.117s1.784 3.985 3.984 3.985H34a5.97 5.97 0 014.224 1.753L49.02 20.652a1.997 1.997 0 010 2.79c-.757.756-1.913.796-2.71.08l-10.279-10.28c-1.348-1.35-3.743-1.781-5.618 0a4.017 4.017 0 000 5.657L44.56 33.084a9.87 9.87 0 007.012 2.908h14.437A1.973 1.973 0 0068 34V18.062a1.973 1.973 0 00-1.992-1.992z" fill="url(#paint3_linear)"/><path d="M19.059 12.086a2.988 2.988 0 000 5.976h6.486c-.166-.645-.28-1.307-.28-1.992a7.96 7.96 0 011.056-3.984H19.06z" fill="url(#paint4_linear)"/><path d="M20.055 25.035a2.988 2.988 0 002.988 2.988h10.843l-5.96-5.976h-4.883a2.988 2.988 0 00-2.988 2.988z" fill="url(#paint5_linear)"/><defs><linearGradient id="paint0_linear" x1="0" y1="32.008" x2="56.224" y2="32.499" gradientUnits="userSpaceOnUse"><stop stop-color="#0084FF"/><stop offset="1" stop-color="#1C47D8"/></linearGradient><linearGradient id="paint1_linear" x1="41.679" y1="49.938" x2="51.986" y2="50.037" gradientUnits="userSpaceOnUse"><stop stop-color="#0084FF"/><stop offset="1" stop-color="#1C47D8"/></linearGradient><linearGradient id="paint2_linear" x1="34.114" y1="39.977" x2="48.021" y2="40.158" gradientUnits="userSpaceOnUse"><stop stop-color="#0084FF"/><stop offset="1" stop-color="#1C47D8"/></linearGradient><linearGradient id="paint3_linear" x1="12.086" y1="0" x2="68.31" y2=".491" gradientUnits="userSpaceOnUse"><stop stop-color="#0084FF"/><stop offset="1" stop-color="#1C47D8"/></linearGradient><linearGradient id="paint4_linear" x1="16.07" y1="12.086" x2="26.378" y2="12.185" gradientUnits="userSpaceOnUse"><stop stop-color="#0084FF"/><stop offset="1" stop-color="#1C47D8"/></linearGradient><linearGradient id="paint5_linear" x1="20.055" y1="22.047" x2="33.962" y2="22.228" gradientUnits="userSpaceOnUse"><stop stop-color="#0084FF"/><stop offset="1" stop-color="#1C47D8"/></linearGradient></defs></svg>