<svg width="68" height="68" fill="none" xmlns="http://www.w3.org/2000/svg"><g clip-path="url(#clip0)"><path d="M34 18.594c-5.126 0-9.297-4.17-9.297-9.297C24.703 4.17 28.873 0 34 0c5.126 0 9.297 4.17 9.297 9.297 0 5.126-4.17 9.297-9.297 9.297z" fill="url(#paint0_linear)"/><path d="M42.254 19.694A13.216 13.216 0 0134 22.578c-3.117 0-5.986-1.08-8.254-2.884-4.22 2.72-7.02 7.462-7.02 12.845v3.985c0 1.1.893 1.992 1.993 1.992H47.28c1.1 0 1.992-.892 1.992-1.992v-3.985c0-5.383-2.8-10.124-7.019-12.845z" fill="url(#paint1_linear)"/><path d="M67.903 45.843a1.992 1.992 0 00-1.609-1.355l-5.846-.85-2.614-5.298a1.992 1.992 0 00-3.574 0l-2.614 5.298-5.846.85a1.992 1.992 0 00-1.105 3.398l4.23 4.123-.998 5.823a1.992 1.992 0 002.89 2.1l5.23-2.749 5.23 2.75a1.99 1.99 0 002.097-.152 1.992 1.992 0 00.793-1.949l-.999-5.823 4.23-4.123a1.99 1.99 0 00.505-2.043z" fill="url(#paint2_linear)"/><path d="M19.074 52.01l4.23-4.124a1.992 1.992 0 00-1.103-3.398l-5.847-.85-2.614-5.297a1.992 1.992 0 00-3.573 0l-2.615 5.298-5.846.85a1.992 1.992 0 00-1.104 3.397l4.23 4.124-.999 5.823a1.992 1.992 0 002.89 2.1l5.23-2.75 5.23 2.75a1.989 1.989 0 002.098-.152c.613-.446.92-1.201.792-1.948l-.999-5.823z" fill="url(#paint3_linear)"/><path d="M44.248 52.327l-5.847-.85-2.614-5.298a1.992 1.992 0 00-3.573 0l-2.615 5.298-5.846.85a1.992 1.992 0 00-1.105 3.398l4.231 4.123-.999 5.823a1.993 1.993 0 002.89 2.1L34 65.022l5.23 2.75a1.99 1.99 0 002.097-.153 1.99 1.99 0 00.793-1.948l-.999-5.823 4.23-4.123a1.992 1.992 0 00-1.103-3.398z" fill="url(#paint4_linear)"/></g><defs><linearGradient id="paint0_linear" x1="24.703" y1="0" x2="43.401" y2=".105" gradientUnits="userSpaceOnUse"><stop stop-color="#0084FF"/><stop offset="1" stop-color="#1C47D8"/></linearGradient><linearGradient id="paint1_linear" x1="18.727" y1="19.694" x2="49.443" y2="19.974" gradientUnits="userSpaceOnUse"><stop stop-color="#0084FF"/><stop offset="1" stop-color="#1C47D8"/></linearGradient><linearGradient id="paint2_linear" x1="44.094" y1="37.23" x2="68.134" y2="37.371" gradientUnits="userSpaceOnUse"><stop stop-color="#0084FF"/><stop offset="1" stop-color="#1C47D8"/></linearGradient><linearGradient id="paint3_linear" x1="0" y1="37.23" x2="24.04" y2="37.371" gradientUnits="userSpaceOnUse"><stop stop-color="#0084FF"/><stop offset="1" stop-color="#1C47D8"/></linearGradient><linearGradient id="paint4_linear" x1="22.047" y1="45.069" x2="46.087" y2="45.21" gradientUnits="userSpaceOnUse"><stop stop-color="#0084FF"/><stop offset="1" stop-color="#1C47D8"/></linearGradient><clipPath id="clip0"><path fill="#fff" d="M0 0h68v68H0z"/></clipPath></defs></svg>