<svg width="68" height="68" fill="none" xmlns="http://www.w3.org/2000/svg"><g clip-path="url(#clip0)"><path d="M17.297 18.364l-5.891.455c-1.64.127-3.1.986-4.006 2.357L.606 31.452a3.626 3.626 0 00-.293 3.481 3.626 3.626 0 002.773 2.126l5.394.835c1.262-6.696 4.283-13.376 8.817-19.53z" fill="url(#paint0_linear)"/><path d="M30.106 59.52l.835 5.394a3.626 3.626 0 002.126 2.772 3.63 3.63 0 003.482-.293L46.823 60.6a5.256 5.256 0 002.357-4.006l.455-5.891c-6.154 4.534-12.834 7.555-19.53 8.817z" fill="url(#paint1_linear)"/><path d="M28.077 55.78c.188 0 .376-.015.564-.046a39.11 39.11 0 008.089-2.294L14.56 31.27a39.031 39.031 0 00-2.294 8.089 3.476 3.476 0 00.979 3.026l12.37 12.37a3.489 3.489 0 002.462 1.026z" fill="url(#paint2_linear)"/><path d="M62.578 30.149c5.425-10.49 5.626-21.573 5.342-26.771A3.492 3.492 0 0064.622.08a54.81 54.81 0 00-2.98-.08c-5.813 0-15.01.88-23.79 5.422-6.979 3.61-16.13 11.557-21.528 22.002.064.05.126.102.185.161l23.906 23.906c.059.059.111.121.161.185 10.445-5.399 18.392-14.55 22.002-21.527zm-23.04-15.774c3.883-3.883 10.203-3.883 14.086 0a9.896 9.896 0 012.918 7.044 9.896 9.896 0 01-2.918 7.043 9.932 9.932 0 01-7.043 2.913 9.928 9.928 0 01-7.043-2.913 9.896 9.896 0 01-2.918-7.043 9.896 9.896 0 012.918-7.043z" fill="url(#paint3_linear)"/><path d="M42.355 25.645a5.983 5.983 0 008.452 0 5.938 5.938 0 001.75-4.226 5.937 5.937 0 00-1.75-4.226 5.957 5.957 0 00-4.226-1.748c-1.53 0-3.06.583-4.226 1.748a5.937 5.937 0 00-1.75 4.226c0 1.596.621 3.097 1.75 4.226z" fill="url(#paint4_linear)"/><path d="M2.033 56.038c.51 0 1.02-.194 1.408-.583l6.505-6.504a1.992 1.992 0 00-2.818-2.818L.624 52.638a1.992 1.992 0 001.409 3.4z" fill="url(#paint5_linear)"/><path d="M15.906 52.094a1.992 1.992 0 00-2.817 0L.584 64.599a1.992 1.992 0 102.817 2.817L15.906 54.91a1.992 1.992 0 000-2.817z" fill="url(#paint6_linear)"/><path d="M19.05 58.055l-6.505 6.504a1.992 1.992 0 002.818 2.817l6.504-6.504a1.992 1.992 0 00-2.818-2.817z" fill="url(#paint7_linear)"/></g><defs><linearGradient id="paint0_linear" x1="0" y1="18.364" x2="17.394" y2="18.45" gradientUnits="userSpaceOnUse"><stop stop-color="#0084FF"/><stop offset="1" stop-color="#1C47D8"/></linearGradient><linearGradient id="paint1_linear" x1="30.106" y1="50.703" x2="49.745" y2="50.827" gradientUnits="userSpaceOnUse"><stop stop-color="#0084FF"/><stop offset="1" stop-color="#1C47D8"/></linearGradient><linearGradient id="paint2_linear" x1="12.219" y1="31.27" x2="36.867" y2="31.409" gradientUnits="userSpaceOnUse"><stop stop-color="#0084FF"/><stop offset="1" stop-color="#1C47D8"/></linearGradient><linearGradient id="paint3_linear" x1="16.324" y1="0" x2="68.289" y2=".292" gradientUnits="userSpaceOnUse"><stop stop-color="#0084FF"/><stop offset="1" stop-color="#1C47D8"/></linearGradient><linearGradient id="paint4_linear" x1="40.605" y1="15.445" x2="52.624" y2="15.513" gradientUnits="userSpaceOnUse"><stop stop-color="#0084FF"/><stop offset="1" stop-color="#1C47D8"/></linearGradient><linearGradient id="paint5_linear" x1=".041" y1="45.55" x2="10.588" y2="45.609" gradientUnits="userSpaceOnUse"><stop stop-color="#0084FF"/><stop offset="1" stop-color="#1C47D8"/></linearGradient><linearGradient id="paint6_linear" x1="0" y1="51.51" x2="16.582" y2="51.603" gradientUnits="userSpaceOnUse"><stop stop-color="#0084FF"/><stop offset="1" stop-color="#1C47D8"/></linearGradient><linearGradient id="paint7_linear" x1="11.962" y1="57.471" x2="22.509" y2="57.531" gradientUnits="userSpaceOnUse"><stop stop-color="#0084FF"/><stop offset="1" stop-color="#1C47D8"/></linearGradient><clipPath id="clip0"><path fill="#fff" d="M0 0h68v68H0z"/></clipPath></defs></svg>