<svg width="16" height="17" fill="none" xmlns="http://www.w3.org/2000/svg"><path d="M15.42 15.154a33.753 33.753 0 00-.616-1.39c-.193-.41-.441-.53-.904-.428-.588.131-1.164.304-1.75.42-1.135.23-2.272.251-3.391-.091-1.404-.427-2.152-1.412-2.611-2.683h3.806a.53.53 0 00.54-.523V9.298a.53.53 0 00-.54-.523h-4.17c0-.324-.004-.635 0-.946h4.17a.53.53 0 00.54-.522V6.146a.53.53 0 00-.54-.523H6.308c0-.014 0-.028.008-.035.437-.964 1.075-1.737 2.122-2.14 1.217-.465 2.46-.455 3.715-.204.594.116 1.178.293 1.772.423.434.096.686-.028.871-.42.216-.452.413-.91.61-1.373.185-.434.076-.741-.347-.981a2.286 2.286 0 00-.328-.152C12.973.077 11.16-.17 9.29.12 7.975.324 6.746.762 5.685 1.56c-1.338 1.002-2.206 2.326-2.71 3.883l-.061.18H1.04a.53.53 0 00-.54.523v1.16c0 .29.24.523.54.523h1.476v.946H1.04a.53.53 0 00-.54.523v1.161c0 .29.24.523.54.523h1.779c.135.423.248.854.42 1.26.9 2.104 2.41 3.6 4.68 4.314 1.879.59 3.771.572 5.663.067.493-.13.981-.3 1.448-.508.452-.202.569-.54.39-.96z" fill="#BFBFBF"/></svg>