<svg width="39" height="76" fill="none" xmlns="http://www.w3.org/2000/svg"><path d="M25.73 38.016L1.534 9.583C.867 8.803.5 7.758.5 6.645c0-1.114.367-2.158 1.033-2.94l2.12-2.49C4.318.43 5.208 0 6.155 0c.948 0 1.836.431 2.502 1.215l28.811 33.851c.669.785 1.035 1.834 1.032 2.948.003 1.12-.363 2.167-1.032 2.953L8.684 74.785C8.018 75.57 7.13 76 6.182 76c-.948 0-1.836-.431-2.503-1.215l-2.12-2.49c-1.379-1.62-1.379-4.259 0-5.879l24.172-28.4z" fill="url(#paint0_linear)"/><defs><linearGradient id="paint0_linear" x1="38.5" y1="0" x2=".287" y2=".107" gradientUnits="userSpaceOnUse"><stop stop-color="#0084FF"/><stop offset="1" stop-color="#1C47D8"/></linearGradient></defs></svg>