<svg width="39" height="76" fill="none" xmlns="http://www.w3.org/2000/svg"><path d="M13.27 37.984l24.197 28.433c.666.78 1.033 1.825 1.033 2.938 0 1.114-.367 2.158-1.033 2.94l-2.12 2.49C34.682 75.57 33.792 76 32.845 76c-.948 0-1.836-.431-2.502-1.215L1.532 40.934C.863 40.149.497 39.1.5 37.986c-.003-1.12.363-2.167 1.032-2.953L30.316 1.215C30.982.43 31.87 0 32.818 0c.948 0 1.836.431 2.503 1.215l2.12 2.49c1.379 1.62 1.379 4.259 0 5.879l-24.172 28.4z" fill="url(#paint0_linear)"/><defs><linearGradient id="paint0_linear" x1=".5" y1="76" x2="38.714" y2="75.892" gradientUnits="userSpaceOnUse"><stop stop-color="#0084FF"/><stop offset="1" stop-color="#1C47D8"/></linearGradient></defs></svg>