<svg width="15" height="22" fill="none" xmlns="http://www.w3.org/2000/svg"><path d="M12.71 6.016a1.45 1.45 0 00-1.45 1.45v-.86a1.45 1.45 0 00-2.9 0v1.816h.214c.46 0 .89.179 1.215.504.326.326.505.76.504 1.222-.001.51-.102.995-.285 1.44a1.45 1.45 0 001.252-1.437 1.45 1.45 0 102.9 0V7.466c0-.801-.65-1.45-1.45-1.45z" fill="url(#paint0_linear)"/><path d="M7.807.022A1.45 1.45 0 006.127 1.2l-.99 5.614-.99-5.614a1.45 1.45 0 10-2.856.503l1.198 6.79c.23-.045.47-.07.714-.07H7.07V6.607c0-1.056.6-1.973 1.477-2.43l.437-2.475A1.45 1.45 0 007.807.022z" fill="url(#paint1_linear)"/><path d="M11.26 12.474a2.722 2.722 0 01-2.06.347h-.006a3.827 3.827 0 01-1.698 1.004 4.501 4.501 0 011.508 3.345.656.656 0 01-.623.662.645.645 0 01-.666-.645 3.228 3.228 0 00-2.664-3.174.668.668 0 01-.559-.655c0-.377.306-.682.682-.682H6.47a2.535 2.535 0 002.535-2.53c0-.24-.19-.435-.43-.435h-5.37A2.363 2.363 0 00.84 12.074v2.181a4.41 4.41 0 002.578 4.015V22h9.023v-3.794a3.752 3.752 0 001.72-3.167v-2.565a2.722 2.722 0 01-1.451.417c-.532 0-1.03-.153-1.45-.417z" fill="url(#paint2_linear)"/><defs><linearGradient id="paint0_linear" x1="8.359" y1="5.156" x2="14.193" y2="5.186" gradientUnits="userSpaceOnUse"><stop stop-color="#0084FF"/><stop offset="1" stop-color="#1C47D8"/></linearGradient><linearGradient id="paint1_linear" x1="1.269" y1="0" x2="9.049" y2=".04" gradientUnits="userSpaceOnUse"><stop stop-color="#0084FF"/><stop offset="1" stop-color="#1C47D8"/></linearGradient><linearGradient id="paint2_linear" x1=".84" y1="9.711" x2="14.235" y2="9.793" gradientUnits="userSpaceOnUse"><stop stop-color="#0084FF"/><stop offset="1" stop-color="#1C47D8"/></linearGradient></defs></svg>