<svg width="23" height="22" fill="none" xmlns="http://www.w3.org/2000/svg"><g clip-path="url(#clip0)"><path fill-rule="evenodd" clip-rule="evenodd" d="M21.877 11.76l.34.455c.52.699.3 1.681-.469 2.096l-.501.275a1.42 1.42 0 00-.727 1.51l.105.555c.162.847-.473 1.64-1.352 1.69l-.575.032a1.446 1.446 0 00-1.325 1.05l-.152.546c-.235.829-1.155 1.275-1.97.946l-.533-.216a1.483 1.483 0 00-1.66.383l-.378.424a1.478 1.478 0 01-2.19.018l-.382-.42a1.479 1.479 0 00-1.665-.36l-.53.22c-.809.343-1.738-.085-1.982-.914l-.161-.541a1.461 1.461 0 00-1.344-1.033l-.575-.022c-.878-.036-1.527-.82-1.38-1.668l.097-.555a1.42 1.42 0 00-.75-1.5l-.506-.267a1.42 1.42 0 01-.506-2.091l.33-.46a1.412 1.412 0 00-.013-1.673l-.34-.455a1.415 1.415 0 01.469-2.096l.501-.275a1.42 1.42 0 00.727-1.51l-.106-.555c-.16-.847.474-1.64 1.353-1.69l.575-.032a1.446 1.446 0 001.325-1.05l.152-.546c.235-.829 1.155-1.275 1.97-.946l.533.216a1.48 1.48 0 001.66-.383l.378-.424a1.478 1.478 0 012.19-.018l.382.42c.418.46 1.09.603 1.665.36l.53-.22c.809-.343 1.738.085 1.982.914l.161.541c.175.59.718 1.006 1.344 1.033l.575.022c.878.036 1.527.82 1.38 1.668l-.097.555a1.42 1.42 0 00.75 1.5l.506.267a1.42 1.42 0 01.506 2.091l-.33.46a1.412 1.412 0 00.013 1.673zM8.514 6.914c-1.251 0-2.264.991-2.264 2.218 0 1.221 1.013 2.218 2.264 2.218s2.264-.992 2.264-2.218c0-1.227-1.013-2.218-2.264-2.218zm.436 7.938a.561.561 0 01-.777.072.535.535 0 01-.074-.762l5.94-7.01a.561.561 0 01.777-.072c.235.19.267.532.074.762l-5.94 7.01zm3.264-1.989c0 1.227 1.012 2.218 2.264 2.218 1.251 0 2.263-.991 2.263-2.218 0-1.226-1.012-2.217-2.263-2.217-1.252 0-2.264.991-2.264 2.217z" fill="url(#paint0_linear)"/></g><defs><linearGradient id="paint0_linear" x1=".5" y1="0" x2="22.623" y2=".124" gradientUnits="userSpaceOnUse"><stop stop-color="#0084FF"/><stop offset="1" stop-color="#1C47D8"/></linearGradient><clipPath id="clip0"><path fill="#fff" transform="translate(.5)" d="M0 0h22v22H0z"/></clipPath></defs></svg>