<svg width="126" height="22" fill="none" xmlns="http://www.w3.org/2000/svg"><g clip-path="url(#clip0)"><path d="M21.943 8.438a1.168 1.168 0 00-1.006-.803l-6.35-.576-2.51-5.876a1.17 1.17 0 00-2.152 0l-2.51 5.876-6.352.576A1.171 1.171 0 00.4 9.681l4.8 4.21-1.415 6.234a1.17 1.17 0 001.74 1.264L11 18.115l5.476 3.274a1.169 1.169 0 001.74-1.264l-1.415-6.234 4.8-4.21a1.17 1.17 0 00.342-1.243z" fill="url(#paint0_linear)"/></g><g clip-path="url(#clip1)"><path d="M47.943 8.438a1.168 1.168 0 00-1.006-.803l-6.35-.576-2.51-5.876a1.17 1.17 0 00-2.152 0l-2.51 5.876-6.352.576a1.171 1.171 0 00-.664 2.046l4.8 4.21-1.415 6.234a1.17 1.17 0 001.74 1.264L37 18.115l5.475 3.274a1.169 1.169 0 001.742-1.264L42.8 13.89l4.8-4.21a1.17 1.17 0 00.342-1.243z" fill="url(#paint1_linear)"/></g><g clip-path="url(#clip2)"><path d="M73.943 8.438a1.168 1.168 0 00-1.006-.803l-6.35-.576-2.51-5.876a1.17 1.17 0 00-2.152 0l-2.51 5.876-6.352.576a1.171 1.171 0 00-.664 2.046l4.8 4.21-1.415 6.234a1.17 1.17 0 001.74 1.264L63 18.115l5.475 3.274a1.169 1.169 0 001.742-1.264L68.8 13.89l4.8-4.21a1.17 1.17 0 00.342-1.243z" fill="url(#paint2_linear)"/></g><g clip-path="url(#clip3)"><path d="M99.943 8.438a1.168 1.168 0 00-1.006-.803l-6.35-.576-2.51-5.876a1.17 1.17 0 00-2.152 0l-2.51 5.876-6.352.576a1.171 1.171 0 00-.664 2.046l4.8 4.21-1.415 6.234a1.17 1.17 0 001.74 1.264L89 18.115l5.475 3.274a1.169 1.169 0 001.742-1.264L94.8 13.89l4.8-4.21a1.17 1.17 0 00.342-1.243z" fill="url(#paint3_linear)"/></g><g clip-path="url(#clip4)"><path d="M125.943 8.438a1.168 1.168 0 00-1.006-.803l-6.351-.576-2.509-5.876a1.17 1.17 0 00-2.152 0l-2.51 5.876-6.352.576a1.172 1.172 0 00-.664 2.046l4.801 4.21-1.416 6.234a1.17 1.17 0 001.74 1.264L115 18.115l5.476 3.274a1.168 1.168 0 001.74-1.264l-1.415-6.234 4.801-4.21a1.17 1.17 0 00.341-1.243z" fill="url(#paint4_linear)"/></g><defs><linearGradient id="paint0_linear" x1="0" y1=".472" x2="22.123" y2=".602" gradientUnits="userSpaceOnUse"><stop stop-color="#0084FF"/><stop offset="1" stop-color="#1C47D8"/></linearGradient><linearGradient id="paint1_linear" x1="26" y1=".472" x2="48.123" y2=".602" gradientUnits="userSpaceOnUse"><stop stop-color="#0084FF"/><stop offset="1" stop-color="#1C47D8"/></linearGradient><linearGradient id="paint2_linear" x1="52" y1=".472" x2="74.123" y2=".602" gradientUnits="userSpaceOnUse"><stop stop-color="#0084FF"/><stop offset="1" stop-color="#1C47D8"/></linearGradient><linearGradient id="paint3_linear" x1="78" y1=".472" x2="100.123" y2=".602" gradientUnits="userSpaceOnUse"><stop stop-color="#0084FF"/><stop offset="1" stop-color="#1C47D8"/></linearGradient><linearGradient id="paint4_linear" x1="104" y1=".472" x2="126.123" y2=".602" gradientUnits="userSpaceOnUse"><stop stop-color="#0084FF"/><stop offset="1" stop-color="#1C47D8"/></linearGradient><clipPath id="clip0"><path fill="#fff" d="M0 0h22v22H0z"/></clipPath><clipPath id="clip1"><path fill="#fff" transform="translate(26)" d="M0 0h22v22H0z"/></clipPath><clipPath id="clip2"><path fill="#fff" transform="translate(52)" d="M0 0h22v22H0z"/></clipPath><clipPath id="clip3"><path fill="#fff" transform="translate(78)" d="M0 0h22v22H0z"/></clipPath><clipPath id="clip4"><path fill="#fff" transform="translate(104)" d="M0 0h22v22H0z"/></clipPath></defs></svg>