<svg width="23" height="22" fill="none" xmlns="http://www.w3.org/2000/svg"><path d="M13.95 15H8.934c-4.122 0-7.48 3.143-7.48 7h20c-.023-3.837-3.381-7-7.504-7z" fill="url(#paint0_linear)"/><path d="M12.9 11.632c.417 0 .81.135 1.11.382h1.918c.947-.965 1.525-2.243 1.525-3.678 0-2.96-2.473-5.336-5.5-5.336s-5.5 2.377-5.5 5.336c0 1.996 1.132 3.745 2.82 4.664a1.788 1.788 0 011.733-1.368H12.9z" fill="url(#paint1_linear)"/><path d="M3.609 9.3c.067.498.334.956.712 1.295.29.258.668.458 1.09.577-.022-.08-.022-.16-.022-.219V7.09c0-.08 0-.16.022-.24a2.45 2.45 0 00-1.09.578l-.089.08v-.16c0-.378.044-.756.111-1.115.067-.378.178-.737.334-1.075.134-.359.312-.697.534-1.016.2-.318.445-.637.712-.916.022-.02.045-.06.045-.08.2.02.4-.04.534-.159 1.357-1.215 3.137-1.812 4.896-1.812 1.758 0 3.56.597 4.895 1.812a.68.68 0 00.534.16c.022.02.022.06.045.08a5.8 5.8 0 01.712.915c.2.319.378.657.534 1.016.134.358.245.717.334 1.095.066.359.111.737.111 1.115v.16c-.022-.04-.067-.06-.089-.08a2.765 2.765 0 00-1.09-.577c.022.08.022.159.022.239v3.843c0 .08 0 .16-.022.22.11-.02.222-.06.333-.1v1.254c0 .14-.022.279-.044.379a.536.536 0 01-.111.219.496.496 0 01-.178.1c-.09.02-.178.039-.29.039h-4.117a.757.757 0 00-.645-.338h-1.825c-.4 0-.712.298-.712.637.023.358.334.637.735.637h1.824c.267 0 .512-.14.646-.338h4.295c.155 0 .289-.04.422-.08.178-.06.312-.14.445-.26.112-.119.2-.258.268-.437.044-.16.088-.359.088-.578v-1.653l.067-.06c.379-.338.646-.796.712-1.294.023-.02.045-.02.045-.04a.349.349 0 00.111-.239V7.368a7.48 7.48 0 00-.111-1.234c-.134-.418-.245-.817-.4-1.215a5.67 5.67 0 00-.602-1.135 5.92 5.92 0 00-.8-1.016c-.023-.04-.067-.06-.112-.08a.565.565 0 00-.178-.537C15.648.717 13.556 0 11.442 0s-4.206.717-5.83 2.15a.565.565 0 00-.178.538.387.387 0 00-.112.08 5.915 5.915 0 00-.8 1.016 9.496 9.496 0 00-.602 1.135 5.949 5.949 0 00-.356 1.215 5.681 5.681 0 00-.11 1.234v1.653c0 .1.044.18.11.24.023.02.045.02.045.04z" fill="url(#paint2_linear)"/><defs><linearGradient id="paint0_linear" x1="1.453" y1="15" x2="21.56" y2="15.323" gradientUnits="userSpaceOnUse"><stop stop-color="#0084FF"/><stop offset="1" stop-color="#1C47D8"/></linearGradient><linearGradient id="paint1_linear" x1="6.453" y1="3" x2="17.515" y2="3.068" gradientUnits="userSpaceOnUse"><stop stop-color="#0084FF"/><stop offset="1" stop-color="#1C47D8"/></linearGradient><linearGradient id="paint2_linear" x1="3.453" y1="0" x2="19.543" y2=".103" gradientUnits="userSpaceOnUse"><stop stop-color="#0084FF"/><stop offset="1" stop-color="#1C47D8"/></linearGradient></defs></svg>