<svg width="22" height="22" fill="none" xmlns="http://www.w3.org/2000/svg"><path d="M11 0C4.935 0 0 4.935 0 11s4.935 11 11 11 11-4.935 11-11S17.065 0 11 0zm0 21.043C5.462 21.043.957 16.538.957 11 .957 5.462 5.462.957 11 .957 16.538.957 21.043 5.462 21.043 11c0 5.538-4.505 10.043-10.043 10.043z" fill="#fff"/><path d="M11 10.522a6.225 6.225 0 00-6.217 6.217.478.478 0 00.956 0c0-2.901 2.36-5.26 5.261-5.26a5.266 5.266 0 015.261 5.26.478.478 0 00.957 0A6.225 6.225 0 0011 10.522zm0-7.652a3.352 3.352 0 00-3.348 3.347A3.351 3.351 0 0011 9.565a3.351 3.351 0 003.348-3.348A3.351 3.351 0 0011 2.87zm0 5.739a2.395 2.395 0 01-2.39-2.392A2.395 2.395 0 0111 3.827a2.395 2.395 0 012.392 2.39A2.395 2.395 0 0111 8.61z" fill="#fff"/></svg>