<svg width="22" height="22" fill="none" xmlns="http://www.w3.org/2000/svg"><path d="M11 22c6.065 0 11-4.935 11-11S17.065 0 11 0 0 4.935 0 11c0 6.066 4.935 11 11 11zM11 .84c1.077 0 2.114.17 3.089.482-.278.396-.32-.157-.407.073-.088.237-.306.308-.369.305-.124.188-.238.384-.36.567-.13.024-.251.048-.372.066a.178.178 0 00-.119.065c-.132.158-.268.313-.4.47-.117.139-.23.28-.345.42-.015.018-.034.034-.05.051a.641.641 0 01-.222-.142 1.05 1.05 0 01-.246-.366 2.055 2.055 0 01-.144-.576.336.336 0 01.02-.169c.072-.177.138-.357.21-.534.02-.051.014-.09-.028-.13-.126.007-.255-.028-.387.013.013.03.024.058.036.083l.122.266c.008.019.011.04.017.06-.113.088-.224.168-.33.256-.105.087-.198.188-.309.274a.674.674 0 00-.218-.227c-.141-.104-.092-.086-.267-.08a.915.915 0 00-.35.06.413.413 0 01-.191.023.153.153 0 01-.121-.061c-.009-.012-.016-.025-.025-.036a.09.09 0 00-.106-.032.406.406 0 00-.098.046c-.05.035-.1.072-.145.113a1.26 1.26 0 01-.18.138l-.292.188a.124.124 0 00-.064.093c-.01.068-.029.135-.036.203a.64.64 0 00.018.268c.04.118.14.17.257.126.14-.051.271-.12.388-.213a.533.533 0 00.177-.229.246.246 0 01.023-.048c.021-.033.048-.041.084-.026.03.013.058.03.087.043a.223.223 0 00.218-.006.792.792 0 00.106-.074c.031-.025.058-.054.086-.083a.473.473 0 01.16-.108c.115-.046.197-.025.263.078.05.078.114.138.19.19a.715.715 0 01.093.073c.046.043.06.096.045.158a.624.624 0 01-.086.186c-.031.049-.063.097-.09.148a.29.29 0 00-.027.081c-.006.03.021.06.051.055.04-.006.077-.02.115-.03l.079-.022c-.013.225-.047.433-.155.623a.424.424 0 01-.072.094.292.292 0 01-.287.083.46.46 0 01-.211-.103c-.12-.11-.231-.097-.34.02a.576.576 0 00-.086.125.155.155 0 01-.106.082 1.624 1.624 0 01-.644.052.243.243 0 00-.106.008c-.138.041-.277.08-.416.12a.628.628 0 00-.158.068c-.092.057-.19.104-.294.136-.105.033-.21.051-.313-.022-.33.276-.698.478-1.108.609l-.071.452-.086.545c-.008.046-.027.064-.069.071-.05.008-.096 0-.129-.04a.676.676 0 01-.085-.123 1.03 1.03 0 01-.106-.362.445.445 0 00-.264-.37 1 1 0 00-.632-.096 1.59 1.59 0 00-.915.5c-.209.227-.207.227-.265.541a.678.678 0 00.012.333c.036.113.11.182.227.207a.43.43 0 00.182.006c.067-.014.246-.05.263-.042a.3.3 0 01.13.095c.042.056.054.116.024.183a.362.362 0 01-.096.13c-.052.044-.211.157-.232.177-.089.083-.087.182.003.261.022.019.047.034.071.05.02.013.043.024.067.038-.006.066-.01.127-.017.187-.02.159-.02.318-.012.477.008.152.074.28.198.37.081.06.169.111.257.16a.72.72 0 00.162.058c.164.043.31.006.428-.114.05-.051.09-.113.129-.173a.27.27 0 01.303-.134c.07.014.13.048.179.096.06.06.133.098.208.134.1.049.2.1.302.147a.64.64 0 00.112.038c.285.072.53.21.71.447.037.049.08.076.136.096.268.094.514.229.734.409.278.227.486.504.593.85a.49.49 0 00.123.21c.058.058.106.128.15.198.059.095.11.196.163.293l.04.07.144.03c.306.068.594.178.855.354.136.09.257.198.362.324.029.035.046.07.046.117.007.412-.143.747-.486.985a.23.23 0 00-.09.117c-.088.24-.178.48-.27.72a.57.57 0 01-.065.123c-.121.171-.246.34-.367.51a.397.397 0 01-.143.13c-.045.022-.09.047-.135.068a2.303 2.303 0 01-.523.173.18.18 0 00-.116.07c-.12.158-.244.314-.366.47-.013.018-.027.035-.037.054-.117.216-.26.416-.395.621a.389.389 0 01-.114.114c-.195.13-.39.26-.585.392-.056.039-.11.082-.16.13-.097.09-.192.185-.286.28a.32.32 0 00-.063.086c-.091.196-.179.394-.27.591a.197.197 0 00-.015.126c.062.326.123.653.183.98.007.037.015.076.015.115-.083.003-.083.003-.162-.03a1.357 1.357 0 01-.37-.243 3.163 3.163 0 01-.617-.791.258.258 0 01-.028-.092 95.782 95.782 0 01-.11-.773.205.205 0 00-.034-.09.559.559 0 01-.076-.212 1.578 1.578 0 01.012-.528c.03-.207.062-.414.094-.621a.102.102 0 00-.017-.082.424.424 0 01-.071-.235c-.01-.16.019-.316.06-.47.014-.056.027-.113.036-.17a49.753 49.753 0 00.106-.788l-.038-.035a.553.553 0 01-.19-.331.75.75 0 01-.001-.28c.013-.07.03-.14.045-.21l-.102-.07a2.131 2.131 0 01-.426-.384c-.126-.153-.25-.308-.372-.466a1.276 1.276 0 01-.127-.2.536.536 0 01-.057-.368.144.144 0 00-.01-.084 1.53 1.53 0 01-.066-.642.846.846 0 01.137-.417c.053-.078.102-.158.156-.234l.29-.406a1.03 1.03 0 00.179-.437.792.792 0 00.013-.215.362.362 0 00-.146-.279c-.106-.075-.208-.156-.315-.229a.229.229 0 01-.096-.149c-.034-.148-.075-.294-.109-.442a.214.214 0 00-.075-.126c-.064-.053-.125-.11-.187-.164l-.07-.066c.005-.137.042-.267.045-.403l-.102-.043a1.928 1.928 0 01-.457-.267.971.971 0 01-.22-.238.56.56 0 01-.09-.392c.015-.1.027-.2.04-.3.01-.08.02-.159.028-.237.002-.013.004-.03-.017-.033 0 0 .07-.125-.233-.498a.7.7 0 01-.06-.089C4.305 2.681 7.44.84 11 .84zm5.262 18.848c.234-.245.399-.508.245-.713-.085-.082-.078-.18-.045-.28.02-.058.038-.118.062-.174.075-.168.152-.335.23-.502.083-.184.168-.367.252-.551a.534.534 0 00.033-.35c-.031-.14-.058-.282-.086-.424a.77.77 0 01.018-.417c.092-.258.215-.496.415-.69.062-.06.12-.126.176-.191a.964.964 0 00.168-.29.747.747 0 00.04-.414c-.021-.11-.06-.215-.097-.32-.03-.09-.063-.177-.09-.267a.798.798 0 01-.008-.44c.026-.093.06-.185.092-.277.034-.095.072-.188.106-.284a.881.881 0 00.057-.383 1.877 1.877 0 00-.046-.266c-.023-.093-.063-.11-.15-.076-.034.013-.066.03-.1.044-.102.044-.167.025-.219-.05a.27.27 0 00-.16-.105c-.055-.015-.11-.033-.168-.037a4.33 4.33 0 00-.574.005c-.14.008-.281.013-.422.015-.043.001-.086-.009-.128-.016a1.316 1.316 0 01-.326-.113c-.19-.09-.363-.21-.528-.34-.267-.21-.506-.452-.751-.687a.232.232 0 01-.064-.111.97.97 0 01-.03-.16c-.02-.246.01-.49.055-.732a7.93 7.93 0 01.189-.767c.042-.143.065-.289.064-.438a.336.336 0 00-.038-.178.15.15 0 01-.006-.146c.035-.078.069-.159.114-.232a1.07 1.07 0 01.656-.482.274.274 0 00.15-.095c.105-.13.215-.254.32-.384a.248.248 0 01.131-.086c.163-.048.325-.099.486-.148.143-.044.288-.067.437-.073.27-.01.533.02.786.118a.327.327 0 00.127.018 2.59 2.59 0 01.454.02.793.793 0 01.396.16c.207.169.422.327.634.49.117.09.117.09.265.087.224-.005.447-.005.668.042.01.002.02-.003.037-.005-.002-.03-.001-.059-.007-.085a1.075 1.075 0 00-.222-.476.529.529 0 00-.384-.197 1.161 1.161 0 01-.129-.016.317.317 0 01-.258-.207c-.02-.053-.03-.111-.045-.166-.006-.02-.016-.038-.025-.058-.015.009-.026.012-.033.02a1.08 1.08 0 00-.055.067c-.021.029-.04.06-.064.087-.076.089-.137.083-.192-.017a.545.545 0 01-.031-.07c-.013-.033-.024-.068-.036-.102-.018-.047-.033-.095-.055-.14-.041-.09-.08-.094-.14-.02-.01.014-.02.03-.033.043-.02.022-.038.044-.061.061-.078.061-.159.061-.239.002-.014-.01-.027-.024-.04-.036a.15.15 0 01-.053-.125c.002-.064 0-.13-.006-.194a.419.419 0 00-.032-.114c-.013-.03-.048-.037-.074-.019-.026.019-.05.041-.079.065l-.098-.041c-.141-.065-.282-.13-.424-.193a.312.312 0 01-.135-.101c-.076.254-.083.504-.12.755-.026.008-.052.018-.08.025-.119.03-.238.056-.356.09a.548.548 0 01-.52-.105 1.085 1.085 0 01-.27-.322c-.089-.157-.175-.315-.263-.473-.01-.019-.018-.039-.027-.06.04-.044.093-.06.139-.087a1.12 1.12 0 01.682-.169.112.112 0 00.081-.02c.018-.014.037-.023.055-.035.092-.058.193-.105.272-.177.081-.075.142-.173.21-.262.027-.037.062-.07.079-.116-.032-.074-.06-.149-.095-.22a.286.286 0 01-.024-.178c.012-.075.024-.15.033-.225.004-.028.016-.057-.011-.086-.118-.016-.24-.037-.36-.048a.135.135 0 01-.12-.077c-.037-.066-.08-.13-.115-.196-.025-.048-.061-.068-.112-.073-.068-.007-.136-.02-.204-.024a.18.18 0 01-.13-.066.574.574 0 01-.112-.209 1.919 1.919 0 01-.038-.768c.028-.006.055-.013.083-.016.029-.003.058-.002.087-.005.025-.002.05-.007.075-.01l.086-.008c.026-.004.056.005.08-.018 0 0 .243.036.285-.253a.292.292 0 01.028-.088C19.282 4.244 21.16 7.406 21.16 11c0 3.677-1.964 6.905-4.898 8.688z" fill="#3181CB"/></svg>