<svg width="15" height="16" viewBox="0 0 15 16" fill="none" xmlns="http://www.w3.org/2000/svg">
<g clip-path="url(#clip0)">
<path d="M4.14682 0.101634C4.01733 -0.0302811 3.81094 -0.026478 3.68585 0.110078C3.56384 0.243314 3.56384 0.454513 3.68585 0.587717L10.627 7.90817L3.6852 15.2279C3.55571 15.3599 3.55214 15.5775 3.6772 15.7141C3.80229 15.8506 4.00865 15.8544 4.13817 15.7225C4.14089 15.7197 4.14355 15.7169 4.14618 15.7141L11.3182 8.15089C11.4454 8.01666 11.4454 7.79904 11.3182 7.66478L4.14682 0.101634Z" fill="#F44336"/>
<path d="M3.91607 15.8141C3.73602 15.8144 3.58981 15.6608 3.58948 15.4709C3.58933 15.3794 3.6238 15.2915 3.68526 15.2269L10.6271 7.90711L3.68526 0.58737C3.55778 0.452941 3.55778 0.235006 3.68526 0.100577C3.81274 -0.0338513 4.0194 -0.0338513 4.14687 0.100577L11.3188 7.66375C11.4461 7.79799 11.4461 8.0156 11.3188 8.14987L4.14687 15.713C4.08575 15.7777 4.00268 15.8141 3.91607 15.8141Z" fill="black"/>
</g>
<defs>
<clipPath id="clip0">
<rect width="15" height="15.8182" fill="white"/>
</clipPath>
</defs>
</svg>
