<svg id="Layer_1" data-name="Layer 1" xmlns="http://www.w3.org/2000/svg" viewBox="0 0 66.35 80"><defs><style>.cls-1{fill:none;stroke:#d67456;stroke-miterlimit:10;stroke-width:3px}</style></defs><path class="cls-1" d="M460.64 3983.07c.36-.44.71-.9 1-1.39s.69-1.09 1.08-1.76a33.22 33.22 0 007-20.48c0-17.76-13.8-32.2-30.76-32.2a30.13 30.13 0 00-23.81 11.85 6.17 6.17 0 00-.6.71 5.27 5.27 0 00-.35.56c-1.59 2.26-3.71 8.18-3.71 10.15a13.4 13.4 0 00-.13 1.81v3.78a9.27 9.27 0 00.49 2.36 9.24 9.24 0 01-.39 6.91l-.48 1.35c-.52 1.46-1 3-1.64 4.41a8.13 8.13 0 01-.66 1.1c-.7 1.05-1.56 2.37-1.26 3.8a3 3 0 001.39 1.9 6.59 6.59 0 001.91.73 8.21 8.21 0 01.86.26c0 .13 0 .3-.07.43a3.81 3.81 0 000 2 2.2 2.2 0 00.86 1.15 2.68 2.68 0 00.44 3.22c.12.15.26.33.41.55.28.41.21.93 0 2a5.76 5.76 0 00.11 3.88c1.32 2.77 4.69 3 6.92 3.21l.94.08a41.38 41.38 0 004.25.19h4.04l3.57 7.69a1.59 1.59 0 001.44.92h33.14a1.59 1.59 0 001.19-2.64c.01-.09-7.82-9.04-7.18-18.53zm-21.39-4.33a20.26 20.26 0 1120.26-20.27 20.29 20.29 0 01-20.26 20.27z" transform="translate(-404.92 -3925.74)"/><circle class="cls-1" cx="23.65" cy="32.73" r="3.11"/><circle class="cls-1" cx="34.33" cy="32.73" r="3.11"/><circle class="cls-1" cx="45.01" cy="32.73" r="3.11"/></svg>