<svg data-name="Layer 1" xmlns="http://www.w3.org/2000/svg" viewBox="0 0 76.58 80"><path d="M16.08 26.5V4.92a3.42 3.42 0 00-6.84 0V26.5a7.94 7.94 0 000 15.86v32.71a3.42 3.42 0 006.84 0V42.36a7.94 7.94 0 000-15.86zm25.63 20.54V4.92a3.42 3.42 0 00-6.84 0v42.12a7.94 7.94 0 000 15.86v12.17a3.42 3.42 0 006.84 0V62.9a7.94 7.94 0 000-15.86zM67.38 17.1V4.93a3.42 3.42 0 00-6.84 0V17.1a7.94 7.94 0 000 15.86v42.12a3.42 3.42 0 006.84 0V32.96a7.94 7.94 0 000-15.86z" fill="none" stroke="#d67456" stroke-miterlimit="10" stroke-width="3"/></svg>