<svg data-name="Layer 1" xmlns="http://www.w3.org/2000/svg" viewBox="0 0 80.58 80"><path d="M46.82 17.27a11.13 11.13 0 01-7.11-5 13.44 13.44 0 00-3.17-3.39 54.12 54.12 0 00-6.89-4C22.32 1.38 14.78.51 7.02 3.02a.83.83 0 00-.44.22 1.23 1.23 0 00.77 2.19h.33a16.84 16.84 0 019.51 1.42c5.58 3 6.89 7.87 3.39 13.12-.66 1-1.31 1.86-2 2.84a2.13 2.13 0 00-.22 2 1 1 0 01-.11 1.2c-5.36 7.87-10.72 15.64-16.07 23.4 0 .11-.11.11-.11.22a2.66 2.66 0 00.11 3.5 11.46 11.46 0 004.59 3.28 2.28 2.28 0 003.06-1c5.47-8 11-16 16.51-23.95a1.15 1.15 0 011-.55 1.76 1.76 0 001.2-.55 12.9 12.9 0 013.06-2.51 8.5 8.5 0 015-1.31 6.12 6.12 0 013.06 1.86 1.37 1.37 0 002.08-.33l6-8.53a1.55 1.55 0 00-.92-2.27zm6.07 2.55a1.4 1.4 0 012-.33l1 .66a2.4 2.4 0 01.66 3.5c-2.41 3.5-4.7 6.89-7.22 10.28-1.2 1.64-2.41 1.53-4.48-.11a1.37 1.37 0 01-.22-1.86zm23.46 38.89H57.58a2.71 2.71 0 01-2.73-2.73v-8.31a2.71 2.71 0 012.73-2.73h18.81a2.71 2.71 0 012.73 2.73v8.31a2.71 2.71 0 01-2.77 2.73zm-30.18 0H27.36a2.71 2.71 0 01-2.73-2.73v-8.31a2.71 2.71 0 012.73-2.73h18.81a2.71 2.71 0 012.73 2.73v8.31a2.71 2.71 0 01-2.73 2.73zM59.51 78.5H40.7a2.71 2.71 0 01-2.73-2.73v-8.31a2.71 2.71 0 012.73-2.73h18.81a2.71 2.71 0 012.73 2.73v8.31a2.71 2.71 0 01-2.73 2.73zm-28.98 0H11.72a2.71 2.71 0 01-2.73-2.73v-8.31a2.71 2.71 0 012.73-2.73h18.81a2.71 2.71 0 012.73 2.73v8.31a2.71 2.71 0 01-2.73 2.73z" fill="none" stroke="#d67456" stroke-miterlimit="10" stroke-width="3"/></svg>