<svg data-name="Layer 1" xmlns="http://www.w3.org/2000/svg" viewBox="0 0 60.75 80"><path d="M52.83 78.5H7.91a6.42 6.42 0 01-6.42-6.42V14.33a6.42 6.42 0 016.42-6.42h16c-1.77 0-6.42 1.43-6.42 3.21v3.21h25.67v-3.21c0-1.77-4.64-3.21-6.42-3.21h16a6.42 6.42 0 016.42 6.42v57.75a6.42 6.42 0 01-6.33 6.42zM14.37 23.96H7.95v6.42h6.42v-6.42zm0 12.83H7.95v6.42h6.42v-6.42zm0 12.83H7.95v6.42h6.42v-6.42zm0 12.83H7.95v6.42h6.42V62.5zm38.5-38.5H20.75v6.42h32.08v-6.42zm0 12.83H20.75v6.42h32.08v-6.42zm0 12.83H20.75v6.42h32.08v-6.42zm0 12.83H20.75v6.42h32.08V62.5zM27.2 7.9h-3.21V4.69a3.21 3.21 0 013.21-3.21h6.42a3.21 3.21 0 013.21 3.21V7.9h-9.62z" fill="none" stroke="#d67456" stroke-miterlimit="10" stroke-width="3"/></svg>