<svg width="20" height="20" viewBox="0 0 20 20" fill="none" xmlns="http://www.w3.org/2000/svg">
<g clip-path="url(#clip0)">
<path d="M5.52914 0.12788C5.35648 -0.0389094 5.0813 -0.0341009 4.91451 0.138556C4.75184 0.307016 4.75184 0.574049 4.91451 0.742468L14.1694 9.99821L4.91366 19.2531C4.741 19.4199 4.73623 19.695 4.90298 19.8677C5.06977 20.0404 5.34491 20.0452 5.51761 19.8784C5.52124 19.8749 5.52478 19.8714 5.52829 19.8677L15.0909 10.3051C15.2606 10.1354 15.2606 9.86024 15.0909 9.69047L5.52914 0.12788Z" fill="#F44336"/>
<path d="M5.22139 19.9951C4.98133 19.9956 4.78638 19.8013 4.78594 19.5612C4.78573 19.4455 4.8317 19.3344 4.91365 19.2527L14.1694 9.99781L4.91365 0.74296C4.74368 0.572993 4.74368 0.297443 4.91365 0.127476C5.08361 -0.0424918 5.35916 -0.0424918 5.52913 0.127476L15.0918 9.69011C15.2614 9.85983 15.2614 10.135 15.0918 10.3047L5.52913 19.8673C5.44763 19.9491 5.33687 19.9951 5.22139 19.9951Z" fill="black"/>
<g clip-path="url(#clip1)">
<path d="M0.529141 0.12788C0.356484 -0.0389094 0.0813009 -0.0341009 -0.085488 0.138556C-0.248161 0.307016 -0.248161 0.574049 -0.085488 0.742468L9.1694 9.99821L-0.0863436 19.2531C-0.259001 19.4199 -0.263768 19.695 -0.0970201 19.8677C0.0697688 20.0404 0.344911 20.0452 0.517609 19.8784C0.521236 19.8749 0.524781 19.8714 0.528286 19.8677L10.0909 10.3051C10.2606 10.1354 10.2606 9.86024 10.0909 9.69047L0.529141 0.12788Z" fill="#F44336"/>
<path d="M0.221387 19.9951C-0.0186697 19.9956 -0.213617 19.8013 -0.214065 19.5612C-0.214269 19.4455 -0.168303 19.3344 -0.0863549 19.2527L9.16939 9.99781L-0.0863549 0.74296C-0.256322 0.572993 -0.256322 0.297443 -0.0863549 0.127476C0.0836125 -0.0424918 0.359163 -0.0424918 0.52913 0.127476L10.0918 9.69011C10.2614 9.85983 10.2614 10.135 10.0918 10.3047L0.52913 19.8673C0.44763 19.9491 0.336872 19.9951 0.221387 19.9951Z" fill="black"/>
</g>
</g>
<defs>
<clipPath id="clip0">
<rect width="20" height="20" fill="white"/>
</clipPath>
<clipPath id="clip1">
<rect width="20" height="20" fill="white" transform="translate(-5)"/>
</clipPath>
</defs>
</svg>
