<svg width="15" height="15" viewBox="0 0 15 15" fill="none" xmlns="http://www.w3.org/2000/svg">
<g clip-path="url(#clip0)">
<path d="M4.14682 0.0956655C4.01733 -0.0294262 3.81094 -0.0258198 3.68585 0.103673C3.56384 0.230018 3.56384 0.430293 3.68585 0.556607L10.627 7.49842L3.6852 14.4396C3.55571 14.5647 3.55214 14.771 3.6772 14.9006C3.80229 15.03 4.00865 15.0336 4.13817 14.9086C4.14089 14.9059 4.14355 14.9033 4.14618 14.9006L11.3182 7.72858C11.4454 7.60129 11.4454 7.39493 11.3182 7.26761L4.14682 0.0956655Z" fill="#F44336"/>
<path d="M3.91607 14.9961C3.73602 14.9964 3.58981 14.8507 3.58948 14.6707C3.58933 14.5839 3.6238 14.5006 3.68526 14.4393L10.6271 7.49811L3.68526 0.556976C3.55778 0.429501 3.55778 0.222838 3.68526 0.0953625C3.81274 -0.032113 4.0194 -0.032113 4.14687 0.0953625L11.3188 7.26734C11.4461 7.39463 11.4461 7.60099 11.3188 7.72831L4.14687 14.9003C4.08575 14.9616 4.00268 14.9961 3.91607 14.9961Z" fill="white"/>
</g>
<defs>
<clipPath id="clip0">
<rect width="15" height="15" fill="white"/>
</clipPath>
</defs>
</svg>
