<svg width="32" height="32" fill="none" xmlns="http://www.w3.org/2000/svg"><path fill-rule="evenodd" clip-rule="evenodd" d="M0 16C0 7.163 7.163 0 16 0s16 7.163 16 16-7.163 16-16 16S0 24.837 0 16z" fill="#D3F7FF"/><path d="M12.938 22.625h-1.584a.396.396 0 010-.791h1.584a.396.396 0 010 .791zm-4.75 0h-.792a.396.396 0 010-.791h.792a.396.396 0 010 .791zm9.5 0h-1.584a.396.396 0 010-.792h1.188V9.563a.396.396 0 00-.396-.396h-9.5a.396.396 0 010-.792h9.5a1.19 1.19 0 011.187 1.188v12.666a.396.396 0 01-.395.396z" fill="#018EBA"/><path d="M24.813 22.625h-1.584a.396.396 0 010-.792h1.584a.396.396 0 00.395-.396v-6.333a2.774 2.774 0 00-2.77-2.771h-4.355v9.5h1.98a.396.396 0 010 .792h-2.375a.396.396 0 01-.396-.396V11.937c0-.218.177-.396.395-.396h4.75A3.567 3.567 0 0126 15.104v6.333a1.19 1.19 0 01-1.188 1.188z" fill="#018EBA"/><path d="M25.604 17.083h-3.958a1.983 1.983 0 01-1.98-1.98v-3.166a.396.396 0 01.792 0v3.167c0 .655.533 1.187 1.188 1.187h3.958a.396.396 0 010 .792zM13.73 18.667a.396.396 0 01-.397-.396v-7.125a.396.396 0 01.792 0v7.125a.396.396 0 01-.396.396zm-3.96 0a.396.396 0 01-.395-.396v-7.125a.396.396 0 01.792 0v7.125a.396.396 0 01-.396.396zm11.876 5.541a1.982 1.982 0 01-1.98-1.979c0-1.09.889-1.979 1.98-1.979 1.09 0 1.979.888 1.979 1.98 0 1.09-.888 1.978-1.98 1.978zm0-3.166a1.189 1.189 0 000 2.375 1.189 1.189 0 000-2.375zm-7.126 3.166a1.981 1.981 0 01-1.978-1.979c0-1.09.888-1.979 1.979-1.979 1.09 0 1.979.888 1.979 1.98 0 1.09-.888 1.978-1.98 1.978zm0-3.166a1.188 1.188 0 00.001 2.375 1.189 1.189 0 000-2.375zm-4.75 3.166a1.981 1.981 0 01-1.978-1.979c0-1.09.888-1.979 1.979-1.979 1.09 0 1.979.888 1.979 1.98 0 1.09-.888 1.978-1.98 1.978zm0-3.166a1.188 1.188 0 00.001 2.375 1.189 1.189 0 000-2.375z" fill="#018EBA"/></svg>