<svg width="32" height="32" fill="none" xmlns="http://www.w3.org/2000/svg"><path fill-rule="evenodd" clip-rule="evenodd" d="M0 16C0 7.163 7.163 0 16 0s16 7.163 16 16-7.163 16-16 16S0 24.837 0 16z" fill="#D3F7FF"/><g clip-path="url(#clip0)" fill="#018EBA"><path d="M19.396 26H8.063a.354.354 0 01-.35-.296l-.708-4.25a.354.354 0 01.35-.413h16.291a.354.354 0 010 .709h-.543l-3.435 4.122a.352.352 0 01-.272.128zm-11.034-.71H19.23l2.952-3.541H7.772l.59 3.541z"/><path d="M21.166 23.875H7.708a.354.354 0 010-.709h13.459a.354.354 0 010 .709zm-10.27-2.125H7.354A.354.354 0 017 21.396v-4.25c0-.196.159-.355.354-.355h3.542c.195 0 .354.16.354.355v4.25a.354.354 0 01-.354.354zm-3.188-.709h2.834V17.5H7.708v3.541z"/><path d="M13.729 21.75h-2.833a.354.354 0 01-.355-.354v-4.25c0-.196.16-.355.355-.355h2.833c.196 0 .354.16.354.355v4.25a.354.354 0 01-.354.354zm-2.48-.709h2.126V17.5H11.25v3.541zm7.438.709h-3.541a.354.354 0 01-.355-.354v-3.542c0-.195.16-.354.355-.354h3.541c.196 0 .354.159.354.354v3.542a.354.354 0 01-.354.354zm-3.187-.708h2.833v-2.834H15.5v2.834z"/><path d="M22.23 21.75h-3.542a.354.354 0 01-.354-.354v-3.542c0-.195.158-.354.354-.354h3.541c.196 0 .355.159.355.354v3.542a.354.354 0 01-.355.354zm-3.188-.708h2.833v-2.834h-2.833v2.834z"/></g><path d="M16.727 15.485a.687.687 0 01-.463-.416l-.478-1.238a.278.278 0 00-.042-.072l-.89-1.113a.686.686 0 01.194-1.026.71.71 0 01.807.062l.718.573 2.175-1.367.246-.332-.22.237-2.535-2.355a.72.72 0 01.146-1.13.641.641 0 01.613-.015l4.052 2.06a.07.07 0 00.07-.001l1.98-1.224c.221-.137.537-.167.87-.083.368.078.63.278.765.512.135.234.158.577.061.92-.093.328-.278.588-.507.71l-2.055 1.108a.07.07 0 00-.038.06l-.177 4.611a.638.638 0 01-.32.534.7.7 0 01-.624.045.711.711 0 01-.422-.461l-.83-3.481-.246-.31.152.285-2.268 1.201.137.91a.713.713 0 01-.35.728.69.69 0 01-.521.068zm3.219-3.538a.719.719 0 01.502.487l.83 3.482.26.303-.162-.28.174-4.606a.715.715 0 01.38-.61l2.053-1.106c.056-.03.141-.143.19-.318.053-.186.04-.35.002-.42-.04-.067-.18-.167-.364-.208-.175-.044-.314-.028-.37.006L21.463 9.9a.72.72 0 01-.708.028l-4.052-2.06-.243.331.22-.237 2.535 2.355a.716.716 0 01-.122 1.117l-2.37 1.49a.322.322 0 01-.374-.022l-.898-.716a.07.07 0 00-.078-.006l.88 1.174a.926.926 0 01.138.24l.478 1.24c.081.006.095-.023.09-.052l-.17-1.135a.324.324 0 01.167-.334l2.47-1.309a.72.72 0 01.52-.057zm4.19-2.045l.007.002-.007-.002z" fill="#018EBA"/><defs><clipPath id="clip0"><path fill="#fff" transform="translate(7 9)" d="M0 0h17v17H0z"/></clipPath></defs></svg>