<svg width="32" height="32" fill="none" xmlns="http://www.w3.org/2000/svg"><path fill-rule="evenodd" clip-rule="evenodd" d="M0 16C0 7.163 7.163 0 16 0s16 7.163 16 16-7.163 16-16 16S0 24.837 0 16z" fill="#D3F7FF"/><path d="M23.917 24.333H8.083A2.063 2.063 0 016 22.249v-10c0-1.166.917-2.083 2.083-2.083h15.834c1.166 0 2.083.917 2.083 2.083v10a2.063 2.063 0 01-2.083 2.084zM8.083 10.999c-.666 0-1.25.584-1.25 1.25v10c0 .667.584 1.25 1.25 1.25h15.834c.666 0 1.25-.583 1.25-1.25v-10c0-.666-.584-1.25-1.25-1.25H8.083z" fill="#018EBA"/><path d="M19.25 11c-.25 0-.417-.167-.417-.417V8.916c0-.25-.166-.417-.416-.417H14.25c-.25 0-.417.167-.417.417v1.667c0 .25-.166.416-.416.416-.25 0-.417-.166-.417-.416V8.916c0-.667.583-1.25 1.25-1.25h4.167c.666 0 1.25.583 1.25 1.25v1.667c0 .25-.167.416-.417.416zm-3.228 6.667h-.166l-9.584-3.334c-.167-.083-.333-.333-.25-.583.083-.167.333-.333.583-.25l9.417 3.333L25.44 13.5c.25-.083.416 0 .5.25.083.25 0 .417-.25.5l-9.584 3.333c0 .084 0 .084-.083.084z" fill="#018EBA"/></svg>