<svg width="32" height="32" fill="none" xmlns="http://www.w3.org/2000/svg"><path fill-rule="evenodd" clip-rule="evenodd" d="M0 16C0 7.163 7.163 0 16 0s16 7.163 16 16-7.163 16-16 16S0 24.837 0 16z" fill="#D3F7FF"/><path d="M14.75 26H8.083a.417.417 0 01-.417-.416V19.75c0-.23.187-.416.417-.416h6.667c.23 0 .416.186.416.416v5.834c0 .23-.186.416-.416.416zm-6.25-.833h5.833v-5H8.5v5z" fill="#018EBA"/><path d="M10.167 24.333a.417.417 0 01-.417-.416v-2.5a.417.417 0 01.833 0v2.5c0 .23-.186.416-.416.416z" fill="#018EBA"/><path d="M14.75 26H8.083a.417.417 0 01-.417-.416V19.75c0-.23.187-.416.417-.416h6.667c.23 0 .416.186.416.416v5.834c0 .23-.186.416-.416.416zm-6.25-.833h5.833v-5H8.5v5z" fill="#018EBA"/><path d="M12.667 24.333a.417.417 0 01-.417-.416v-2.5a.417.417 0 01.833 0v2.5c0 .23-.186.416-.416.416zm-2.5 0a.417.417 0 01-.417-.416v-2.5a.417.417 0 01.833 0v2.5c0 .23-.186.416-.416.416zM23.917 26H17.25a.417.417 0 01-.416-.416V19.75c0-.23.186-.416.416-.416h6.667c.23 0 .416.186.416.416v5.834c0 .23-.186.416-.416.416zm-6.25-.833H23.5v-5h-5.833v5z" fill="#018EBA"/><path d="M19.333 24.333a.417.417 0 01-.416-.416v-2.5a.417.417 0 01.833 0v2.5c0 .23-.187.416-.417.416z" fill="#018EBA"/><path d="M23.917 26H17.25a.417.417 0 01-.416-.416V19.75c0-.23.186-.416.416-.416h6.667c.23 0 .416.186.416.416v5.834c0 .23-.186.416-.416.416zm-6.25-.833H23.5v-5h-5.833v5z" fill="#018EBA"/><path d="M21.833 24.333a.417.417 0 01-.416-.416v-2.5a.417.417 0 01.833 0v2.5c0 .23-.187.416-.417.416zm-2.5 0a.417.417 0 01-.416-.416v-2.5a.417.417 0 01.833 0v2.5c0 .23-.187.416-.417.416zm4.584-4.166H17.25a.417.417 0 01-.416-.417v-5.833c0-.23.186-.417.416-.417h6.667c.23 0 .416.187.416.417v5.833c0 .23-.186.417-.416.417zm-6.25-.834H23.5v-5h-5.833v5z" fill="#018EBA"/><path d="M19.333 18.5a.417.417 0 01-.416-.417v-2.5a.417.417 0 01.833 0v2.5c0 .23-.187.417-.417.417z" fill="#018EBA"/><path d="M23.917 20.167H17.25a.417.417 0 01-.416-.417v-5.833c0-.23.186-.417.416-.417h6.667c.23 0 .416.187.416.417v5.833c0 .23-.186.417-.416.417zm-6.25-.834H23.5v-5h-5.833v5z" fill="#018EBA"/><path d="M21.833 18.5a.417.417 0 01-.416-.417v-2.5a.417.417 0 01.833 0v2.5c0 .23-.187.417-.417.417zm-2.5 0a.417.417 0 01-.416-.417v-2.5a.417.417 0 01.833 0v2.5c0 .23-.187.417-.417.417zm4.584-4.167H17.25a.417.417 0 01-.416-.417V8.083c0-.23.186-.417.416-.417h6.667c.23 0 .416.187.416.417v5.833c0 .23-.186.417-.416.417zm-6.25-.833H23.5v-5h-5.833v5z" fill="#018EBA"/><path d="M19.333 12.667a.417.417 0 01-.416-.417v-2.5a.417.417 0 01.833 0v2.5c0 .23-.187.417-.417.417z" fill="#018EBA"/><path d="M23.917 14.333H17.25a.417.417 0 01-.416-.417V8.083c0-.23.186-.417.416-.417h6.667c.23 0 .416.187.416.417v5.833c0 .23-.186.417-.416.417zm-6.25-.833H23.5v-5h-5.833v5z" fill="#018EBA"/><path d="M21.833 12.667a.417.417 0 01-.416-.417v-2.5a.417.417 0 01.833 0v2.5c0 .23-.187.417-.417.417zm-2.5 0a.417.417 0 01-.416-.417v-2.5a.417.417 0 01.833 0v2.5c0 .23-.187.417-.417.417zm-4.583 5H8.083a.417.417 0 01-.417-.417v-5.833c0-.23.187-.417.417-.417h6.667c.23 0 .416.187.416.417v5.833c0 .23-.186.417-.416.417zm-6.25-.834h5.833v-5H8.5v5z" fill="#018EBA"/><path d="M10.167 16a.417.417 0 01-.417-.417v-2.5a.417.417 0 01.833 0v2.5c0 .23-.186.417-.416.417z" fill="#018EBA"/><path d="M14.75 17.667H8.083a.417.417 0 01-.417-.417v-5.833c0-.23.187-.417.417-.417h6.667c.23 0 .416.187.416.417v5.833c0 .23-.186.417-.416.417zm-6.25-.834h5.833v-5H8.5v5z" fill="#018EBA"/><path d="M12.667 16a.417.417 0 01-.417-.417v-2.5a.417.417 0 01.833 0v2.5c0 .23-.186.417-.416.417zm-2.5 0a.417.417 0 01-.417-.417v-2.5a.417.417 0 01.833 0v2.5c0 .23-.186.417-.416.417zm1.249-6.25A1.251 1.251 0 0111 7.322v-.905a.417.417 0 01.833 0v1.25c0 .23-.187.416-.417.416a.417.417 0 10.417.417.417.417 0 01.833 0c0 .69-.56 1.25-1.25 1.25zm-3.333 2.083a.415.415 0 01-.274-.73l1.428-1.25a.416.416 0 11.55.627l-1.429 1.25a.419.419 0 01-.275.103zm6.667 0a.415.415 0 01-.274-.103l-1.429-1.25a.417.417 0 11.549-.627l1.428 1.25a.416.416 0 01-.274.73z" fill="#018EBA"/></svg>