<svg width="32" height="32" fill="none" xmlns="http://www.w3.org/2000/svg"><path fill-rule="evenodd" clip-rule="evenodd" d="M0 16C0 7.163 7.163 0 16 0s16 7.163 16 16-7.163 16-16 16S0 24.837 0 16z" fill="#D3F7FF"/><path d="M10.667 24.334c-.084 0-.25-.084-.334-.167a.403.403 0 010-.583c.334-.334.5-.667.5-1.084 0-.416-.166-.833-.5-1.083a.403.403 0 010-.583L12 18.667c.167-.25.25-.583.083-.917 0-.083 0-.083-.083-.083 0 0-.083 0-.167.083l-3.083 3a.403.403 0 01-.583 0 .403.403 0 010-.583l3.083-3c.25-.25.583-.333.917-.333.333.083.583.25.75.5.333.583.25 1.25-.167 1.75L11.25 21c.333.417.5.917.5 1.417 0 .667-.25 1.25-.75 1.75-.083.167-.167.167-.333.167z" fill="#018EBA"/><path d="M13.083 26H6.417c-.25 0-.417-.167-.417-.417V21.5c0-1.417.583-2.75 1.583-3.834l1.584-1.583a.403.403 0 01.583 0 .403.403 0 010 .584L8.167 18.25a4.6 4.6 0 00-1.334 3.25v3.666h5.834v-.75c0-.166.083-.25.166-.333.667-.416 1-1.083 1.084-1.833 0-.25.166-.417.416-.417.25 0 .417.167.417.417 0 .916-.5 1.833-1.25 2.416v.917c0 .25-.167.417-.417.417zm8.25-1.667c-.083 0-.166 0-.25-.083-.5-.417-.75-1.084-.75-1.75 0-.5.167-1 .5-1.417l-1.5-1.916c-.416-.5-.5-1.167-.166-1.75.166-.25.416-.5.75-.5.333-.084.666.083.833.25l3.083 3a.403.403 0 010 .583.403.403 0 01-.583 0l-3.083-3c-.084-.084-.167-.084-.167-.084s-.083 0-.167.084c-.166.25-.083.666.084.916l1.666 2.167c.167.167.084.417 0 .584-.333.333-.5.666-.5 1.083 0 .416.167.833.5 1.083a.403.403 0 010 .584c-.083.166-.166.166-.25.166z" fill="#018EBA"/><path d="M25.583 26h-6.666c-.25 0-.417-.166-.417-.416v-.917c-.75-.583-1.25-1.417-1.25-2.417 0-.25.167-.416.417-.416.25 0 .416.166.416.416 0 .75.417 1.417 1.084 1.834.166.083.166.25.166.333v.75h5.834V21.5c0-1.166-.5-2.333-1.334-3.166L22.25 16.75a.403.403 0 010-.583.403.403 0 01.583 0l1.584 1.583c1 1 1.583 2.334 1.583 3.75v4.084c0 .25-.167.416-.417.416z" fill="#018EBA"/><path d="M20.667 22.667h-9.5c-.25-.083-.334-.25-.334-.5.084-.25.334-.333.5-.333h9.334c.25 0 .416.166.416.416 0 .25-.166.417-.416.417zm1.583-3.084c-.25 0-.417-.166-.417-.416V7.25c0-.25-.166-.417-.416-.417H10.583c-.25 0-.416.167-.416.417v11.917c0 .25-.167.416-.417.416-.25 0-.417-.166-.417-.416V7.25c0-.667.584-1.25 1.25-1.25h10.834c.666 0 1.25.583 1.25 1.25v11.917c0 .25-.167.416-.417.416z" fill="#018EBA"/></svg>