<svg width="33" height="32" fill="none" xmlns="http://www.w3.org/2000/svg"><path fill-rule="evenodd" clip-rule="evenodd" d="M.914 16c0-8.837 7.138-16 15.943-16s15.942 7.163 15.942 16-7.137 16-15.942 16S.914 24.837.914 16z" fill="#D3F7FF"/><path d="M26.406 14.333c-.083 0-.166 0-.25-.083l-2.075-1.417a1.56 1.56 0 00-.665-.166h-5.314c-.664 0-1.245-.584-1.245-1.25V7.25c0-.667.58-1.25 1.245-1.25h7.473c.665 0 1.246.583 1.246 1.25v6.667c0 .166-.083.333-.25.333 0 .083-.082.083-.165.083zm-8.304-7.5c-.249 0-.415.167-.415.417v4.167c0 .25.166.416.415.416h5.314c.416 0 .83.084 1.163.334l1.412 1V7.25c0-.25-.167-.417-.416-.417h-7.473zM7.308 16c-.083 0-.166 0-.166-.084-.166 0-.25-.166-.25-.333V8.916c0-.666.582-1.25 1.246-1.25h6.643c.249 0 .415.167.415.417 0 .25-.166.417-.415.417H8.138c-.249 0-.415.166-.415.416v5.917l1.412-.917c.332-.25.747-.416 1.162-.416h6.975c.249 0 .415.166.415.416 0 .25-.166.417-.415.417h-6.975c-.25 0-.498.083-.664.25L7.557 16h-.25zm4.152 5c-1.412 0-2.491-1.083-2.491-2.5s1.079-2.5 2.49-2.5c1.412 0 2.492 1.083 2.492 2.5S12.87 21 11.459 21zm0-4.167c-.914 0-1.661.75-1.661 1.667s.747 1.667 1.66 1.667c.914 0 1.661-.75 1.661-1.667s-.747-1.667-1.66-1.667zM15.611 26c-.249 0-.415-.166-.415-.416v-1.667c0-.667-.581-1.25-1.245-1.25H8.968c-.664 0-1.245.583-1.245 1.25v1.667c0 .25-.166.416-.415.416-.25 0-.415-.166-.415-.416v-1.667a2.06 2.06 0 012.075-2.083h4.982a2.06 2.06 0 012.076 2.083v1.667c0 .25-.166.416-.415.416zm6.643-5c-1.412 0-2.491-1.083-2.491-2.5s1.08-2.5 2.491-2.5c1.412 0 2.491 1.083 2.491 2.5s-1.08 2.5-2.491 2.5zm0-4.167c-.913 0-1.66.75-1.66 1.667s.747 1.667 1.66 1.667c.913 0 1.66-.75 1.66-1.667s-.747-1.667-1.66-1.667zM26.406 26c-.25 0-.415-.166-.415-.416v-1.667c0-.667-.581-1.25-1.246-1.25h-4.982c-.664 0-1.245.583-1.245 1.25v1.667c0 .25-.166.416-.416.416-.249 0-.415-.166-.415-.416v-1.667a2.06 2.06 0 012.076-2.083h4.982a2.06 2.06 0 012.076 2.083v1.667c0 .25-.166.416-.415.416z" fill="#018EBA"/></svg>