<svg width="68" height="68" fill="none" xmlns="http://www.w3.org/2000/svg"><path d="M66.884 44.523a5.32 5.32 0 00-2.28-1.592 5.823 5.823 0 00-4.73.309l-9.508 5.045a8.313 8.313 0 01-.472 2.219c-1.634 4.531-6.91 7.042-11.927 5.806l-9.397-2.314c-1.156-.285-1.843-1.377-1.533-2.44.31-1.063 1.498-1.694 2.655-1.409l9.54 2.35c2.891.712 5.863-.865 6.637-3.522.775-2.657-.94-5.388-3.831-6.1L27.47 39.288a11.598 11.598 0 00-8.223.995L1.084 49.922c-1.037.55-1.392 1.769-.793 2.721l9.02 14.36c.288.458.761.792 1.316.929a2.334 2.334 0 001.645-.2l8.191-4.346 17.523 1.039a11.577 11.577 0 006.116-1.314l21.19-11.245c2.788-1.48 3.605-4.908 1.592-7.343z" fill="url(#paint0_linear)"/><path d="M19.55 31.875h28.9c1.197 0 2.167-.892 2.167-1.992 0-5.288-2.939-9.956-7.394-12.698-2.4 2.106-5.65 3.401-9.223 3.401-3.573 0-6.823-1.295-9.223-3.401-4.455 2.742-7.394 7.41-7.394 12.698 0 1.1.97 1.992 2.167 1.992z" fill="url(#paint1_linear)"/><path d="M34 16.602c4.988 0 9.031-3.717 9.031-8.301 0-4.585-4.043-8.301-9.03-8.301-4.989 0-9.032 3.716-9.032 8.3 0 4.585 4.043 8.302 9.031 8.302z" fill="url(#paint2_linear)"/><defs><linearGradient id="paint0_linear" x1="0" y1="38.944" x2="68.371" y2="39.844" gradientUnits="userSpaceOnUse"><stop stop-color="#0084FF"/><stop offset="1" stop-color="#1C47D8"/></linearGradient><linearGradient id="paint1_linear" x1="17.383" y1="17.185" x2="50.799" y2="17.61" gradientUnits="userSpaceOnUse"><stop stop-color="#0084FF"/><stop offset="1" stop-color="#1C47D8"/></linearGradient><linearGradient id="paint2_linear" x1="24.969" y1="0" x2="43.132" y2=".111" gradientUnits="userSpaceOnUse"><stop stop-color="#0084FF"/><stop offset="1" stop-color="#1C47D8"/></linearGradient></defs></svg>