<svg width="64" height="68" fill="none" xmlns="http://www.w3.org/2000/svg"><path d="M41.828 0C31.21 0 22.57 8.639 22.57 19.258s8.64 19.258 19.258 19.258c10.619 0 19.258-8.64 19.258-19.258C61.086 8.639 52.446 0 41.828 0zM30.802 14.205a5.076 5.076 0 019.302 0 1.992 1.992 0 01-3.65 1.596 1.092 1.092 0 00-2.001 0 1.992 1.992 0 11-3.651-1.596zm21.227 9.892a11.347 11.347 0 01-10.2 6.45 11.347 11.347 0 01-10.201-6.45 1.992 1.992 0 013.598-1.71 7.344 7.344 0 006.602 4.175 7.344 7.344 0 006.602-4.175 1.992 1.992 0 113.599 1.71zm-.202-7.269a1.987 1.987 0 01-2.623-1.027 1.092 1.092 0 00-2.001 0 1.992 1.992 0 11-3.651-1.596 5.076 5.076 0 019.302 0 1.992 1.992 0 01-1.027 2.623z" fill="url(#paint0_linear)"/><path d="M62.225 44.523a4.912 4.912 0 00-2.096-1.592 4.964 4.964 0 00-4.348.309l-8.738 5.045a8.947 8.947 0 01-.434 2.219c-1.502 4.531-6.352 7.042-10.963 5.806l-8.637-2.314a1.992 1.992 0 011.03-3.849l8.77 2.35a4.98 4.98 0 102.578-9.621L26 39.288a9.895 9.895 0 00-7.558.995L1.745 49.922a1.992 1.992 0 00-.73 2.721l8.292 14.36a1.992 1.992 0 002.72.73l7.53-4.347 16.105 1.039a9.93 9.93 0 005.622-1.314L60.76 51.866a4.987 4.987 0 001.464-7.343z" fill="url(#paint1_linear)"/><defs><linearGradient id="paint0_linear" x1="22.57" y1="0" x2="61.301" y2=".218" gradientUnits="userSpaceOnUse"><stop stop-color="#0084FF"/><stop offset="1" stop-color="#1C47D8"/></linearGradient><linearGradient id="paint1_linear" x1=".749" y1="38.944" x2="63.593" y2="39.705" gradientUnits="userSpaceOnUse"><stop stop-color="#0084FF"/><stop offset="1" stop-color="#1C47D8"/></linearGradient></defs></svg>