<svg width="68" height="68" fill="none" xmlns="http://www.w3.org/2000/svg"><path d="M34 33.818c-.51 0-1.02-.194-1.409-.584L17.93 18.572a10.808 10.808 0 01-3.187-7.693c0-2.906 1.132-5.638 3.187-7.693A10.808 10.808 0 0125.62 0c2.906 0 5.638 1.132 7.693 3.186l.686.686.686-.686A10.808 10.808 0 0142.379 0a10.81 10.81 0 017.692 3.186 10.808 10.808 0 013.187 7.693c0 2.906-1.132 5.638-3.187 7.693L35.41 33.234a1.986 1.986 0 01-1.409.584z" fill="url(#paint0_linear)"/><path d="M62.372 10.932a4.91 4.91 0 00-2.427 1.019 4.964 4.964 0 00-1.906 3.92v10.09a8.948 8.948 0 011.705 1.485c3.173 3.567 2.923 9.022-.453 12.397l-6.323 6.324a1.992 1.992 0 01-2.817-2.818l6.42-6.42a4.98 4.98 0 10-7.044-7.043l-9.801 9.801a9.895 9.895 0 00-2.918 7.044v19.277c0 1.1.892 1.992 1.992 1.992h16.583a1.992 1.992 0 001.992-1.992v-8.694l8.952-13.428A9.93 9.93 0 0068 38.361V15.87a4.987 4.987 0 00-5.628-4.94z" fill="url(#paint1_linear)"/><path d="M5.628 10.932a4.91 4.91 0 012.427 1.019 4.964 4.964 0 011.906 3.92v10.09a8.947 8.947 0 00-1.705 1.485c-3.173 3.567-2.923 9.022.453 12.397l6.323 6.324a1.992 1.992 0 102.817-2.818l-6.42-6.42a4.98 4.98 0 117.044-7.043l9.801 9.801a9.895 9.895 0 012.918 7.044v19.277c0 1.1-.892 1.992-1.993 1.992H12.617a1.992 1.992 0 01-1.992-1.992v-8.694L1.673 43.886A9.93 9.93 0 010 38.361V15.87a4.987 4.987 0 015.628-4.94z" fill="url(#paint2_linear)"/><defs><linearGradient id="paint0_linear" x1="14.742" y1="0" x2="53.473" y2=".248" gradientUnits="userSpaceOnUse"><stop stop-color="#0084FF"/><stop offset="1" stop-color="#1C47D8"/></linearGradient><linearGradient id="paint1_linear" x1="36.808" y1="10.891" x2="68.175" y2="10.987" gradientUnits="userSpaceOnUse"><stop stop-color="#0084FF"/><stop offset="1" stop-color="#1C47D8"/></linearGradient><linearGradient id="paint2_linear" x1="0" y1="10.891" x2="31.367" y2="10.987" gradientUnits="userSpaceOnUse"><stop stop-color="#0084FF"/><stop offset="1" stop-color="#1C47D8"/></linearGradient></defs></svg>