<svg width="68" height="68" fill="none" xmlns="http://www.w3.org/2000/svg"><g clip-path="url(#clip0)"><path d="M50.103 18.595a4.482 4.482 0 00-4.482 4.482v-2.656a4.482 4.482 0 10-8.965 0v5.611h.664a5.27 5.27 0 013.756 1.558 5.298 5.298 0 011.557 3.778 11.74 11.74 0 01-.88 4.45 4.482 4.482 0 003.868-4.44 4.482 4.482 0 108.965 0v-8.301a4.482 4.482 0 00-4.483-4.482z" fill="url(#paint0_linear)"/><path d="M34.95.069a4.482 4.482 0 00-5.192 3.636l-3.06 17.352-3.06-17.352a4.482 4.482 0 10-8.828 1.557l3.7 20.988a11.292 11.292 0 012.209-.218h11.953v-5.611c0-3.262 1.856-6.098 4.566-7.511l1.348-7.648A4.482 4.482 0 0034.95.069z" fill="url(#paint1_linear)"/><path d="M45.621 38.555a8.414 8.414 0 01-6.37 1.074l-.015-.001a11.831 11.831 0 01-5.249 3.103 13.912 13.912 0 014.661 10.341c.004 1.081-.844 2.008-1.924 2.044a1.993 1.993 0 01-2.06-1.991c0-4.904-3.562-8.992-8.235-9.811a2.065 2.065 0 01-1.726-2.026c0-1.164.944-2.108 2.109-2.108h4c4.323 0 7.828-3.5 7.836-7.82a1.333 1.333 0 00-1.328-1.344h-16.6a7.305 7.305 0 00-7.305 7.304v6.74a13.63 13.63 0 007.969 12.412V68h27.89V56.274c3.306-2.123 5.313-5.793 5.313-9.79v-7.929a8.414 8.414 0 01-4.483 1.289 8.414 8.414 0 01-4.482-1.289z" fill="url(#paint2_linear)"/></g><defs><linearGradient id="paint0_linear" x1="36.656" y1="15.938" x2="54.686" y2="16.03" gradientUnits="userSpaceOnUse"><stop stop-color="#0084FF"/><stop offset="1" stop-color="#1C47D8"/></linearGradient><linearGradient id="paint1_linear" x1="14.741" y1="0" x2="38.789" y2=".123" gradientUnits="userSpaceOnUse"><stop stop-color="#0084FF"/><stop offset="1" stop-color="#1C47D8"/></linearGradient><linearGradient id="paint2_linear" x1="13.414" y1="30.016" x2="54.816" y2="30.268" gradientUnits="userSpaceOnUse"><stop stop-color="#0084FF"/><stop offset="1" stop-color="#1C47D8"/></linearGradient><clipPath id="clip0"><path fill="#fff" d="M0 0h68v68H0z"/></clipPath></defs></svg>