<svg width="33" height="33" viewBox="0 0 33 33" fill="none" xmlns="http://www.w3.org/2000/svg">
<path d="M28.5531 0H4.44685C1.99097 0 0 1.99088 0 4.44682V28.553C0 31.009 1.99089 32.9998 4.44685 32.9998H16.3359L16.3562 21.2075H13.2925C12.8944 21.2075 12.5712 20.8855 12.5697 20.4874L12.555 16.6862C12.5535 16.2859 12.8776 15.9606 13.2779 15.9606H16.336V12.2877C16.336 8.02534 18.9392 5.70445 22.7415 5.70445H25.8616C26.2608 5.70445 26.5845 6.02809 26.5845 6.42736V9.63252C26.5845 10.0316 26.2611 10.3552 25.862 10.3554L23.9473 10.3563C21.8794 10.3563 21.479 11.3389 21.479 12.7809V15.9607H26.0228C26.4557 15.9607 26.7916 16.3387 26.7406 16.7687L26.2901 20.5698C26.2469 20.9336 25.9385 21.2076 25.5722 21.2076H21.4993L21.479 33H28.5532C31.0091 33 33 31.0091 33 28.5533V4.44682C32.9999 1.99088 31.009 0 28.5531 0Z" fill="white"/>
</svg>
