<svg width="30" height="32" viewBox="0 0 30 32" fill="none" xmlns="http://www.w3.org/2000/svg">
<rect x="0.5" y="0.5" width="29" height="30.6364" fill="white" stroke="#767676"/>
<g clip-path="url(#clip0)">
<path d="M18.4984 23.8182C18.4119 23.8183 18.3289 23.7822 18.2676 23.7178L11.0954 16.1544C10.9682 16.0202 10.9682 15.8026 11.0954 15.6683L18.2676 8.10494C18.3927 7.96838 18.5991 7.96461 18.7286 8.0965C18.8581 8.22842 18.8617 8.44603 18.7366 8.58263C18.734 8.58549 18.7313 8.5883 18.7286 8.59107L11.7872 15.911L18.7292 23.231C18.8567 23.3651 18.857 23.5828 18.7298 23.7172C18.6685 23.782 18.5852 23.8183 18.4984 23.8182Z" fill="black"/>
</g>
<defs>
<clipPath id="clip0">
<rect width="15" height="15.8182" fill="white" transform="translate(8 8)"/>
</clipPath>
</defs>
</svg>
