<svg width="30" height="32" viewBox="0 0 30 32" fill="none" xmlns="http://www.w3.org/2000/svg">
<rect x="0.5" y="0.5" width="29" height="30.6364" fill="white" stroke="#767676"/>
<g clip-path="url(#clip0)">
<path d="M12.1468 8.10163C12.0173 7.96972 11.8109 7.97352 11.6858 8.11008C11.5638 8.24331 11.5638 8.45451 11.6858 8.58772L18.627 15.9082L11.6852 23.2279C11.5557 23.3599 11.5521 23.5775 11.6772 23.7141C11.8023 23.8506 12.0086 23.8544 12.1382 23.7225C12.1409 23.7197 12.1435 23.7169 12.1462 23.7141L19.3182 16.1509C19.4454 16.0167 19.4454 15.799 19.3182 15.6648L12.1468 8.10163Z" fill="#F44336"/>
<path d="M11.9161 23.8141C11.736 23.8144 11.5898 23.6608 11.5895 23.4709C11.5893 23.3794 11.6238 23.2915 11.6853 23.2269L18.6271 15.9071L11.6853 8.58737C11.5578 8.45294 11.5578 8.23501 11.6853 8.10058C11.8127 7.96615 12.0194 7.96615 12.1469 8.10058L19.3188 15.6638C19.4461 15.798 19.4461 16.0156 19.3188 16.1499L12.1469 23.713C12.0857 23.7777 12.0027 23.8141 11.9161 23.8141Z" fill="black"/>
</g>
<defs>
<clipPath id="clip0">
<rect width="15" height="15.8182" fill="white" transform="translate(8 8)"/>
</clipPath>
</defs>
</svg>
