<svg width="8" height="4" fill="none" xmlns="http://www.w3.org/2000/svg"><path d="M4.002 2.656L1.009.109A.475.475 0 00.699 0 .476.476 0 00.39.109L.128.332A.344.344 0 000 .595c0 .1.045.194.128.264L3.69 3.89c.083.07.193.11.31.109a.476.476 0 00.311-.109L7.871.86A.344.344 0 008 .598c0-.1-.045-.193-.128-.263L7.61.112a.494.494 0 00-.619 0l-2.99 2.544z" fill="url(#paint0_linear)"/><defs><linearGradient id="paint0_linear" x1="0" y1="4" x2=".011" y2="-.022" gradientUnits="userSpaceOnUse"><stop stop-color="#0084FF"/><stop offset="1" stop-color="#1C47D8"/></linearGradient></defs></svg>