<svg width="120" height="48" fill="none" xmlns="http://www.w3.org/2000/svg"><path fill-rule="evenodd" clip-rule="evenodd" d="M62.981 24.859a5.787 5.787 0 00-.593.348v-3.554H56v13.58h6.388v-.89c.184.125.377.24.577.345l.013.006.012.007c.91.457 1.902.669 2.943.669 1.046 0 2.042-.21 2.95-.673l.009-.005c.42-.217.806-.478 1.154-.782l-1.002 2.07 1.235.832c.639.43 1.365.726 2.146.918a9.83 9.83 0 002.455.296c1.691 0 3.252-.427 4.428-1.526a4.87 4.87 0 00.99-1.267H85.4v-.187a10.054 10.054 0 002.538.324c.96 0 1.872-.133 2.69-.46.634-.252 1.228-.61 1.709-1.113.11.132.23.258.36.379l.006.005.006.005c.962.871 2.209 1.184 3.489 1.184.474 0 .949-.039 1.406-.137h5.933v-.899c.2.134.41.256.629.367l.009.004c.919.456 1.922.665 2.975.665 1.137 0 2.217-.252 3.163-.836l.043-.027c.529.279 1.13.475 1.763.617.727.164 1.466.246 2.213.246.959 0 1.872-.133 2.69-.46.775-.308 1.491-.776 2.012-1.474.501-.67.773-1.456.773-2.31 0-.907-.243-1.858-.952-2.596L120 25.724l-1.361-.727a6.378 6.378 0 00-1.828-.616 9.62 9.62 0 00-1.942-.196c-.947 0-1.849.135-2.663.46l-.009.003a5.028 5.028 0 00-1.324.774 5.029 5.029 0 00-.56-.4c-.946-.585-2.026-.837-3.163-.837-1.053 0-2.056.21-2.975.666l-.009.004a5.913 5.913 0 00-.618.36 3.39 3.39 0 00.298-1.413 3.1 3.1 0 00-1.096-2.407c-.711-.607-1.572-.824-2.407-.824-.86 0-1.72.245-2.427.87-.384.34-.669.746-.848 1.198h-5.755v1.966a7.461 7.461 0 00-.895-.224 9.626 9.626 0 00-1.943-.196c-.946 0-1.848.135-2.663.46l-.008.003a5.83 5.83 0 00-.222.095c.085-.3.127-.616.127-.94 0-.945-.38-1.794-1.097-2.408-.71-.607-1.571-.824-2.406-.824-.86 0-1.72.245-2.427.87-.708.625-1.076 1.476-1.076 2.416 0 .158.01.313.032.465h-3.228a5.245 5.245 0 00-1.218-.137c-.9 0-1.76.22-2.551.656a4.936 4.936 0 00-1.373 1.104 5.45 5.45 0 00-1.486-1.088c-.907-.462-1.902-.672-2.946-.672-1.041 0-2.033.212-2.943.67l-.009.004zm-1.316 4.912c0-.748.184-1.415.55-1.999a3.766 3.766 0 011.516-1.383c.654-.328 1.388-.492 2.202-.492.823 0 1.556.164 2.2.493a3.67 3.67 0 011.517 1.382 3.62 3.62 0 01.542 1.725c.006.09.008.181.008.274 0 .748-.183 1.419-.55 2.012l-.058.091c-.354.542-.84.972-1.459 1.292-.644.329-1.377.493-2.2.493-.814 0-1.548-.164-2.201-.493a3.916 3.916 0 01-1.517-1.383c-.366-.593-.55-1.264-.55-2.012zm9.704-2.362c-.044.065-.086.13-.126.199-.322.547-.483 1.177-.483 1.889 0 .093.003.184.009.274.036.602.194 1.145.474 1.629l.01.015a3.36 3.36 0 001.377 1.308 3.648 3.648 0 001.66.388c.096 0 .19-.003.281-.009a3.14 3.14 0 00.734-.132 2.185 2.185 0 001.01-.653v.137c0 .511-.138.9-.415 1.164-.277.264-.72.397-1.329.397-.093 0-.186-.004-.282-.011a4.416 4.416 0 01-1.052-.218 3.418 3.418 0 01-1.014-.51l-1.02 2.108a4.5 4.5 0 00.96.483 6.013 6.013 0 00.664.201 8.18 8.18 0 002.053.247c1.431 0 2.532-.36 3.3-1.082.361-.33.64-.736.832-1.218.063-.157.117-.32.162-.493.116-.444.175-.942.175-1.492v-5.996h-2.886v.848a2.124 2.124 0 00-1.169-.848 2.988 2.988 0 00-.508-.108 3.968 3.968 0 00-.497-.03 3.58 3.58 0 00-1.757.452c-.47.256-.858.61-1.163 1.061zm10.837-1.978c-.47 0-.863-.108-1.18-.324a1.736 1.736 0 01-.148-.114 1.631 1.631 0 01-.188-.201 1.413 1.413 0 01-.244-.47 1.626 1.626 0 01-.065-.465c0-.456.165-.83.496-1.123.34-.3.783-.452 1.33-.452.554 0 .997.142 1.328.425.33.283.496.648.496 1.095 0 .186-.026.36-.076.52a1.489 1.489 0 01-.42.657c-.331.302-.774.452-1.329.452zm3.194 1.44c-.094.09-.178.185-.253.285a2.117 2.117 0 00-.429 1.276v.025c0 .611.156 1.081.47 1.41a2.678 2.678 0 00.587.453c.166.093.341.165.526.218.162.042.337.081.525.118a12.71 12.71 0 001.005.155l.174.021c.194.025.356.05.484.074l.022.005c.064.012.12.025.166.037.178.046.268.128.268.247 0 .118-.072.21-.214.273a.913.913 0 01-.194.05l-.008.001a3.52 3.52 0 01-.523.032c-.085 0-.17-.003-.257-.007h-.004a5.884 5.884 0 01-1.613-.332l-.012-.005a3.864 3.864 0 01-.678-.327l-.831 2.04a4.196 4.196 0 00.893.379 7.35 7.35 0 00.695.18c.573.12 1.152.18 1.74.18.814 0 1.507-.114 2.08-.343.572-.228 1.001-.533 1.288-.917.07-.093.131-.19.184-.288a2.05 2.05 0 00.245-.985 2.85 2.85 0 00-.07-.642l-.02-.07a1.625 1.625 0 00-.393-.698 2.41 2.41 0 00-.918-.611l-.028-.01a2.356 2.356 0 00-.154-.05 8.53 8.53 0 00-1.026-.22 14.376 14.376 0 00-.611-.082 6.422 6.422 0 01-.725-.122c-.179-.055-.269-.142-.269-.26 0-.152.136-.256.408-.31l.03-.006a3.18 3.18 0 01.556-.04c.069 0 .137.001.206.004h.002a4.212 4.212 0 011.582.375l.023.01.004.002c.102.048.204.1.303.156l.832-2.04a3.326 3.326 0 00-.135-.068l-.02-.01a4.079 4.079 0 00-.454-.18 5.456 5.456 0 00-.76-.193 8.017 8.017 0 00-1.624-.164c-.796 0-1.48.114-2.053.342-.416.168-.757.38-1.022.633zm6.583-.427h1.007V24.35h3.033v2.094h1.503v2.26h-1.503v1.888c0 .228.058.406.175.534a.588.588 0 00.456.192 1.174 1.174 0 00.684-.205l.725 2.149a2.619 2.619 0 01-.65.26c-.08.021-.165.04-.252.056l-.011.002a4.955 4.955 0 01-.953.079c-1.028 0-1.82-.251-2.375-.753a2.333 2.333 0 01-.544-.76 3.283 3.283 0 01-.263-1.02 4.948 4.948 0 01-.025-.506v-1.917h-1.007v-2.259zm7.22-1.31c.31.198.69.297 1.14.297.555 0 .998-.15 1.329-.452a1.478 1.478 0 00.42-.657c.051-.16.077-.334.077-.52 0-.447-.166-.812-.497-1.095-.331-.283-.774-.425-1.329-.425-.546 0-.988.151-1.328.452a1.43 1.43 0 00-.497 1.123c0 .165.022.32.065.465a1.408 1.408 0 00.244.47c.055.07.118.137.188.201.06.051.122.098.188.14zm4.162 2.638a3.846 3.846 0 011.543-1.383c.662-.328 1.41-.492 2.242-.492.894 0 1.659.196 2.294.588a3.313 3.313 0 01.376.268 3.013 3.013 0 01.939 1.361l-2.348 1.178a2.662 2.662 0 00-.092-.191c-.228-.428-.529-.683-.904-.766a1.294 1.294 0 00-.279-.029c-.358 0-.658.128-.899.383-.233.256-.349.616-.349 1.082 0 .474.116.84.349 1.095.241.256.541.383.899.383.097 0 .19-.01.279-.029.375-.082.676-.337.904-.766.032-.06.063-.123.092-.19l2.348 1.177a2.971 2.971 0 01-.997 1.407 3.667 3.667 0 01-.724.439c-.548.248-1.177.372-1.888.372-.832 0-1.58-.164-2.242-.493a3.847 3.847 0 01-1.543-1.383c-.367-.593-.55-1.264-.55-2.012s.183-1.415.55-1.999zm7.639 5.148c.202.117.437.223.707.317a7.437 7.437 0 00.882.241 8.45 8.45 0 001.739.18c.814 0 1.507-.113 2.08-.342.573-.228 1.002-.533 1.288-.917a2.08 2.08 0 00.43-1.273 2.66 2.66 0 00-.072-.642 1.626 1.626 0 00-.411-.768 2.414 2.414 0 00-1.101-.67 8.535 8.535 0 00-1.026-.22 14.483 14.483 0 00-.611-.083 6.387 6.387 0 01-.724-.122c-.179-.055-.269-.142-.269-.26 0-.152.136-.256.408-.31l.03-.006c.148-.027.333-.04.555-.04.069 0 .138.001.206.004h.003a4.213 4.213 0 011.604.385l.004.002c.103.048.204.1.304.156l.832-2.04a3.956 3.956 0 00-.61-.258 5.712 5.712 0 00-.76-.193 8.023 8.023 0 00-1.623-.164c-.796 0-1.481.114-2.054.342a3.43 3.43 0 00-.848.48 2.383 2.383 0 00-.426.437 2.1 2.1 0 00-.43 1.276v.025c0 .162.011.315.034.457.046.301.142.558.288.77.045.065.094.126.148.183a2.635 2.635 0 00.587.453 2.424 2.424 0 00.658.25 12.125 12.125 0 00.906.174 16.503 16.503 0 00.667.088c.194.025.355.05.483.074l.023.005c.064.012.118.025.165.037.179.046.268.128.268.247 0 .118-.071.21-.214.273a.903.903 0 01-.194.05l-.007.001a3.497 3.497 0 01-.524.032 5 5 0 01-.256-.007h-.004a5.884 5.884 0 01-1.613-.332l-.013-.005a3.859 3.859 0 01-.677-.327l-.832 2.04zM60.71 23.364v10.158h-3.033V23.364h3.033zm19.98 10.158v-7.488h3.032v7.488H80.69zm18.137-7.488v7.488h3.033v-7.488h-3.033z" fill="#fff"/><path d="M67.238 29.767c0 .836-.58 1.514-1.293 1.514-.714 0-1.293-.678-1.293-1.514s.579-1.514 1.293-1.514 1.293.678 1.293 1.514zm9.177-.288a1.293 1.293 0 11-2.585 0 1.293 1.293 0 112.585 0zM9.72 0H0v39.93h26.137L15.23 29.418H9.72V0z" fill="#fff"/><path d="M37.802 47.424L18.47 29.417 37.802 11.52h15.121l-18.9 17.896 18.9 18.007h-15.12zM22.292 5.01c0 2.768-2.167 5.012-4.839 5.012-2.672 0-4.839-2.244-4.839-5.011C12.614 2.243 14.781 0 17.453 0c2.672 0 4.839 2.243 4.839 5.01z" fill="#fff"/><path d="M50.795 29.342c0 2.767-2.167 5.01-4.84 5.01-2.671 0-4.838-2.243-4.838-5.01s2.167-5.01 4.839-5.01c2.672 0 4.839 2.242 4.839 5.01z" fill="#fff"/><path fill-rule="evenodd" clip-rule="evenodd" d="M11.602 27.011V11.547h22.47L17.245 27.01h-5.643z" fill="#fff"/><path d="M1.387 46.306h2.414v1.042H0v-5.62h1.387v4.578zM9.1 47.348H7.718v-5.62H9.1v5.62zm6.158-2.092l-.569.61v1.482h-1.387v-5.62h1.387v2.478l.482-.714 1.241-1.764h1.715l-1.944 2.486 1.944 3.134h-1.644l-1.225-2.092zm11.204-.602c0 .548-.105 1.033-.313 1.455a2.282 2.282 0 01-.889.976 2.51 2.51 0 01-1.308.34c-.49 0-.924-.11-1.304-.328a2.296 2.296 0 01-.889-.946 3.187 3.187 0 01-.332-1.408v-.317c0-.55.103-1.035.308-1.455.209-.422.505-.747.89-.976a2.544 2.544 0 011.32-.344c.487 0 .921.114 1.303.34.382.226.679.55.89.969.213.416.32.895.323 1.435v.259zm-1.411-.236c0-.558-.096-.981-.289-1.27a.918.918 0 00-.818-.435c-.695 0-1.063.51-1.102 1.528l-.004.413c0 .55.093.974.28 1.27.188.295.465.443.834.443.35 0 .62-.145.81-.436.19-.29.286-.709.289-1.254v-.259z" fill="#fff"/></svg>