<svg width="20" height="17" fill="none" xmlns="http://www.w3.org/2000/svg"><path d="M.328 8.255l4.65 2.367c.18.091.393.085.565-.018l4.14-2.458-2.506 2.268a.614.614 0 00-.2.455v5.524c0 .583.728.828 1.07.365l2.01-2.73 4.97 2.892a.592.592 0 00.877-.408L19.005.728c.093-.474-.37-.861-.799-.685L.377 7.146c-.478.191-.51.875-.049 1.109zm17.298-6.677L14.901 15.45l-4.71-2.74a.587.587 0 00-.77.162l-1.256 1.705v-3.435l6.776-6.132c.536-.485-.08-1.347-.693-.98L5.223 9.39 2.06 7.78l15.566-6.2z" fill="#0087B3"/></svg>