<svg width="16" height="17" fill="none" xmlns="http://www.w3.org/2000/svg"><path d="M15.41 9.842c.507-4.266-.243-6.959-1.596-8.177-2.183-2.08-9.56-2.388-12.172.093C.469 2.972.055 4.753.01 6.958c-.045 2.206-.099 6.339 3.752 7.46h.003l-.003 1.712s-.027.693.416.832c.507.165.736-.157 2.313-2.04 2.635.229 4.66-.295 4.89-.371.531-.179 3.543-.577 4.03-4.71zm-8.66 3.876s-1.668 2.08-2.187 2.62c-.17.175-.356.159-.353-.19 0-.228.013-2.841.013-2.841C.958 12.37 1.151 8.851 1.186 7.01c.036-1.841.373-3.35 1.366-4.365C4.844.497 11.311.977 12.958 2.526c2.014 1.786 1.297 6.83 1.302 7.002-.414 3.45-2.854 3.668-3.303 3.817-.192.064-1.972.522-4.207.373z" fill="#0087B3"/><path d="M7.673 3.05c-.272 0-.272.425 0 .429 2.114.016 3.855 1.49 3.874 4.192 0 .285.418.282.414-.004-.023-2.912-1.924-4.6-4.288-4.617z" fill="#0087B3"/><path d="M10.454 7.223c-.007.282.41.295.414.01.034-1.606-.956-2.929-2.816-3.068-.273-.02-.301.408-.03.428 1.614.123 2.464 1.224 2.432 2.63zm-.446 1.827c-.35-.203-.706-.077-.853.122l-.308.398c-.156.203-.448.176-.448.176C6.265 9.182 5.695 6.95 5.695 6.95s-.026-.302.17-.464l.384-.319c.193-.153.314-.52.118-.882-.523-.947-.875-1.273-1.054-1.523-.188-.236-.471-.29-.766-.13h-.006C3.929 3.99 3.258 4.66 3.473 5.35c.366.728 1.038 3.047 3.181 4.8 1.007.828 2.6 1.677 3.277 1.873l.007.01c.666.223 1.315-.474 1.66-1.104v-.005c.154-.305.103-.594-.12-.783-.399-.388-.999-.816-1.47-1.091z" fill="#0087B3"/><path d="M8.343 5.745c.68.04 1.01.395 1.046 1.124.012.285.426.266.414-.02-.046-.952-.542-1.483-1.437-1.533-.272-.016-.298.412-.023.429z" fill="#0087B3"/></svg>