<svg width="17" height="17" fill="none" xmlns="http://www.w3.org/2000/svg"><path d="M14.488 2.469A8.438 8.438 0 008.5 0a8.48 8.48 0 00-5.998 2.467A8.336 8.336 0 000 8.42v.004a8.38 8.38 0 001.035 3.98L.023 17l4.654-1.057a8.525 8.525 0 003.82.906H8.5a8.481 8.481 0 005.997-2.467A8.326 8.326 0 0017 8.428c0-2.23-.891-4.346-2.512-5.96zM8.5 15.523h-.003a7.193 7.193 0 01-3.413-.865l-.22-.119-3.094.703.672-3.051-.13-.224c-.643-1.11-.984-2.335-.984-3.543.003-3.911 3.22-7.097 7.171-7.097 1.91 0 3.704.74 5.052 2.082 1.368 1.362 2.121 3.144 2.12 5.018 0 3.913-3.218 7.096-7.171 7.096z" fill="#0087B3"/><path d="M6.187 4.71h-.373c-.13 0-.34.049-.518.242-.178.194-.68.663-.68 1.615 0 .953.696 1.873.793 2.002.097.13 1.345 2.146 3.321 2.922 1.643.645 1.977.517 2.333.485.357-.032 1.15-.468 1.313-.92.162-.452.162-.84.113-.92-.048-.081-.178-.13-.373-.227-.194-.097-1.147-.573-1.325-.638-.178-.064-.308-.096-.438.098-.13.193-.511.64-.625.77-.113.13-.226.146-.42.049-.195-.098-.815-.306-1.558-.965-.578-.513-.98-1.168-1.093-1.361-.113-.194-.012-.299.086-.395.087-.087.205-.206.302-.319.098-.113.125-.193.19-.323.065-.129.032-.242-.016-.339-.049-.096-.422-1.054-.595-1.437-.145-.322-.299-.333-.437-.339z" fill="#0087B3"/></svg>