<svg width="25" height="26" viewBox="0 0 25 26" fill="none" xmlns="http://www.w3.org/2000/svg">
<ellipse cx="12" cy="12.5375" rx="10" ry="10.6567" fill="black"/>
<path d="M15.2175 12.7874C15.2175 14.2882 14.0009 15.5048 12.5001 15.5048C10.9993 15.5048 9.78271 14.2882 9.78271 12.7874C9.78271 11.2866 10.9993 10.0701 12.5001 10.0701C14.0009 10.0701 15.2175 11.2866 15.2175 12.7874Z" fill="white"/>
<path d="M18.1849 8.48969C18.0681 8.17307 17.8817 7.88647 17.6395 7.65123C17.4042 7.40902 17.1178 7.22261 16.801 7.10576C16.544 7.00597 16.158 6.88719 15.4471 6.85482C14.678 6.81975 14.4474 6.81219 12.5003 6.81219C10.5531 6.81219 10.3225 6.81956 9.55359 6.85463C8.84263 6.88719 8.45643 7.00597 8.19968 7.10576C7.88286 7.22261 7.59626 7.40902 7.36121 7.65123C7.11899 7.88647 6.93258 8.17287 6.81554 8.48969C6.71575 8.74664 6.59696 9.13283 6.5646 9.84378C6.52953 10.6127 6.52197 10.8433 6.52197 12.7905C6.52197 14.7375 6.52953 14.9681 6.5646 15.7372C6.59696 16.4482 6.71575 16.8342 6.81554 17.0911C6.93258 17.4079 7.1188 17.6943 7.36102 17.9296C7.59626 18.1718 7.88266 18.3582 8.19949 18.475C8.45643 18.575 8.84263 18.6938 9.55359 18.7262C10.3225 18.7612 10.5529 18.7686 12.5001 18.7686C14.4476 18.7686 14.6782 18.7612 15.4469 18.7262C16.1578 18.6938 16.544 18.575 16.801 18.475C17.437 18.2297 17.9396 17.7271 18.1849 17.0911C18.2847 16.8342 18.4035 16.4482 18.4361 15.7372C18.4711 14.9681 18.4785 14.7375 18.4785 12.7905C18.4785 10.8433 18.4711 10.6127 18.4361 9.84378C18.4037 9.13283 18.2849 8.74664 18.1849 8.48969ZM12.5003 16.5348C10.4322 16.5348 8.75562 14.8584 8.75562 12.7903C8.75562 10.7222 10.4322 9.04582 12.5003 9.04582C14.5683 9.04582 16.2449 10.7222 16.2449 12.7903C16.2449 14.8584 14.5683 16.5348 12.5003 16.5348ZM16.3929 9.77286C15.9096 9.77286 15.5178 9.38105 15.5178 8.89778C15.5178 8.41451 15.9096 8.0227 16.3929 8.0227C16.8762 8.0227 17.268 8.41451 17.268 8.89778C17.2678 9.38105 16.8762 9.77286 16.3929 9.77286Z" fill="white"/>
<path d="M12.5 0.289551C5.5975 0.289551 0 5.88705 0 12.7896C0 19.6921 5.5975 25.2896 12.5 25.2896C19.4025 25.2896 25 19.6921 25 12.7896C25 5.88705 19.4025 0.289551 12.5 0.289551ZM19.6344 15.7488C19.5997 16.5129 19.4782 17.0345 19.3008 17.4912C18.928 18.4553 18.1658 19.2175 17.2016 19.5904C16.7452 19.7678 16.2233 19.8891 15.4594 19.924C14.694 19.9589 14.4495 19.9673 12.5002 19.9673C10.5507 19.9673 10.3064 19.9589 9.54075 19.924C8.77686 19.8891 8.255 19.7678 7.79858 19.5904C7.31945 19.4101 6.88572 19.1277 6.52714 18.7624C6.16207 18.404 5.87959 17.9701 5.69935 17.4912C5.52197 17.0347 5.40047 16.5129 5.36575 15.749C5.33047 14.9834 5.32227 14.7389 5.32227 12.7896C5.32227 10.8402 5.33047 10.5957 5.36556 9.8303C5.40028 9.06622 5.52158 8.54456 5.69897 8.08794C5.87921 7.609 6.16188 7.17508 6.52714 6.81669C6.88553 6.45143 7.31945 6.16895 7.79839 5.98871C8.255 5.81133 8.77666 5.69002 9.54075 5.65511C10.3062 5.62021 10.5507 5.61182 12.5 5.61182C14.4493 5.61182 14.6938 5.62021 15.4593 5.6553C16.2233 5.69002 16.745 5.81133 17.2016 5.98852C17.6805 6.16876 18.1145 6.45143 18.4731 6.81669C18.8381 7.17527 19.1208 7.609 19.3008 8.08794C19.4784 8.54456 19.5997 9.06622 19.6346 9.8303C19.6695 10.5957 19.6777 10.8402 19.6777 12.7896C19.6777 14.7389 19.6695 14.9834 19.6344 15.7488Z" fill="white"/>
</svg>
