<svg width="77" height="78" viewBox="0 0 77 78" fill="none" xmlns="http://www.w3.org/2000/svg">
<ellipse cx="38" cy="39.5" rx="29" ry="29.5" fill="black"/>
<path d="M46 39.5C46 43.6422 42.6422 47 38.5 47C34.3578 47 31 43.6422 31 39.5C31 35.3578 34.3578 32 38.5 32C42.6422 32 46 35.3578 46 39.5Z" fill="white"/>
<path d="M56.0915 26.1911C55.7299 25.2113 55.1531 24.3244 54.4035 23.5965C53.6756 22.8469 52.7893 22.2701 51.8089 21.9085C51.0137 21.5996 49.8192 21.2321 47.6191 21.1319C45.2391 21.0234 44.5256 21 38.5003 21C32.4745 21 31.7609 21.0228 29.3815 21.1313C27.1814 21.2321 25.9863 21.5996 25.1917 21.9085C24.2113 22.2701 23.3244 22.8469 22.5971 23.5965C21.8475 24.3244 21.2707 25.2107 20.9085 26.1911C20.5996 26.9863 20.2321 28.1814 20.1319 30.3815C20.0234 32.7609 20 33.4745 20 39.5003C20 45.5256 20.0234 46.2391 20.1319 48.6191C20.2321 50.8192 20.5996 52.0137 20.9085 52.8089C21.2707 53.7893 21.8469 54.6756 22.5965 55.4035C23.3244 56.1531 24.2107 56.7299 25.1911 57.0915C25.9863 57.401 27.1814 57.7685 29.3815 57.8687C31.7609 57.9772 32.4739 58 38.4997 58C44.5261 58 45.2397 57.9772 47.6185 57.8687C49.8186 57.7685 51.0137 57.401 51.8089 57.0915C53.7769 56.3324 55.3324 54.7769 56.0915 52.8089C56.4004 52.0137 56.7679 50.8192 56.8687 48.6191C56.9772 46.2391 57 45.5256 57 39.5003C57 33.4745 56.9772 32.7609 56.8687 30.3815C56.7685 28.1814 56.401 26.9863 56.0915 26.1911ZM38.5003 51.0873C32.1003 51.0873 26.9121 45.8997 26.9121 39.4997C26.9121 33.0997 32.1003 27.9121 38.5003 27.9121C44.8997 27.9121 50.0879 33.0997 50.0879 39.4997C50.0879 45.8997 44.8997 51.0873 38.5003 51.0873ZM50.546 30.162C49.0505 30.162 47.838 28.9495 47.838 27.454C47.838 25.9585 49.0505 24.746 50.546 24.746C52.0415 24.746 53.254 25.9585 53.254 27.454C53.2534 28.9495 52.0415 30.162 50.546 30.162Z" fill="white"/>
<path d="M38.5 0C17.2403 0 0 17.4642 0 39C0 60.5358 17.2403 78 38.5 78C59.7597 78 77 60.5358 77 39C77 17.4642 59.7597 0 38.5 0ZM60.4741 48.2329C60.3671 50.6168 59.9929 52.2444 59.4466 53.669C58.2981 56.6772 55.9506 59.0552 52.981 60.2186C51.5752 60.7721 49.9679 61.1505 47.6151 61.2594C45.2576 61.3683 44.5045 61.3945 38.5006 61.3945C32.4961 61.3945 31.7436 61.3683 29.3855 61.2594C27.0327 61.1505 25.4254 60.7721 24.0196 60.2186C22.5439 59.6563 21.208 58.7749 20.1036 57.6353C18.9792 56.5172 18.1091 55.1633 17.554 53.669C17.0077 52.245 16.6334 50.6168 16.5265 48.2335C16.4178 45.8448 16.3926 45.0818 16.3926 39C16.3926 32.9182 16.4178 32.1552 16.5259 29.7671C16.6329 27.3832 17.0065 25.7556 17.5528 24.331C18.108 22.8367 18.9786 21.4828 20.1036 20.3647C21.2074 19.2251 22.5439 18.3437 24.019 17.7814C25.4254 17.2279 27.0321 16.8495 29.3855 16.7406C31.743 16.6317 32.4961 16.6055 38.5 16.6055C44.5039 16.6055 45.257 16.6317 47.6145 16.7411C49.9679 16.8495 51.5746 17.2279 52.981 17.7808C54.4561 18.3431 55.7926 19.2251 56.897 20.3647C58.0214 21.4834 58.892 22.8367 59.4466 24.331C59.9935 25.7556 60.3671 27.3832 60.4747 29.7671C60.5822 32.1552 60.6074 32.9182 60.6074 39C60.6074 45.0818 60.5822 45.8448 60.4741 48.2329Z" fill="black"/>
</svg>
