<svg width="77" height="78" viewBox="0 0 77 78" fill="none" xmlns="http://www.w3.org/2000/svg">
<path d="M33 46L46 39L33 32V46Z" fill="black"/>
<path d="M38.5 0C17.2403 0 0 17.4642 0 39C0 60.5358 17.2403 78 38.5 78C59.7597 78 77 60.5358 77 39C77 17.4642 59.7597 0 38.5 0ZM62.5566 39.0399C62.5566 39.0399 62.5566 46.9492 61.5662 50.7632C61.011 52.8508 59.3861 54.4968 57.3253 55.0586C53.5602 56.0625 38.5 56.0625 38.5 56.0625C38.5 56.0625 23.4791 56.0625 19.6747 55.0187C17.6139 54.4569 15.989 52.8103 15.4338 50.7227C14.4428 46.9492 14.4428 39 14.4428 39C14.4428 39 14.4428 31.0912 15.4338 27.2773C15.9884 25.1897 17.6533 23.5032 19.6747 22.9414C23.4398 21.9375 38.5 21.9375 38.5 21.9375C38.5 21.9375 53.5602 21.9375 57.3253 22.9813C59.3861 23.5431 61.011 25.1897 61.5662 27.2773C62.5966 31.0912 62.5566 39.0399 62.5566 39.0399Z" fill="black"/>
</svg>
