<svg width="69" height="69" fill="none" xmlns="http://www.w3.org/2000/svg"><g clip-path="url(#clip0)" fill="#fff"><path d="M37.461 5.376L5.865.575a5.095 5.095 0 00-4.083 1.121C.662 2.674 0 4.083 0 5.55v60.576A2.883 2.883 0 002.875 69h9.344V53.906a5.018 5.018 0 015.031-5.031h7.188a5.018 5.018 0 015.03 5.031V69h12.22V10.35a5.034 5.034 0 00-4.227-4.974zm-21.648 37.03H11.5a2.157 2.157 0 010-4.312h4.313a2.157 2.157 0 010 4.312zm0-8.625H11.5a2.157 2.157 0 010-4.312h4.313a2.157 2.157 0 010 4.312zm0-8.625H11.5a2.157 2.157 0 010-4.312h4.313a2.157 2.157 0 010 4.312zm0-8.625H11.5a2.157 2.157 0 010-4.312h4.313a2.157 2.157 0 010 4.312zm14.374 25.875h-4.312a2.157 2.157 0 010-4.312h4.313a2.157 2.157 0 010 4.312zm0-8.625h-4.312a2.157 2.157 0 010-4.312h4.313a2.157 2.157 0 010 4.312zm0-8.625h-4.312a2.157 2.157 0 010-4.312h4.313a2.157 2.157 0 010 4.312zm0-8.625h-4.312a2.157 2.157 0 010-4.312h4.313a2.157 2.157 0 010 4.312zM65.032 31.17l-20.47-4.286V69H63.97A5.037 5.037 0 0069 63.969V36.087c0-2.375-1.619-4.396-3.968-4.916zM58.22 60.376h-4.313a2.157 2.157 0 010-4.313h4.313a2.157 2.157 0 010 4.313zm0-8.625h-4.313a2.157 2.157 0 010-4.313h4.313a2.157 2.157 0 010 4.313zm0-8.625h-4.313a2.157 2.157 0 010-4.313h4.313a2.157 2.157 0 010 4.313z"/></g><defs><clipPath id="clip0"><rect width="69" height="69" rx="15" fill="#fff"/></clipPath></defs></svg>