<svg width="87" height="87" fill="none" xmlns="http://www.w3.org/2000/svg"><g clip-path="url(#clip0)" fill="#323232"><path d="M75.612 58V44.95c.8 0 1.45-.65 1.45-1.45v-3.328a10.066 10.066 0 01-5.8 0V43.5c0 .8.65 1.45 1.45 1.45V58h2.9zm-63.8-39.15c0-8.794 7.156-15.95 15.95-15.95h5.344A10.196 10.196 0 0135.172 0h-7.41C17.37 0 8.912 8.456 8.912 18.85v1.58a19.023 19.023 0 012.9-1.535v-.045zm58 42.05h-2.9v2.9h2.9v3.75l-2.9 2.9v12.2a4.355 4.355 0 004.35 4.35h5.8a4.355 4.355 0 004.35-4.35v-12.2l-2.9-2.9V63.8h2.9v-2.9h-11.6zm10.562-11.172l4.35-4.35 2.05 2.05-4.35 4.351-2.05-2.05zm0 4.951l2.05-2.05 4.35 4.35-2.05 2.05-4.35-4.35zm-18.848-7.252l2.05-2.05 4.351 4.35-2.05 2.05-4.35-4.35zm-.001 9.549l4.35-4.35 2.05 2.05-4.35 4.35-2.05-2.05zM32.112 60.9h3.593a12.973 12.973 0 002.207-7.25V43.5h-17.4v5.8h-4.35a4.355 4.355 0 00-4.35 4.35 4.355 4.355 0 004.35 4.35h4.35v8.7h4.35c3.098 0 5.944-1.09 8.184-2.9h-.934a5.806 5.806 0 01-5.8-5.8h2.9c0 1.6 1.301 2.9 2.9 2.9zm-14.075-4.775l-2.9-2.9 2.05-2.05 2.9 2.9-2.05 2.05zm8.275-5.375a4.355 4.355 0 014.35-4.35 4.355 4.355 0 014.35 4.35v1.45h-2.9v-1.45c0-.799-.65-1.45-1.45-1.45-.799 0-1.45.651-1.45 1.45v1.45h-2.9v-1.45zm2.9 24.65v-5.8c0-.22.03-.432.076-.638-1.214.35-2.487.555-3.8.606.511.864.824 1.858.824 2.932v2.9h2.9z"/><path d="M17.612 60.9h-1.45c-3.997 0-7.25-3.252-7.25-7.25s3.253-7.25 7.25-7.25h1.45v-2.9h-14.5v7.25c0 8.306 6.383 15.14 14.5 15.876V60.9zm1.45-29c-1.888 0-3.483 1.217-4.083 2.9h11.065c-.6-1.683-2.195-2.9-4.083-2.9h-2.899zm-4.35 40.6c0-.558.08-1.1.228-1.611a7.244 7.244 0 00-3.128 5.961v7.25h4.353a7.22 7.22 0 01-1.453-4.35V72.5z"/><path d="M29.066 34.8h2.93c-.707-4.911-4.931-8.7-10.034-8.7h-2.9c-5.102 0-9.326 3.789-10.034 8.7h2.93c.675-3.304 3.603-5.8 7.104-5.8h2.9c3.5 0 6.43 2.495 7.104 5.8zm52.346-4.35V17.4h-14.5v13.05c0 3.998 3.253 7.25 7.25 7.25 3.998 0 7.25-3.252 7.25-7.25zm-7.25 2.9a2.9 2.9 0 110-5.8 2.9 2.9 0 110 5.8z"/><path d="M19.062 23.2h2.9c6.705 0 12.24 5.085 12.965 11.6h2.912c-.736-8.117-7.571-14.5-15.877-14.5h-2.9c-8.305 0-15.14 6.383-15.876 14.5h2.912c.725-6.515 6.26-11.6 12.964-11.6zm13.43-13.237l-9.37 7.496c5.551.341 10.452 3.082 13.68 7.208l3.33-7.495a10.176 10.176 0 01-7.64-7.21zm9.77 4.537c3.998 0 7.25-3.252 7.25-7.25S46.26 0 42.262 0c-3.997 0-7.25 3.252-7.25 7.25s3.253 7.25 7.25 7.25zm0-10.15a2.9 2.9 0 110 5.8 2.9 2.9 0 110-5.8zM.212 37.7h40.602v2.9H.212v-2.9zm23.2 34.8c0-1.6-1.3-2.9-2.9-2.9-1.599 0-2.9 1.3-2.9 2.9v7.25a4.355 4.355 0 004.35 4.35h10.15v-5.8h-8.7v-5.8zm25.941-58h33.51c.798 0 1.45-.651 1.45-1.45v-8.7c0-.799-.652-1.45-1.45-1.45H51.418c.63 1.32.993 2.791.993 4.35a10.11 10.11 0 01-3.06 7.25zm23.36-8.7h2.9v5.8h-2.9V5.8zm-5.8 0h2.9v5.8h-2.9V5.8zm-5.8 0h2.9v5.8h-2.9V5.8zm-5.8 0h2.9v5.8h-2.9V5.8zM37.912 78.3h-2.9v5.8h2.9c1.6 0 2.9-1.3 2.9-2.9 0-1.6-1.3-2.9-2.9-2.9zm-5.8-2.9h5.8a5.74 5.74 0 012.9.806V69.6h-8.7v5.8zM45.586 29c-1.95 0-3.902-.461-5.648-1.332l-1.721-.86a18.727 18.727 0 011.78 4.035 15.6 15.6 0 005.589 1.058c8.214 0 14.942-6.417 15.474-14.5h-2.9C57.635 23.883 52.202 29 45.586 29z"/></g><defs><clipPath id="clip0"><rect width="87" height="87" rx="15" fill="#fff"/></clipPath></defs></svg>