<svg width="69" height="69" fill="none" xmlns="http://www.w3.org/2000/svg"><path d="M43.413 24.198V4.043h2.174a2.022 2.022 0 000-4.043H23.413a2.022 2.022 0 000 4.043h2.173v20.156L19.4 37.933h10.658a8.38 8.38 0 011.401-1.853 8.283 8.283 0 015.896-2.442c2.227 0 4.32.868 5.895 2.443a8.375 8.375 0 011.4 1.852h4.952l-6.188-13.735zm.045 34.637a2.77 2.77 0 10-.886-5.467 2.77 2.77 0 00.886 5.467z" fill="#323232"/><path d="M60.07 61.17l-8.648-19.194h-9.774a4.294 4.294 0 10-8.59 0h-15.48L8.93 61.17C7.276 64.843 9.962 69 13.99 69h41.02c4.028 0 6.715-4.157 5.06-7.83zM25.408 51.123a2.043 2.043 0 01-1.995 1.7c-.817 0-1.57-.513-1.875-1.269a2.041 2.041 0 01.481-2.217 2.04 2.04 0 012.325-.33 2.038 2.038 0 011.064 2.116zm4.286 8.211a2.043 2.043 0 01-1.97 1.575 2.04 2.04 0 01-1.89-1.309 2.04 2.04 0 01.55-2.227 2.04 2.04 0 012.399-.206 2.037 2.037 0 01.911 2.167zm13.324 3.59a6.82 6.82 0 01-6.813-6.814 6.82 6.82 0 016.813-6.813 6.82 6.82 0 016.812 6.813 6.82 6.82 0 01-6.812 6.813z" fill="#323232"/></svg>