<svg viewBox="0 -16 512 512" xmlns="http://www.w3.org/2000/svg"><path d="M467 0H45C20.187 0 0 20.188 0 45v300c0 24.813 20.188 45 45 45h130.188l-20 60H106c-8.285 0-15 6.715-15 15s6.715 15 15 15h300c8.285 0 15-6.715 15-15s-6.715-15-15-15h-49.188l-20-60H467c24.813 0 45-20.188 45-45V45c0-24.813-20.188-45-45-45zM186.812 450l20-60h98.375l20 60zM482 345c0 8.27-6.73 15-15 15H45c-8.27 0-15-6.73-15-15v-15h452zM163.578 213.79l-13.644-13.642 21.21-21.214 13.645 13.644a14.999 14.999 0 0018.227 2.313c8.43-4.97 17.43-8.715 26.746-11.13A14.995 14.995 0 00241 169.243V150h30v19.242a14.995 14.995 0 0011.238 14.52c9.313 2.414 18.313 6.16 26.742 11.133a15.005 15.005 0 0018.227-2.317l13.645-13.644 21.214 21.214-13.644 13.645a14.994 14.994 0 00-2.313 18.223c4.973 8.433 8.715 17.433 11.13 26.746A14.995 14.995 0 00371.757 270H391v30h-61.516c1-4.914 1.516-9.941 1.516-15 0-41.355-33.645-75-75-75s-75 33.645-75 75c0 5.059.516 10.086 1.516 15H121v-30h19.242a15.003 15.003 0 0014.524-11.238c2.41-9.313 6.156-18.313 11.125-26.746a15.006 15.006 0 00-2.313-18.227zM301 285c0 5.137-.89 10.21-2.578 15h-84.844A45.163 45.163 0 01211 285c0-24.813 20.188-45 45-45s45 20.188 45 45zm181 15h-61v-45c0-8.285-6.715-15-15-15h-23.172a134.541 134.541 0 00-5.348-12.844l16.407-16.402c5.855-5.86 5.855-15.356-.004-21.215l-42.426-42.426a14.999 14.999 0 00-10.605-4.39 14.999 14.999 0 00-10.606 4.39l-16.402 16.407A133.508 133.508 0 00301 158.176V135c0-8.285-6.715-15-15-15h-60c-8.285 0-15 6.715-15 15v23.176a133.508 133.508 0 00-12.844 5.344l-16.402-16.407a15.008 15.008 0 00-21.215 0l-42.422 42.426c-5.86 5.86-5.86 15.356 0 21.215l16.403 16.406a134.023 134.023 0 00-5.344 12.84H106c-8.285 0-15 6.719-15 15v45H30V45c0-8.27 6.73-15 15-15h422c8.27 0 15 6.73 15 15zm0 0"/><path d="M406 60c-24.813 0-45 20.188-45 45s20.188 45 45 45 45-20.188 45-45-20.188-45-45-45zm0 60c-8.27 0-15-6.73-15-15s6.73-15 15-15 15 6.73 15 15-6.73 15-15 15zm0 0"/></svg>