<svg xmlns="http://www.w3.org/2000/svg" fill="#d67456" data-name="Layer 1" viewBox="0 0 64 64" width="512" height="512"><path d="M61 48h-1V12a1 1 0 00-1-1H5a1 1 0 00-1 1v36H3a1 1 0 00-1 1v2a3 3 0 003 3h54a3 3 0 003-3v-2a1 1 0 00-1-1zM6 13h52v35h-7.026A4.948 4.948 0 0052 45v-3.438a16.355 16.355 0 012.607-8.762A8.993 8.993 0 0053 21.293a9 9 0 00-14.891 5.27A9.427 9.427 0 0038 28.145V28a1 1 0 00-1-1h-2.387a11.831 11.831 0 00-1.277-3.093l1.685-1.685a1 1 0 000-1.414l-2.829-2.829a1 1 0 00-1.414 0l-1.685 1.686A11.834 11.834 0 0026 18.387V16a1 1 0 00-1-1h-4a1 1 0 00-1 1v2.387a11.834 11.834 0 00-3.093 1.278l-1.685-1.686a1 1 0 00-1.414 0l-2.829 2.829a1 1 0 000 1.414l1.685 1.685A11.831 11.831 0 0011.387 27H9a1 1 0 00-1 1v4a1 1 0 001 1h2.387a11.831 11.831 0 001.277 3.093l-1.685 1.685a1 1 0 000 1.414l2.829 2.829a1 1 0 001.414 0l1.685-1.686A11.834 11.834 0 0020 41.613V44a1 1 0 001 1h4a1 1 0 001-1v-2.387a11.834 11.834 0 003.093-1.278l1.685 1.686a1 1 0 001.414 0l2.829-2.829a1 1 0 000-1.414l-1.685-1.685A11.831 11.831 0 0034.613 33H37a1 1 0 001-1v-3.828a8.87 8.87 0 001.294 4.473A17.179 17.179 0 0142 41.566V45a4.948 4.948 0 001.026 3H6zm45.707 16.293l-1-1a1 1 0 00-1.023-.242l-2.684.9-2.684-.9a1 1 0 00-1.023.242l-1 1a1 1 0 00-.188 1.154L44 34.236V41h-.01a19.365 19.365 0 00-2.985-9.392 6.959 6.959 0 01-.917-4.737 7.049 7.049 0 016.112-5.826 7 7 0 016.721 10.688A18.406 18.406 0 0050.009 41H50v-6.764l1.9-3.789a1 1 0 00-.193-1.154zM44 44v-1h6v1zm5.816 2a2.982 2.982 0 01-5.632 0zM45.9 33.553L44.217 30.2l.054-.053 2.413.805a1 1 0 00.632 0l2.413-.805.054.053-1.678 3.356A1 1 0 0048 34v7h-2v-7a1 1 0 00-.1-.447zm-14.546 3.386l1.546 1.546-1.415 1.415-1.547-1.545a1 1 0 00-1.274-.117 9.881 9.881 0 01-3.845 1.589 1 1 0 00-.819.983V43h-2v-2.19a1 1 0 00-.819-.984 9.881 9.881 0 01-3.845-1.589 1 1 0 00-1.274.117L14.515 39.9 13.1 38.485l1.545-1.546a1 1 0 00.117-1.274 9.892 9.892 0 01-1.589-3.846A1 1 0 0012.19 31H10v-2h2.19a1 1 0 00.984-.819 9.892 9.892 0 011.589-3.846 1 1 0 00-.117-1.274L13.1 21.515l1.415-1.415 1.547 1.545a1 1 0 001.274.117 9.881 9.881 0 013.845-1.589A1 1 0 0022 19.19V17h2v2.19a1 1 0 00.819.984 9.881 9.881 0 013.845 1.589 1 1 0 001.274-.117l1.547-1.546 1.415 1.415-1.545 1.546a1 1 0 00-.117 1.274 9.892 9.892 0 011.589 3.846 1 1 0 00.983.819H36v2h-2.19a1 1 0 00-.984.819 9.892 9.892 0 01-1.589 3.846 1 1 0 00.117 1.274zM60 51a1 1 0 01-1 1H5a1 1 0 01-1-1v-1h56z"/><path d="M23 22a8 8 0 108 8 8.009 8.009 0 00-8-8zm0 14a6 6 0 116-6 6.006 6.006 0 01-6 6z"/><path d="M23 26a4 4 0 104 4 4 4 0 00-4-4zm0 6a2 2 0 112-2 2 2 0 01-2 2zm6.611 13.667l.778 1.842a19.131 19.131 0 002.111-1.051l-1-1.732a16.852 16.852 0 01-1.889.941zm4.075-2.444l1.257 1.555a19.191 19.191 0 005.081-6.333l-1.791-.89a17.187 17.187 0 01-4.547 5.668zM46 14h2v4h-2zm5.168 4.445l2-3 1.664 1.109-2 3zm-12-1.89l1.664-1.11 2 3-1.664 1.11z"/></svg>