<svg xmlns="http://www.w3.org/2000/svg" fill="#d67456" width="512" height="512"><path d="M476 64H36A28.031 28.031 0 008 92v304a28.031 28.031 0 0028 28h153.39l-11.42 40H144a8 8 0 00-8 8v24a8 8 0 008 8h224a8 8 0 008-8v-24a8 8 0 00-8-8h-33.97l-11.42-40H476a28.031 28.031 0 0028-28V92a28.031 28.031 0 00-28-28zM360 480v8H152v-8zm-165.39-16l11.42-40h99.94l11.42 40zM488 396a12.01 12.01 0 01-12 12H36a12.01 12.01 0 01-12-12v-20h464zm0-36H24V92a12.01 12.01 0 0112-12h440a12.01 12.01 0 0112 12z"/><path d="M48 160h32a8 8 0 008-8v-32a8 8 0 00-8-8H48a8 8 0 00-8 8v32a8 8 0 008 8zm8-32h16v16H56zm-8 88h32a8 8 0 008-8v-32a8 8 0 00-8-8H48a8 8 0 00-8 8v32a8 8 0 008 8zm8-32h16v16H56zm-8 88h32a8 8 0 008-8v-32a8 8 0 00-8-8H48a8 8 0 00-8 8v32a8 8 0 008 8zm8-32h16v16H56zm-8 88h32a8 8 0 008-8v-32a8 8 0 00-8-8H48a8 8 0 00-8 8v32a8 8 0 008 8zm8-32h16v16H56zm376-136h32a8 8 0 008-8v-32a8 8 0 00-8-8h-32a8 8 0 00-8 8v32a8 8 0 008 8zm8-32h16v16h-16zm-8 88h32a8 8 0 008-8v-32a8 8 0 00-8-8h-32a8 8 0 00-8 8v32a8 8 0 008 8zm8-32h16v16h-16zm-8 88h32a8 8 0 008-8v-32a8 8 0 00-8-8h-32a8 8 0 00-8 8v32a8 8 0 008 8zm8-32h16v16h-16zm-8 88h32a8 8 0 008-8v-32a8 8 0 00-8-8h-32a8 8 0 00-8 8v32a8 8 0 008 8zm8-32h16v16h-16zm-271.939-26.01l-15.216 30.432A8 8 0 00160 312h80a8 8 0 007.155-11.578L225.343 256.8a63.954 63.954 0 10-57.282 13.192zm59 26.01h-54.117l12.013-24.024a63.607 63.607 0 0026.9-6.367zm-33.651-40.932l6.59-13.179 4.705 9.41a47.658 47.658 0 01-11.295 3.769zM184 160a47.977 47.977 0 0133.913 81.937l-10.758-21.515a8 8 0 00-14.31 0l-17.4 34.8A47.994 47.994 0 01184 160z"/><path d="M254.166 272.207l92.111 27.048a7.988 7.988 0 009.93-5.422l27.049-92.11a8 8 0 00-5.422-9.93l-92.111-27.048a8 8 0 00-9.93 5.422l-27.049 92.11a8 8 0 005.422 9.93zm34.725-89.857l76.759 22.541-22.541 76.759-76.759-22.541zM132.422 39.155l32 16A7.994 7.994 0 00168 56h192a24 24 0 000-48H168a7.994 7.994 0 00-3.578.845l-32 16a8 8 0 000 14.31zM368 32a8.009 8.009 0 01-8 8H192V24h168a8.009 8.009 0 018 8zm-198.111-8H176v16h-6.111l-16-8z"/></svg>