<svg xmlns="http://www.w3.org/2000/svg" fill="#d67456" viewBox="0 0 64 64" width="512" height="512"><path d="M31 47h2v2h-2z"/><path d="M59 2H5a3 3 0 00-3 3v44a3 3 0 003 3h19.82l-.667 4H23a1 1 0 00-.8.4l-3 4A1 1 0 0020 62h24a1 1 0 00.8-1.6l-3-4a1 1 0 00-.8-.4h-1.153l-.667-4H59a3 3 0 003-3V5a3 3 0 00-3-3zM5 4h54a1 1 0 011 1v39H4V5a1 1 0 011-1zm37 56H22l1.5-2h17zm-4.18-4H26.18l.667-4h10.306zM59 50H5a1 1 0 01-1-1v-3h56v3a1 1 0 01-1 1z"/><path d="M49 18a4 4 0 10-4-4 4 4 0 004 4zm0-6a2 2 0 11-2 2 2 2 0 012-2z"/><path d="M40.758 16.97l.668.167-.355.591a1 1 0 00.151 1.221l2.829 2.829a1 1 0 001.221.151l.591-.355.167.668A1 1 0 0047 23h4a1 1 0 00.97-.758l.167-.668.591.355a1 1 0 001.221-.151l2.829-2.829a1 1 0 00.151-1.221l-.355-.591.668-.167A1 1 0 0058 16v-4a1 1 0 00-.758-.97l-.668-.167.355-.591a1 1 0 00-.151-1.221l-2.829-2.829a1 1 0 00-1.221-.151l-.591.355-.167-.668A1 1 0 0051 5h-4a1 1 0 00-.97.758l-.167.668-.591-.355a1 1 0 00-1.221.151l-2.829 2.829a1 1 0 00-.151 1.221l.355.591-.668.167A1 1 0 0040 12v4a1 1 0 00.758.97zM42 12.781l1.22-.3a1 1 0 00.615-1.485l-.647-1.078 1.725-1.725 1.078.647a1 1 0 001.485-.615l.3-1.22h2.438l.3 1.22a1 1 0 001.485.615l1.078-.647 1.726 1.725-.648 1.078a1 1 0 00.615 1.485l1.22.3v2.438l-1.22.3a1 1 0 00-.615 1.485l.648 1.078-1.726 1.726-1.078-.648a1 1 0 00-1.485.615l-.3 1.22h-2.433l-.3-1.22a1 1 0 00-1.485-.615l-1.078.648-1.725-1.726.647-1.078a1 1 0 00-.615-1.485l-1.22-.3zM49 30a4 4 0 104 4 4 4 0 00-4-4zm0 6a2 2 0 112-2 2 2 0 01-2 2z"/><path d="M57.242 31.03l-.668-.167.355-.591a1 1 0 00-.151-1.221l-2.829-2.829a1 1 0 00-1.221-.151l-.591.355-.167-.668A1 1 0 0051 25h-4a1 1 0 00-.97.758l-.167.668-.591-.355a1 1 0 00-1.221.151l-2.829 2.829a1 1 0 00-.151 1.221l.355.591-.668.167A1 1 0 0040 32v4a1 1 0 00.758.97l.668.167-.355.591a1 1 0 00.151 1.221l2.829 2.829a1 1 0 001.221.151l.591-.355.167.668A1 1 0 0047 43h4a1 1 0 00.97-.758l.167-.668.591.355a1 1 0 001.221-.151l2.829-2.829a1 1 0 00.151-1.221l-.355-.591.668-.167A1 1 0 0058 36v-4a1 1 0 00-.758-.97zM56 35.219l-1.22.3a1 1 0 00-.615 1.485l.648 1.078-1.726 1.726-1.078-.648a1 1 0 00-1.485.615l-.3 1.22h-2.443l-.3-1.22a1 1 0 00-1.485-.615l-1.078.648-1.725-1.726.647-1.078a1 1 0 00-.615-1.485l-1.22-.3v-2.438l1.22-.3a1 1 0 00.615-1.485l-.647-1.078 1.725-1.725 1.078.647a1 1 0 001.485-.615l.3-1.22h2.438l.3 1.22a1 1 0 001.485.615l1.078-.647 1.726 1.725-.648 1.078a1 1 0 00.615 1.485l1.22.3zM7 18h24a1 1 0 001-1v-4h2v8a1 1 0 001 1h5v-2h-4v-8a1 1 0 00-1-1h-3V7a1 1 0 00-1-1H7a1 1 0 00-1 1v10a1 1 0 001 1zM8 8h22v8H8zM7 28h10a1 1 0 001-1v-6a1 1 0 00-1-1H7a1 1 0 00-1 1v6a1 1 0 001 1zm1-6h8v4H8z"/><path d="M31 20H21a1 1 0 00-1 1v6a1 1 0 001 1h10a1 1 0 001-1v-6a1 1 0 00-1-1zm-1 6h-8v-4h8z"/><path d="M7 42h24a1 1 0 001-1v-4h3a1 1 0 001-1v-8h4v-2h-5a1 1 0 00-1 1v8h-2v-4a1 1 0 00-1-1H7a1 1 0 00-1 1v10a1 1 0 001 1zm1-10h22v8H8z"/></svg>