<svg fill="#d67456" height="512" viewBox="0 0 64 64" width="512" xmlns="http://www.w3.org/2000/svg"><path d="M59 22c-.771 0-1.468.3-2 .78-.532-.48-1.229-.78-2-.78s-1.468.3-2 .78a2.977 2.977 0 00-2-.78c-.352 0-.686.072-1 .184V15c0-1.654-1.346-3-3-3s-3 1.346-3 3v12.648l-3.781 4.727A1.002 1.002 0 0040 33v6a1 1 0 00.293.707L43 42.414V46a1 1 0 001 1h15a1 1 0 001-1v-3.586l1.707-1.707A1 1 0 0062 40V25c0-1.654-1.346-3-3-3zm-1 23H45v-2h13zm2-5.414L58.586 41H44.414L42 38.586V33.35l2-2.5V34h2V15a1 1 0 012 0v15h2v-5a1 1 0 012 0v5h2v-5a1 1 0 012 0v5h2v-5a1 1 0 012 0z"/><path d="M17.191 41.588a.999.999 0 001.757-.271l7.238-21.71 3.92 7.84a1.001 1.001 0 001.726.108L46 6.303V10h2V3c0-.313-.147-.61-.397-.799a1.006 1.006 0 00-.877-.163l-7 2 .548 1.924 4.385-1.253-13.535 20.303-4.23-8.46a.978.978 0 00-.965-.55.998.998 0 00-.877.682L17.666 38.84l-6.857-9.428a1 1 0 00-1.77.313l-6 21 1.923.55 5.435-19.028zM51 36.586l-1.293-1.293-1.414 1.414 2 2a.997.997 0 001.414 0l5-5-1.414-1.414zM42 50a1 1 0 00-1-1h-3v-5a1 1 0 00-1-1h-3v-8a1 1 0 00-1-1h-4a1 1 0 00-1 1v10h-2v-1a1 1 0 00-1-1h-4a1 1 0 00-1 1v7h-2v-2a1 1 0 00-1-1h-4a1 1 0 00-1 1v5H9a1 1 0 00-1 1v5H6v2h38v-2h-2zm-32 6h2v4h-2zm4-1v-5h2v10h-2zm4-2h2v7h-2zm4-1v-7h2v15h-2zm4-5h2v13h-2zm4-1V36h2v24h-2zm4-1h2v15h-2zm4 15v-9h2v9z"/></svg>