<svg width="20" height="20" viewBox="0 0 20 20" fill="none" xmlns="http://www.w3.org/2000/svg">
<circle cx="10" cy="10" r="9.5" fill="#E0E0E0" stroke="black"/>
<g clip-path="url(#clip0)">
<path d="M14.9902 7.94003C14.9668 7.40869 14.8808 7.0434 14.7578 6.72687C14.6308 6.39088 14.4354 6.09007 14.1795 5.84001C13.9294 5.58605 13.6266 5.38872 13.2945 5.26372C12.9762 5.14064 12.6128 5.05471 12.0815 5.03129C11.5462 5.00588 11.3762 5 10.0185 5C8.66086 5 8.49092 5.00588 7.9576 5.0293C7.42626 5.05273 7.06097 5.13873 6.74452 5.26174C6.40846 5.38872 6.10765 5.58407 5.85758 5.84001C5.60363 6.09007 5.40637 6.39287 5.2813 6.72496C5.15821 7.0434 5.07229 7.4067 5.04886 7.93804C5.02345 8.47335 5.01758 8.64329 5.01758 10.001C5.01758 11.3587 5.02345 11.5286 5.04688 12.0619C5.07031 12.5933 5.15631 12.9586 5.27939 13.2751C5.40637 13.6111 5.60363 13.9119 5.85758 14.1619C6.10765 14.4159 6.41044 14.6132 6.74253 14.7382C7.06097 14.8613 7.42428 14.9472 7.95569 14.9707C8.48893 14.9942 8.65895 15 10.0166 15C11.3743 15 11.5443 14.9942 12.0776 14.9707C12.6089 14.9472 12.9742 14.8613 13.2907 14.7382C13.9627 14.4784 14.494 13.9471 14.7539 13.2751C14.8769 12.9566 14.9629 12.5933 14.9863 12.0619C15.0097 11.5286 15.0156 11.3587 15.0156 10.001C15.0156 8.64329 15.0136 8.47335 14.9902 7.94003ZM14.0897 12.0229C14.0682 12.5112 13.9861 12.775 13.9178 12.9508C13.7497 13.3864 13.404 13.7322 12.9683 13.9002C12.7925 13.9686 12.5269 14.0506 12.0404 14.0721C11.513 14.0956 11.3548 14.1014 10.0205 14.1014C8.68627 14.1014 8.5261 14.0956 8.00056 14.0721C7.51218 14.0506 7.24846 13.9686 7.07265 13.9002C6.85585 13.8201 6.65852 13.6931 6.49835 13.5271C6.3323 13.3649 6.20532 13.1695 6.1252 12.9528C6.05683 12.7769 5.97479 12.5112 5.95335 12.0248C5.92985 11.4974 5.92405 11.3391 5.92405 10.0049C5.92405 8.67061 5.92985 8.51044 5.95335 7.98497C5.97479 7.4966 6.05683 7.23287 6.1252 7.05706C6.20532 6.84019 6.3323 6.64293 6.50033 6.48268C6.66241 6.31663 6.85776 6.18965 7.07463 6.10961C7.25044 6.04123 7.51615 5.9592 8.00254 5.93768C8.52999 5.91426 8.68825 5.90838 10.0224 5.90838C11.3587 5.90838 11.5169 5.91426 12.0424 5.93768C12.5308 5.9592 12.7945 6.04123 12.9703 6.10961C13.1871 6.18965 13.3844 6.31663 13.5446 6.48268C13.7107 6.64484 13.8376 6.84019 13.9178 7.05706C13.9861 7.23287 14.0682 7.4985 14.0897 7.98497C14.1131 8.51242 14.119 8.67061 14.119 10.0049C14.119 11.3391 14.1131 11.4954 14.0897 12.0229Z" fill="black"/>
<path d="M10.0185 7.43213C8.60031 7.43213 7.44965 8.58271 7.44965 10.001C7.44965 11.4193 8.60031 12.5699 10.0185 12.5699C11.4368 12.5699 12.5874 11.4193 12.5874 10.001C12.5874 8.58271 11.4368 7.43213 10.0185 7.43213ZM10.0185 11.6673C9.09845 11.6673 8.35215 10.9211 8.35215 10.001C8.35215 9.08086 9.09845 8.33463 10.0185 8.33463C10.9386 8.33463 11.6849 9.08086 11.6849 10.001C11.6849 10.9211 10.9386 11.6673 10.0185 11.6673Z" fill="black"/>
<path d="M13.2887 7.33042C13.2887 7.6616 13.0202 7.93014 12.689 7.93014C12.3578 7.93014 12.0892 7.6616 12.0892 7.33042C12.0892 6.99917 12.3578 6.73071 12.689 6.73071C13.0202 6.73071 13.2887 6.99917 13.2887 7.33042Z" fill="black"/>
</g>
<defs>
<clipPath id="clip0">
<rect width="10" height="10" fill="white" transform="translate(5 5)"/>
</clipPath>
</defs>
</svg>
