<svg width="15" height="16" viewBox="0 0 15 16" fill="none" xmlns="http://www.w3.org/2000/svg">
<g clip-path="url(#clip0)">
<path d="M4.14682 0.33187C4.01733 0.202609 3.81094 0.206335 3.68585 0.340145C3.56384 0.470701 3.56384 0.677652 3.68585 0.808176L10.627 7.98138L3.6852 15.1539C3.55571 15.2832 3.55214 15.4964 3.6772 15.6303C3.80229 15.7641 4.00865 15.7678 4.13817 15.6385C4.14089 15.6358 4.14355 15.6331 4.14618 15.6303L11.3182 8.21922C11.4454 8.08768 11.4454 7.87445 11.3182 7.74288L4.14682 0.33187Z" fill="#F44336"/>
<path d="M3.91607 15.7291C3.73602 15.7295 3.58981 15.5789 3.58948 15.3929C3.58933 15.3032 3.6238 15.2171 3.68526 15.1538L10.6271 7.98121L3.68526 0.808705C3.55778 0.67698 3.55778 0.463428 3.68526 0.331704C3.81274 0.199979 4.0194 0.199979 4.14687 0.331704L11.3188 7.74274C11.4461 7.87428 11.4461 8.08751 11.3188 8.21908L4.14687 15.6301C4.08575 15.6935 4.00268 15.7291 3.91607 15.7291Z" fill="white"/>
</g>
<defs>
<clipPath id="clip0">
<rect width="15" height="15.5" fill="white" transform="translate(0 0.233398)"/>
</clipPath>
</defs>
</svg>
