<svg width="10" height="10" viewBox="0 0 10 10" fill="none" xmlns="http://www.w3.org/2000/svg">
<g clip-path="url(#clip0)">
<path d="M8.55421 4.19646C8.56623 2.78659 7.36542 1.4941 5.87744 1.31538C5.84784 1.31187 5.8156 1.30653 5.78147 1.30087C5.70781 1.28867 5.63163 1.27612 5.55477 1.27612C5.2498 1.27612 5.16828 1.49035 5.14682 1.61811C5.12595 1.74233 5.14585 1.84665 5.20588 1.9283C5.30688 2.06563 5.48458 2.09001 5.62731 2.10954C5.66914 2.11532 5.70862 2.12069 5.74166 2.12811C7.07855 2.42684 7.52871 2.8965 7.74871 4.22202C7.75408 4.25441 7.7565 4.29432 7.75908 4.33665C7.76868 4.4951 7.78868 4.82476 8.14309 4.82476H8.14312C8.17262 4.82476 8.20433 4.82221 8.23734 4.81718C8.56737 4.76702 8.55703 4.46569 8.55206 4.32091C8.55067 4.28013 8.54933 4.24156 8.55278 4.21591C8.55371 4.20945 8.55418 4.20296 8.55421 4.19646Z" fill="black"/>
<path d="M5.46818 0.797764C5.50778 0.800621 5.54526 0.803354 5.57647 0.808137C7.77178 1.14575 8.78137 2.18587 9.06115 4.39835C9.0659 4.43596 9.06665 4.48183 9.06743 4.5304C9.07022 4.70326 9.07597 5.06286 9.46215 5.07031L9.47413 5.07043C9.59525 5.07043 9.69159 5.03391 9.7605 4.9618C9.88072 4.83606 9.87233 4.64925 9.86556 4.49913C9.86391 4.4623 9.86233 4.42761 9.86273 4.39724C9.89065 2.13444 7.93196 0.0825466 5.6712 0.00624224C5.66182 0.00593168 5.65287 0.00642857 5.64383 0.00770186C5.63939 0.00835404 5.63116 0.00916149 5.61706 0.00916149C5.59452 0.00916149 5.56679 0.00720497 5.53738 0.00521739C5.50182 0.00279503 5.46151 0 5.42064 0C5.06061 0 4.99216 0.255901 4.9834 0.408447C4.96322 0.760994 5.30427 0.785807 5.46818 0.797764Z" fill="black"/>
<path d="M8.95524 7.25773C8.90856 7.22208 8.8603 7.18519 8.81512 7.14879C8.57543 6.9559 8.32043 6.77811 8.07381 6.60615C8.02263 6.5705 7.97145 6.53481 7.92046 6.49904C7.60456 6.27714 7.32055 6.16932 7.05223 6.16932C6.69083 6.16932 6.37574 6.36901 6.11567 6.76276C6.00046 6.93733 5.86068 7.02221 5.68841 7.02221C5.58654 7.02221 5.4708 6.99314 5.34443 6.93578C4.32477 6.47339 3.59667 5.76444 3.1803 4.82863C2.97903 4.37634 3.04428 4.08068 3.3985 3.84006C3.59965 3.70354 3.97406 3.44938 3.94754 2.96267C3.91751 2.40997 2.698 0.746957 2.18418 0.558075C1.96664 0.478075 1.73807 0.47733 1.50359 0.556212C0.912911 0.754783 0.489029 1.10351 0.277663 1.56463C0.073408 2.01019 0.0826315 2.53335 0.30434 3.07758C0.945271 4.65106 1.84639 6.02292 2.98276 7.155C4.09505 8.2632 5.46217 9.17096 7.04608 9.85298C7.18884 9.91441 7.33859 9.94792 7.44794 9.97236C7.48521 9.98075 7.51738 9.98789 7.54083 9.99432C7.55372 9.99783 7.56701 9.99972 7.58033 9.99985L7.59285 9.99991C7.59288 9.99991 7.59285 9.99991 7.59291 9.99991C8.33788 9.99991 9.23238 9.31916 9.5071 8.54308C9.74779 7.86351 9.30835 7.52761 8.95524 7.25773Z" fill="black"/>
<path d="M5.79766 2.59524C5.67012 2.59847 5.40468 2.60506 5.31154 2.8754C5.26797 3.00173 5.27319 3.11142 5.32707 3.20142C5.40614 3.33347 5.55763 3.37394 5.69543 3.39615C6.19515 3.47633 6.45179 3.75267 6.50313 4.26571C6.52698 4.50494 6.68807 4.67199 6.8949 4.67199H6.89493C6.91021 4.67199 6.92583 4.67109 6.94139 4.66919C7.19015 4.6396 7.31074 4.45683 7.29984 4.12602C7.30381 3.78077 7.12313 3.38882 6.81583 3.07661C6.50748 2.76344 6.13577 2.58707 5.79766 2.59524Z" fill="black"/>
</g>
<defs>
<clipPath id="clip0">
<rect width="10" height="10" fill="white"/>
</clipPath>
</defs>
</svg>
