<svg width="20" height="20" viewBox="0 0 20 20" fill="none" xmlns="http://www.w3.org/2000/svg">
<circle cx="10" cy="10" r="9.5" fill="#E0E0E0" stroke="black"/>
<g clip-path="url(#clip0)">
<path d="M13.5542 9.19646C13.5662 7.78659 12.3654 6.4941 10.8774 6.31538C10.8478 6.31187 10.8156 6.30653 10.7815 6.30087C10.7078 6.28867 10.6316 6.27612 10.5548 6.27612C10.2498 6.27612 10.1683 6.49035 10.1468 6.61811C10.1259 6.74233 10.1459 6.84665 10.2059 6.9283C10.3069 7.06563 10.4846 7.09001 10.6273 7.10954C10.6691 7.11532 10.7086 7.12069 10.7417 7.12811C12.0786 7.42684 12.5287 7.8965 12.7487 9.22202C12.7541 9.25441 12.7565 9.29432 12.7591 9.33665C12.7687 9.4951 12.7887 9.82476 13.1431 9.82476H13.1431C13.1726 9.82476 13.2043 9.82221 13.2373 9.81718C13.5674 9.76702 13.557 9.46569 13.5521 9.32091C13.5507 9.28013 13.5493 9.24156 13.5528 9.21591C13.5537 9.20945 13.5542 9.20296 13.5542 9.19646Z" fill="black"/>
<path d="M10.4682 5.79776C10.5078 5.80062 10.5453 5.80335 10.5765 5.80814C12.7718 6.14575 13.7814 7.18587 14.0612 9.39835C14.0659 9.43596 14.0666 9.48183 14.0674 9.5304C14.0702 9.70326 14.076 10.0629 14.4621 10.0703L14.4741 10.0704C14.5953 10.0704 14.6916 10.0339 14.7605 9.9618C14.8807 9.83606 14.8723 9.64925 14.8656 9.49913C14.8639 9.4623 14.8623 9.42761 14.8627 9.39724C14.8907 7.13444 12.932 5.08255 10.6712 5.00624C10.6618 5.00593 10.6529 5.00643 10.6438 5.0077C10.6394 5.00835 10.6312 5.00916 10.6171 5.00916C10.5945 5.00916 10.5668 5.0072 10.5374 5.00522C10.5018 5.0028 10.4615 5 10.4206 5C10.0606 5 9.99216 5.2559 9.9834 5.40845C9.96322 5.76099 10.3043 5.78581 10.4682 5.79776Z" fill="black"/>
<path d="M13.9552 12.2577C13.9086 12.2221 13.8603 12.1852 13.8151 12.1488C13.5754 11.9559 13.3204 11.7781 13.0738 11.6061C13.0226 11.5705 12.9715 11.5348 12.9205 11.499C12.6046 11.2771 12.3206 11.1693 12.0522 11.1693C11.6908 11.1693 11.3757 11.369 11.1157 11.7628C11.0005 11.9373 10.8607 12.0222 10.6884 12.0222C10.5865 12.0222 10.4708 11.9931 10.3444 11.9358C9.32477 11.4734 8.59667 10.7644 8.1803 9.82863C7.97903 9.37634 8.04428 9.08068 8.3985 8.84006C8.59965 8.70354 8.97406 8.44938 8.94754 7.96267C8.91751 7.40997 7.698 5.74696 7.18418 5.55808C6.96664 5.47808 6.73807 5.47733 6.50359 5.55621C5.91291 5.75478 5.48903 6.10351 5.27766 6.56463C5.07341 7.01019 5.08263 7.53335 5.30434 8.07758C5.94527 9.65106 6.84639 11.0229 7.98276 12.155C9.09505 13.2632 10.4622 14.171 12.0461 14.853C12.1888 14.9144 12.3386 14.9479 12.4479 14.9724C12.4852 14.9807 12.5174 14.9879 12.5408 14.9943C12.5537 14.9978 12.567 14.9997 12.5803 14.9998L12.5928 14.9999C12.5929 14.9999 12.5928 14.9999 12.5929 14.9999C13.3379 14.9999 14.2324 14.3192 14.5071 13.5431C14.7478 12.8635 14.3083 12.5276 13.9552 12.2577Z" fill="black"/>
<path d="M10.7977 7.59524C10.6701 7.59847 10.4047 7.60506 10.3115 7.8754C10.268 8.00173 10.2732 8.11142 10.3271 8.20142C10.4061 8.33347 10.5576 8.37394 10.6954 8.39615C11.1951 8.47633 11.4518 8.75267 11.5031 9.26571C11.527 9.50494 11.6881 9.67199 11.8949 9.67199H11.8949C11.9102 9.67199 11.9258 9.67109 11.9414 9.66919C12.1901 9.6396 12.3107 9.45683 12.2998 9.12602C12.3038 8.78077 12.1231 8.38882 11.8158 8.07661C11.5075 7.76344 11.1358 7.58707 10.7977 7.59524Z" fill="black"/>
</g>
<defs>
<clipPath id="clip0">
<rect width="10" height="10" fill="white" transform="translate(5 5)"/>
</clipPath>
</defs>
</svg>
