<svg xmlns="http://www.w3.org/2000/svg" viewBox="-153 -46 652 652"><path d="M-91.6 200.2l-40 117.2h23.5l11.3-34.2h32.5l11.6 34.2h24l-40.1-117.2h-22.8zm21.6 63.5h-21l8.8-25.8c.6-1.8 1.2-3.5 1.7-5.2.6 1.8 1.1 3.6 1.8 5.5l8.7 25.5zm80.8.3c-10.8-4.3-12-6.3-12-9.4 0-4 3.3-6.4 8.7-6.4 6.3 0 11.3 2.5 13.7 4l4.6 2.9 6.1-18.6-2.8-1.8c-5.3-3.5-13.3-5.5-21.4-5.5-18.1 0-31.2 11.4-31.2 27.2 0 14.5 12.8 22.2 23.6 26.1 10.7 4 11.6 6.8 11.6 10.2 0 6.4-6.7 7.3-10.7 7.3-6.2 0-12.9-2.6-16.7-4.9l-4.6-2.7-6 18.9 2.9 1.7c6.6 3.9 15.4 6.1 24.1 6.1 19.9 0 33.3-11.2 33.3-27.8 0-16.7-13.3-23.6-23.2-27.3zm58.5-53.4l-22.4 6.8v13.4H34.8v19.3h12.1v38.3c0 10.7 2.1 18.3 6.6 23.4 4.4 4.7 10.9 7.4 18.5 7.4 6.8 0 11.7-1.4 14-2.2l3-1-1.2-19.4-5.2 1.5c-1.5.4-3.3.8-7 .8-2.7 0-6.4 0-6.4-10.9v-37.9h20.3v-19.3H69.3v-20.2zm74.9 19.4l-4.1-.6c-1.2-.2-2.4-.3-4-.3-7.1 0-13.6 2.9-18.6 8l-.3-6.3h-21l.3 4.5c.4 6.7.7 14.3.7 24.1v58h22.7v-45.8c0-2.1.2-4.3.4-5.8 1.7-9 7.3-14.6 14.9-14.6 1.8 0 2.9 0 3.9.2l5.2 1.1-.1-22.5zm41.3-.8c-25.3 0-43 18.7-43 45.6 0 26.2 17.1 44.4 41.7 44.4 20.8 0 43.1-14.3 43.1-45.7.1-26.1-17.1-44.3-41.8-44.3zm18.9 44.8c0 15.1-8.2 26.1-19.4 26.1s-19.3-10.9-19.3-25.7c0-9.6 4.1-25.9 19.6-25.9 15.1-.2 19.1 16.6 19.1 25.5zm97.4-64.5c-7.4-6.7-18.7-10.1-33.3-10.1-9.8 0-19.1.7-27.7 2.1l-3.5.6v115.3h22.5v-42.8c2.3.2 4.7.3 7.1.3 15.2 0 28.1-4.7 36.3-13.2 6.4-6.6 9.6-15.4 9.6-26.2-.1-10.5-4-19.7-11-26zm-11.6 26.7c0 16.4-14.4 18.8-23 18.8-2.9 0-5.3-.1-7.3-.4v-35.2c2.2-.3 5.2-.4 9-.4 9.6 0 21.3 3 21.3 17.2zm91.5 58.2v-29.2c0-23.3-12.1-36-33.9-36-10.1 0-20.7 2.8-28 7.4l-2.9 1.8 6.1 18 4.6-3.1c4.7-3.2 11.5-5.1 18.1-5.1 4.6-.1 7.9 1 10.1 3.1 1.8 1.8 2.9 4.5 3.3 7.9-17.7.5-30.6 4.7-38.6 12.6-5.5 5.5-8.3 12.4-8.3 20.7 0 13.3 9.6 26.7 28.2 26.7 7.9 0 15.3-2.5 21.1-6.9l.6 5.2h21.5l-.8-4.9c-.7-4.8-1.1-10.9-1.1-18.2zm-37.8 5.8c-3.4 0-9-1.2-9-9.3 0-3.1.9-5.6 2.9-7.5 2.6-2.6 8.5-5.6 21.7-5.8v9.3c0 .7-.1 1.9-.4 3.1-1.6 4.7-6.5 10.2-15.2 10.2zm100.3-69.4l-16.5 48.7c-.4 1.2-.8 2.5-1.2 3.7-.4-1.2-.8-2.4-1.3-3.5l-18-48.9h-24.7l31 77.7.1.2c.5 1 .7 1.6.7 1.8-.2.4-.5 1.2-.7 1.7-2.7 5.7-6.7 11.1-10.7 14.3l-.1.1c-4.5 3.9-9.1 5.6-11 6.1l-4 1.3 5.8 19.4 3.7-.7c2.3-.4 10.3-2.3 19.5-10 11-9.8 18.3-25.3 27.9-50.5l23.5-61.4h-24z"/><path d="M-48.8 232.4c14.6-14.9 39.4-23.8 66.3-23.8 10.5 0 20.7 1.3 30.4 4l.8.2 17.2-5.2-7.7-3c-14.7-5.6-31.6-8.6-49-8.6-25.3 0-48.9 6.1-66.4 17.2l-1.9 1.2 7.3 21.3 3-3.3z" fill="red"/></svg>