<svg xmlns="http://www.w3.org/2000/svg" viewBox="0 0 3000 3000"><path fill="#FFF" d="M191.087 998.408c0-87.477 70.254-158.455 157.007-158.455h2303.45c86.681 0 157.008 70.978 157.008 158.455v1002.315c0 87.473-70.327 158.383-157.008 158.383H348.094c-86.753 0-157.007-70.91-157.007-158.383V998.408"/><path fill="#FBB110" d="M192.895 982.417c0-80.457 64.685-145.719 144.418-145.719h2327.255c79.735 0 144.346 65.262 144.346 145.72v4.631H192.895v-4.632m2616.018 1031.548v3.618c0 80.455-64.61 145.72-144.346 145.72H337.312c-79.733 0-144.418-65.265-144.418-145.72v-3.618h2616.019"/><path fill="#E70020" d="M2003.4 1498.442c0 203.676 163.592 368.788 365.46 368.788 201.793 0 365.456-165.112 365.456-368.788 0-203.746-163.663-368.858-365.456-368.858-201.868 0-365.46 165.112-365.46 368.858zm-1742.42 0c0 203.676 163.663 368.788 365.53 368.788 201.794 0 365.458-165.112 365.458-368.788 0-203.746-163.664-368.858-365.458-368.858-201.866 0-365.53 165.112-365.53 368.858zm2547.933 445.7H1006.946c32.488-23.009 62.73-54.482 95.723-96.953l183.561-236.378 80.171 102.232 89.21-119.745-77.996-100.21 186.815-240.647c59.329-76.333-54.121-166.05-113.452-89.718l-165.107 212.72-167.86-215.542c-59.405-76.116-172.638 13.82-113.233 90.008l189.709 243.252-205.265 264.31c-72.936 93.916-145.722 180.014-290.212 186.67H192.895V1056.87h1792.489c-30.822 22.72-59.907 53.18-91.454 93.843l-183.49 236.307-80.238-102.164-89.143 119.746 78.001 100.14-186.891 240.648c-59.258 76.328 54.192 166.048 113.449 89.713l165.183-212.645 167.862 215.468c59.402 76.19 172.637-13.743 113.234-89.934l-189.711-243.326 205.267-264.233c66.999-86.392 133.928-166.125 256.494-183.563h544.967v887.272zm-658.853-445.7c0-121.986 97.968-220.822 218.801-220.822 120.829 0 218.721 98.836 218.721 220.822 0 121.916-97.892 220.755-218.721 220.755-120.834 0-218.801-98.839-218.801-220.755zm-1742.346 0c0-121.986 97.965-220.822 218.797-220.822 120.759 0 218.726 98.836 218.726 220.822 0 121.916-97.967 220.755-218.726 220.755-120.832 0-218.797-98.839-218.797-220.755"/></svg>