<svg xmlns="http://www.w3.org/2000/svg" version="1.0" width="1024" height="182" viewBox="-4.644 -4.644 922.882 164.098"><path d="M164.57 69.146c-.102-3.17-1.596-4.805-4.497-4.913H144.58c-3.667.225-5.561 2.237-5.65 6.02V98.12c.089 3.906 2.183 5.899 6.256 6.01h14.199c1.474 0 2.7-.546 3.677-1.664 1.02-.84 1.508-1.92 1.508-3.257V69.146zm-45.532-3.956c.103-6.972 1.655-12.27 4.668-15.893 1.577-1.519 3.55-2.788 5.952-3.838 2.495-1.118 4.912-1.66 7.256-1.66h28.438c12.544.107 18.92 6.968 19.12 20.596v41.943c-.092 4.839-1.987 9.038-5.649 12.549-3.628 3.691-7.959 5.571-13.003 5.683h-26.89v30.24h-19.892V65.19m101.342 34.893c0 1.167.538 2.09 1.588 2.783.937.83 2.119 1.265 3.613 1.265h15.278c3.453 0 5.245-1.338 5.347-4.048V94.38c0-3.115-1.821-4.688-5.493-4.688H225.58c-1.992 0-3.37.332-4.136.957-.708.738-1.064 2.198-1.064 4.36v5.074zm25.826-31.43c.103-3.057-1.68-4.517-5.352-4.42h-40.063V43.8h45.107c13.14.215 19.81 6.562 20.035 19.097v42.749c-.113 5.405-1.768 9.863-4.98 13.408-3.36 3.672-7.691 5.517-12.999 5.517h-27.266c-13.271-.112-20-6.172-20.205-18.217V89.858c.103-12.587 6.534-18.984 19.263-19.204h26.46v-2.002m75.596 65.718c1.577-.098 2.944-.664 4.052-1.68 1.065-.947 1.602-2.036 1.602-3.271v-4.849h-25.469c-3.32 0-5.976-.424-7.959-1.27-2.094-.766-4.18-2.196-6.279-4.228-1.987-2.153-3.418-4.404-4.287-6.758-.903-2.153-1.362-4.892-1.362-8.183V43.799h19.887v53.857c0 4.317 1.763 6.475 5.332 6.475h14.043c1.67 0 3.12-.547 4.336-1.665 1.172-.947 1.758-2.07 1.758-3.389V43.8h19.727v89.004c-.113 6.587-1.802 11.86-5.059 15.86-3.306 3.998-7.827 6.044-13.594 6.147H282.1v-20.44h39.702m41.001-30.241h35.444c3.242-.111 4.927-1.41 5.03-3.9v-1.836c0-.533-.162-1.123-.474-1.758-.791-1.543-1.763-2.31-2.92-2.31H382.31c-5.215-.102-9.664-1.9-13.404-5.366-3.784-3.203-5.722-7.144-5.835-11.768V61.953c.205-11.89 6.665-17.94 19.39-18.154h41.108v20.434H388.74c-4.087 0-6.147 1.255-6.147 3.755v1.978c0 2.593 2.104 3.891 6.299 3.891h17.52c4.667.108 8.647 1.895 11.962 5.381 3.35 3.511 5.088 7.686 5.195 12.534v14.908c-.107 4.19-2.046 8.369-5.771 12.539-1.817 2.046-3.677 3.452-5.537 4.248-1.924.732-4.536 1.103-7.871 1.103h-41.587v-20.44m94.804-4.047c0 1.167.538 2.09 1.612 2.783.927.83 2.114 1.265 3.589 1.265h15.307c3.452 0 5.235-1.338 5.337-4.048V94.38c0-3.115-1.846-4.688-5.503-4.688h-15.141c-1.988 0-3.36.332-4.121.957-.708.738-1.08 2.198-1.08 4.36v5.074zm25.845-31.43c.088-3.057-1.694-4.517-5.37-4.42h-40.055V43.8h45.122c13.125.215 19.8 6.562 20.005 19.097v42.749c-.107 5.405-1.777 9.863-4.97 13.408-3.335 3.672-7.671 5.517-12.984 5.517h-27.29c-13.262-.112-19.995-6.172-20.18-18.217V89.858c.087-12.587 6.513-18.984 19.252-19.204h26.47v-2.002m35.874-36.44c.122-5.518 2.153-9.946 6.138-13.267 3.867-3.374 8.945-5.107 15.224-5.205h12.632v19.741h-7.651c-4.204.098-6.348 2.11-6.44 5.997v4.326h14.091v20.454h-14.09v60.322h-19.903V32.212m90.566 36.059v-.473c0-1.05-.425-1.944-1.28-2.608-.927-.644-2.06-.957-3.423-.957h-13.847c-1.778 0-3.208.498-4.317 1.519-1.377.942-2.075 2.183-2.075 3.71v8.204l24.942-9.395zm-24.624 28.887v1.275c0 1.635.424 2.934 1.289 3.877.625 1.206 1.464 1.82 2.583 1.82h40.864v20.44h-43.447c-3.965 0-7.056-.37-9.239-1.113a16.768 16.768 0 01-6.401-3.857c-2.188-2.163-3.677-4.366-4.424-6.631-.82-2.364-1.225-5.498-1.225-9.405l-.171-40.903c.22-12.358 6.674-18.647 19.36-18.862h26.816c12.388.215 18.663 6.723 18.863 19.56v16.158l-44.868 17.641m86.977 27.412c-3.013 0-5.762-.278-8.257-.786-2.612-.425-5.215-1.636-7.876-3.681-2.73-2.378-4.619-5.044-5.654-7.989-1.094-2.895-1.621-6.177-1.621-9.868v-38.14c-.112-3.11.2-5.84.928-8.208.669-2.363 2.075-4.677 4.199-6.943 2.422-2.378 4.892-3.96 7.5-4.736 2.51-.63 5.337-.948 8.506-.948h30.488v4.78h-29.78c-5.26 0-9.39 1.08-12.412 3.243-3.091 2.358-4.668 6.426-4.668 12.158v38.164c0 2.686.41 5.298 1.225 7.818.835 2.475 2.227 4.648 4.224 6.547 2.168 1.646 4.326 2.671 6.43 3.091 2.193.484 4.546.713 7.042.713h28.418v4.785h-28.692m106.626-49.482h-39.97c-4.786.107-8.536 1.587-11.236 4.438-2.793 2.896-4.175 6.866-4.175 11.91v12.172c0 2.359.244 4.517.752 6.46.503 2.046 1.758 3.872 3.74 5.44 3.453 2.861 7.276 4.277 11.455 4.277h24.22c10.121-.107 15.214-5.44 15.214-16.025V75.088zm4.751 27.48c0 3.072-.234 5.767-.63 8.14-.644 2.578-1.968 5.063-3.974 7.427-4.175 4.4-9.351 6.543-15.528 6.435h-23.764c-6.177 0-11.182-1.845-15.059-5.517-3.96-3.628-5.967-8.672-5.967-15.142V91.616c.2-13.872 7.11-20.976 20.723-21.299h39.595v-5.38c0-4.434-1.285-8.316-3.838-11.656-1.621-2.168-3.54-3.618-5.718-4.365-2.202-.576-4.673-.864-7.427-.864h-43.193v-4.78h40.947c3.745 0 7.129.263 10.195.78a11.8 11.8 0 014.331 1.817c1.402.845 2.71 2.08 3.921 3.701 3.672 4.737 5.464 10.2 5.386 16.353v36.645m44.697-54.516c-11.084.205-16.548 6.255-16.342 18.159v58.36h-4.761V66.23c-.225-15.313 7.065-22.96 21.87-22.96h5.293v4.78h-6.06m80.518.026h-37.676c-2.715 0-5.146.303-7.339.88-2.295.517-4.511 1.908-6.587 4.174-1.987 2.065-3.237 4.111-3.76 6.157-.698 2.066-1.015 4.541-.903 7.427v37.207c0 6.186 1.792 10.395 5.425 12.656 1.792 1.05 3.76 1.836 5.967 2.363 2.197.586 4.648.874 7.348.874h16.475c6.152 0 11.187-1.416 15.054-4.272 3.887-2.68 5.864-7.305 5.996-13.896v-53.57zm4.756 53.897c-.42 15.4-8.57 22.949-24.444 22.631h-17.66c-3.731 0-7.066-.327-10.015-.947-3.038-.786-5.943-2.636-8.74-5.522-2.105-2.593-3.458-5.215-4-7.9-.727-2.681-1.045-5.665-.932-8.922V66.592c.205-15.64 8.08-23.413 23.647-23.296h37.388V16.934h4.756v85.039" fill="#008ac9"/><path d="M8.54 40.728c1.563-.689 3.125-1.226 4.688-1.563 2.87-13.71 15.014-23.994 29.57-23.994 14.565 0 26.714 10.298 29.58 24.004 4.468.85 8.164 2.656 11.045 5.346.117-2.631.01-5.166-.303-7.553C81.28 16.255 63.911 0 42.734 0 20.933 0 3.184 17.28 2.261 38.882a57.425 57.425 0 00-.098 5.84c1.831-1.543 3.921-2.93 6.377-3.994" fill="#e3001b"/><path d="M66.465 43.799H17.88c-2.339 0-4.76.542-7.256 1.66-2.407 1.05-4.38 2.32-5.962 3.838C1.65 52.92.107 58.217 0 65.19v37.979c.107 6.987 1.65 12.28 4.663 15.884 1.582 1.543 3.555 2.812 5.962 3.872 2.495 1.094 4.917 1.645 7.256 1.645h48.584c12.549-.112 18.93-6.997 19.13-20.605v-39.57c-.2-13.628-6.581-20.489-19.13-20.596" fill="#e3001b"/></svg>