<svg xmlns="http://www.w3.org/2000/svg" viewBox="-153 -46 652 652"><path d="M-131.3 373.8V191.3H-84c17.4 0 33.7-.4 42 1.1 8.3 1.5 19.2 5.5 24.8 9.1 7.6 4.6 13.3 11.5 17.3 20.6 4 9.1 5.9 20 5.9 32.6 0 20.8-4.5 37.1-15.5 47.9-11 10.8-35.3 15.4-56.5 15.4h-12.1v55.7h-53.2zm52.9-89.2c.7.1.8.1 2.5.2 16.5.6 20.8-3.5 23.4-6.6 3.9-4.8 4-15.6 4-25.6 0-8.3.3-15.1-5.7-21.6-3.9-4.3-13.6-5.7-24.2-5.7l.1 3v56.3zM355.4 373H235.7V190.2h59v128h60.7zm10.2-119.7h56.6v120h-56.6zm-.8-62.3h57.8v49.6h-57.8zm82.9 164.5H431v3.5h6.2v13.3h4.3V359h6.2z"/><path d="M156.3 360.4c7.6-2.7 15.1-8.5 21.6-14.4 18.3-16.6 37.5-44.9 36-79.3-1.6-36.2-21-59.4-46.8-73.9 7.5 1.6 13.6 6.6 19.4 11.3 16.6 13.4 29.2 34.2 29.7 63.5.7 38.9-20 65.5-40.5 83.8 6.4-3.2 11.4-9.1 16.2-14.9C205.5 320.2 218 297 218 268c0-40.8-23.1-64.3-50-79.7 8.9 2.6 16.8 7.9 23.4 13.5 16.3 13.8 30.8 38.1 28.8 70.3-1.9 31.8-16 56.9-35.1 75.2-19.1 18.3-45.3 31.4-75.7 34.2-3 .3-7.7.3-11.3 0-47-3.9-81.1-34-84.7-80.2-.4-4.8-.4-9.5 0-14.4 2.1-29.1 15.1-52.3 32.4-70.3 18.8-19.5 42.5-34.2 75.6-36.5.8-3.6 1.8-7.8 2.3-10.4 10.9 11.6 24.1 24.2 37.8 37.8-16.5 8.4-32.5 17.3-48.6 26.1.4-3.3 1.1-7.1 1.3-9.5-27.7 4.9-51 25-55.8 53.1-5.9 34.3 17 60.6 50 60.8 33.3.2 61.6-25.5 66.6-54.9 4.1-23.8-6.4-40.4-19.8-51.3 12.5 8.3 26.1 23.2 24.3 45.5-2.8 34.8-35.5 63.7-69.8 63.9-18.7.1-35.4-8.2-47.3-22.1 11.2 16.3 30.8 24.9 53.1 23.4 17.5-1.2 32.3-9.8 43.2-20.3 11.2-10.7 19.8-25.6 22.1-41 .8-5.8.9-12.3 0-18.5-2.7-18-13.7-26.4-23.7-37.9 14.2 11.4 29.2 26.5 28.2 51-1.5 35.8-35.7 67.4-71.6 69.8-23.5 1.6-38-6.4-50.4-18 11.8 14.9 33.9 22.6 57.2 18.9 33.1-5.2 62.6-32.8 66.2-67.1 3.2-30.9-12.4-45.3-27.4-60.5 15.9 12.1 29.5 25.4 30.5 50.1.9 21.4-9.6 42.4-23 55.8-21.4 21.4-63.1 35.5-95.5 15.8 27.6 21.1 70.4 9 93.2-11.7 16.5-15 28.6-35 26.6-64.8-1.6-24-15.2-36.3-30.6-49.1 15.9 8.1 31.1 24.4 33.3 47.7 2.9 30.6-11.2 53.3-28.4 68.4-20.7 18.3-49.9 29.2-82.9 20.7 54.4 17 105.3-23.5 112.6-70.2 5.2-33.6-12-53.4-28.4-67.6-1.7-1.4-2.6-2.5-4.9-4.5 23.4 12.2 42.8 39 35.1 77-8.9 44.2-53.2 80.1-110.3 70.7 8.3 3.3 18 2.6 26.4 2.2 26-1.4 49.5-14.4 62.1-28.4 15.3-17 27.4-38.4 25-69.3-2.1-27.9-17.7-41.3-36.8-56.1 8 2.9 15 8.5 20.7 14.8 9.6 10.4 17.4 24.6 18.7 42.3 2.3 31.8-12.3 55.5-28.4 72.1-17.1 17.7-40.3 29-69.8 29.3 46.2 1.4 77-27 91.9-58.5 8.5-18.1 11-43.6 4.1-63.5-6.4-18.4-21.1-31-35.6-41.2 25.3 13.5 46.5 38.8 41.9 78.1-1.7 14.9-6.5 27.1-13.2 38.3-13.8 23.1-36.3 39.4-61.6 48.2 18.7-4.1 36.5-15.3 49.5-29.7 16-17.7 28.3-40.1 27.5-71.1-.9-33.5-21.6-52.8-42.8-68 .3 0 .7.2.8.2 23.1 11.3 40.6 31 44.2 61.5 6.3 48.5-25.5 83.7-54.9 102" fill-rule="evenodd" clip-rule="evenodd" fill="#2f4398"/><path d="M464.5 372.6v-8.1l-2.4 4.1-2.7-.1-2.4-4v8.1h-4.2v-17.1h4.1l3.8 7.5 3.9-7.5h4.1v17.1z"/></svg>