<svg xmlns="http://www.w3.org/2000/svg" width="711.28" height="219.88" viewBox="0 0 533.46 164.91"><defs><clipPath id="a"><path d="M469 72h64.46v80H469zm0 0"/></clipPath><clipPath id="b"><path d="M80 133h33v31.91H80zm0 0"/></clipPath><clipPath id="c"><path d="M25 133h33v31.91H25zm0 0"/></clipPath></defs><path d="M329.047 96.215c0 6.195.035 12.394-.02 18.594-.02 2.53-.547 5-1.566 7.336-2.14 4.914-5.926 7.496-11.262 7.832-.375.023-.75.02-1.125.02-8.754 0-17.504.03-26.258-.02-1.68-.012-3.394-.153-5.027-.52-5.543-1.242-8.863-4.824-10.156-10.27a24.791 24.791 0 01-.688-5.57c-.058-11.758-.039-23.515-.007-35.273 0-.961.156-1.953.44-2.871.602-1.961 1.903-2.86 3.95-2.875 2.402-.016 4.809-.004 7.211-.004 2.367 0 4.734-.043 7.102.023.882.024 1.808.172 2.632.48 1.942.727 2.926 2.278 2.93 4.36 0 8.867-.008 17.734.012 26.598.004.968.058 1.96.27 2.902.43 1.934 1.671 2.953 3.523 3.066 2.133.13 3.71-.773 4.34-2.656.289-.87.422-1.836.422-2.758.03-8.828.011-17.656.027-26.484.004-.969.062-1.953.219-2.91.238-1.465 1.16-2.317 2.64-2.512.485-.066.973-.101 1.457-.105 4.473-.008 8.942-.012 13.41.004.676.003 1.356.058 2.016.171 2.012.344 3.262 1.688 3.488 3.723.063.52.063 1.047.063 1.574.004 6.047.004 12.098.004 18.145h-.047M186.813 52.004c9.578 0 19.156-.008 28.734.008.894.004 1.805.054 2.68.234 1.394.285 1.968 1.016 2.02 2.445.042 1.278.015 2.555.015 3.832 0 3.192.004 6.383-.004 9.579-.004 2.058-.512 2.644-2.567 2.691-2.78.062-5.558.027-8.34.031-2.367.004-4.734 0-7.097 0-.188 0-.375 0-.566.004-1.95.05-2.344.457-2.348 2.426 0 17.355 0 34.707-.004 52.058 0 .637-.04 1.278-.113 1.91-.125 1.122-.746 1.891-1.825 2.196-.75.21-1.539.371-2.316.387-2.89.054-5.781.043-8.676.043-3.156 0-6.308 0-9.465-.04a8.946 8.946 0 01-2.109-.292c-.863-.223-1.437-.82-1.574-1.727a12.96 12.96 0 01-.149-1.902c-.007-17.317-.004-34.633-.007-51.95 0-.523.007-1.05-.043-1.574-.09-.898-.434-1.277-1.309-1.43a9.107 9.107 0 00-1.457-.101c-4.473-.008-8.941 0-13.41-.012-.637 0-1.281-.011-1.906-.117-1.036-.172-1.489-.695-1.602-1.738a12.916 12.916 0 01-.063-1.348c-.003-4.02-.007-8.039 0-12.058.004-2.59.797-3.407 3.415-3.532.523-.023 1.05-.023 1.578-.023h28.507" fill-rule="evenodd" fill="#020303"/><g clip-path="url(#a)"><path d="M503 98.156c1.219-3.027 2.438-6.05 3.656-9.078a9470.06 9470.06 0 004.778-11.91c.57-1.422 1.382-2.664 2.613-3.606.832-.636 1.762-.972 2.816-.968 4.32.004 8.64-.016 12.957.015a8.985 8.985 0 012.328.332c1.106.317 1.497 1.055 1.243 2.164a9.162 9.162 0 01-.52 1.485c-9.894 23.277-19.8 46.55-29.695 69.828-.524 1.227-1.18 2.344-2.149 3.273-1.02.98-2.203 1.493-3.644 1.48-3.758-.03-7.516-.003-11.274-.019a13.406 13.406 0 01-2.015-.168c-1.696-.261-2.258-1.156-1.77-2.777.14-.465.34-.914.528-1.363 2.449-5.809 4.886-11.625 7.359-17.422.285-.68.281-1.242.008-1.918-6.805-16.8-13.594-33.606-20.383-50.41-.195-.489-.406-.977-.535-1.48-.38-1.528.222-2.509 1.758-2.821a10.51 10.51 0 012.011-.191c5.52-.012 11.043.011 16.567-.02 1.527-.008 2.765.547 3.832 1.594.902.886 1.492 1.96 1.906 3.148 2.313 6.586 4.645 13.164 6.969 19.746.133.375.285.746.426 1.121l.23-.035" fill-rule="evenodd" fill="#020303"/></g><path d="M362.86 131.41c-8.06-.207-14.735-.844-21.286-2.5-.726-.183-1.43-.457-2.152-.644-.707-.188-1.043-.625-1.188-1.328-.476-2.372-.625-4.766-.582-7.168.028-1.383.235-2.766.375-4.145.032-.297.121-.59.207-.875.5-1.691.895-1.93 2.606-1.473 5.344 1.438 10.793 1.817 16.297 1.606.968-.035 1.937-.223 2.883-.45a3.957 3.957 0 001.5-.734c.968-.754 1.03-2.02.109-2.824-.613-.531-1.336-.977-2.07-1.336-1.344-.664-2.747-1.203-4.102-1.848-2.305-1.093-4.629-2.148-6.863-3.367-2.36-1.277-4.473-2.937-6.102-5.09-3.836-5.07-4.664-10.636-2.43-16.578 1.043-2.789 3.083-4.855 5.497-6.55 3.25-2.282 6.91-3.575 10.742-4.45 4.574-1.047 9.215-1.242 13.883-1.144 3.492.07 6.98.218 10.418.914.804.16 1.586.449 2.386.64.817.196 1.242.727 1.262 1.516.035 1.383.086 2.777-.035 4.152a22.317 22.317 0 01-1.317 5.801 10.04 10.04 0 01-.347.828c-.883 1.89-1.363 2.125-3.414 1.867a445.787 445.787 0 00-9.395-1.078c-.965-.097-1.953-.035-2.922.028-.593.039-1.191.172-1.761.34-.805.238-1.395.73-1.54 1.617-.136.86.426 1.336 1.036 1.718.98.614 1.992 1.2 3.027 1.723 2.313 1.164 4.676 2.223 6.965 3.43 2.765 1.46 5.316 3.246 7.523 5.488 3.977 4.031 5.813 8.867 5.387 14.508-.121 1.637-.352 3.297-.8 4.871-1.169 4.105-3.766 7.11-7.5 9.152-2.942 1.606-6.126 2.473-9.423 2.856-2.714.316-5.46.422-6.875.527m35.856-43.262c-.93 0-1.746.004-2.567 0-.562-.007-1.132.008-1.687-.058-.98-.113-1.688-.653-2-1.586a5.805 5.805 0 01-.328-1.762c-.031-2.851-.02-5.707-.016-8.562 0-.149.012-.301.028-.45.18-1.882 1.152-2.855 3.043-2.957 1.125-.058 2.253-.023 3.382-.03.407-.005.817 0 1.332 0 .024-.446.063-.81.063-1.173.004-1.992.035-3.98-.012-5.972-.035-1.735.746-2.97 2.223-3.743.824-.43 1.719-.804 2.625-.964 4.433-.774 8.883-1.48 13.332-2.176.582-.09 1.195-.043 1.785.027.902.106 1.406.696 1.52 1.567.101.777.156 1.57.16 2.355.02 3.043.007 6.086.007 9.125 0 .262.036.52.06.883.343.023.663.066.987.066 1.84.008 3.684-.008 5.524.008 1.59.012 2.554.649 3.035 2.172.266.844.406 1.758.426 2.648.054 2.551.02 5.106.02 7.66 0 .227-.016.45-.028.676-.121 1.88-.793 2.551-2.676 2.586-1.879.032-3.758.004-5.633.008-.293 0-.582.04-.937.067-.02.425-.051.789-.051 1.156a19353 19353 0 000 21.297c0 2.136.723 3.004 2.844 3.3.699.098 1.418.082 2.129.063.812-.02 1 0 1.257.777.348 1.067.641 2.156.86 3.258.558 2.879.879 5.785.883 8.727 0 .375-.043.75-.032 1.125.028.754-.293 1.191-1.046 1.347-1.946.407-3.872.938-5.832 1.227-3.344.5-6.715.75-10.102.312-3.813-.492-7.305-1.707-10.11-4.46-2.542-2.5-3.913-5.583-4.261-9.09-.192-1.938-.192-3.903-.195-5.852-.008-7.586.015-15.172.027-22.758 0-.219-.024-.441-.04-.844m41.442 2.352c0-11.871 0-23.742.004-35.613 0-.45-.015-.903.024-1.352.132-1.5 1.086-2.48 2.582-2.664.41-.047.824-.055 1.238-.055 4.77-.004 9.543-.015 14.312.008.973.004 1.957.059 2.907.25 1.554.317 2.09.992 2.226 2.54.04.413.04.827.04 1.238 0 23.52 0 47.035-.005 70.554 0 .598-.02 1.203-.086 1.797-.171 1.555-.957 2.36-2.503 2.574-.485.067-.977.07-1.465.07-5.11.005-10.22.008-15.328-.003-.747 0-1.504-.047-2.243-.156-.867-.13-1.418-.66-1.543-1.555-.066-.485-.132-.973-.132-1.453-.016-7.102-.024-14.203-.028-21.301V90.5M224.05 104.105c0-6.12-.023-12.242.012-18.363a25.41 25.41 0 01.36-4.144c.61-3.43 2.578-5.84 5.754-7.274 2.082-.937 4.277-1.422 6.539-1.539 2.62-.14 5.25-.191 7.879-.207 6.195-.035 12.39-.031 18.59-.043.148 0 .3 0 .449.004 1.773.027 2.27.523 2.273 2.293.004 3.832 0 7.66 0 11.492 0 .262.008.528-.023.79-.133 1.097-.758 1.8-1.86 1.94-.851.106-1.722.06-2.586.122-1.906.14-3.812.281-5.714.48-1.594.168-3.028.828-4.414 1.594-2.45 1.355-3.684 3.453-3.864 6.207-.039.637-.039 1.277-.039 1.914-.004 8.488 0 16.977-.011 25.461 0 .785-.055 1.582-.196 2.352-.297 1.636-1.273 2.484-2.914 2.629a7.543 7.543 0 01-.785.035c-4.77.004-9.54.011-14.309-.008a8.693 8.693 0 01-2.004-.254c-1.707-.426-2.687-1.578-2.972-3.293-.125-.738-.16-1.496-.16-2.242-.012-6.649-.004-13.297-.004-19.946" fill-rule="evenodd" fill="#020303"/><path d="M68.89 68.387v.004c-5.183 0-10.37-.012-15.554.004-1.73.007-2.285.582-2.3 2.316-.013 1.805-.005 3.605 0 5.41 0 2.207.327 2.543 2.534 2.555 1.989.011 3.98.004 5.97.004 1.878.004 1.882.004 1.882 1.86 0 8.605 0 17.206.004 25.808 0 .527 0 1.054.07 1.574.172 1.238.555 1.656 1.828 1.687 3.149.075 6.305.079 9.457.094.414.004.828-.05 1.235-.113.914-.149 1.41-.598 1.578-1.512.097-.512.105-1.043.105-1.566.004-8.754 0-17.508.004-26.262 0-1.531.04-1.566 1.598-1.57 2.293-.004 4.586.011 6.875-.008.523-.004 1.047-.09 1.562-.172.5-.082.79-.422.883-.906a5.36 5.36 0 00.102-1.004c.007-1.953.015-3.906 0-5.86-.012-1.761-.551-2.3-2.278-2.34-.3-.007-.601-.003-.902-.003H68.891zm.063-16.258h24.442c.34 0 .68.012 1.015-.008.727-.043.836-.144.903-.86.027-.3.015-.6.015-.902 0-3.492.047-6.984-.02-10.472-.03-1.758-.136-3.532-.433-5.258-1.102-6.313-4.148-11.559-9.086-15.621-5.816-4.79-12.508-6.738-20.023-5.867-3.875.449-7.47 1.683-10.711 3.796-8.02 5.22-12.133 12.676-12.38 22.227-.097 3.79-.023 7.582-.027 11.375 0 1.586.008 1.59 1.641 1.59h24.664zm40.41-.082c.676.035 1.157.078 1.633.078 5.672.008 11.348-.012 17.02.02 2.043.011 4.027.414 5.875 1.34 3.5 1.753 4.734 4.617 3.968 8.316-1.234 5.984-2.632 11.937-3.964 17.902-2.399 10.762-4.793 21.524-7.196 32.285-.676 3.04-1.347 6.078-2.047 9.11-.715 3.093-2.23 5.64-5.086 7.234-1.714.953-3.597 1.266-5.52 1.356-1.124.054-2.253.011-3.382.011-28.773 0-57.55.004-86.324-.004-2.406 0-4.703-.476-6.73-1.863-2.18-1.492-3.497-3.598-4.098-6.133-.93-3.902-1.793-7.82-2.672-11.738a85895.11 85895.11 0 01-9.672-43.258C.805 65.09.375 63.488.148 61.86c-.164-1.172-.218-2.414-.023-3.574.336-1.996 1.582-3.445 3.324-4.457 2.035-1.18 4.262-1.672 6.578-1.683 5.637-.036 11.27-.016 16.907-.016 1.683 0 1.687-.004 1.687-1.668 0-3.379.012-6.762 0-10.14-.05-18.704 12.89-34.938 31.102-39.282 4.496-1.07 9.05-1.262 13.64-.793 7.801.797 14.746 3.695 20.832 8.582 7.442 5.973 12.203 13.66 14.27 22.988.601 2.715.906 5.473.906 8.258 0 3.496-.004 6.989-.008 10.48v1.493" fill-rule="evenodd" fill="#6ebe44"/><g clip-path="url(#b)"><path d="M80.418 148.86c-.152-8.301 7.012-15.81 16.023-15.715 8.528.09 15.746 7.203 15.684 15.984-.066 8.781-7.398 16.004-16.348 15.777-8.082-.207-15.593-7.07-15.359-16.047" fill-rule="evenodd" fill="#6ebe44"/></g><g clip-path="url(#c)"><path d="M57.566 149.016c.164 8.613-7.12 15.906-15.855 15.89-8.754-.008-15.895-7.34-15.856-15.93.04-8.812 7.375-15.87 15.95-15.835 8.5.035 15.902 7.101 15.761 15.875" fill-rule="evenodd" fill="#6ebe44"/></g></svg>