<svg xmlns="http://www.w3.org/2000/svg" width="140" height="32.866" viewBox="0 0 37.042 8.696"><path d="M32.608.133a4.32 4.32 0 011.874.426c.09.04.18.089.269.137l-.391.347-.586-.604-1.01.886-.595-.637L30.31 2.34l1.19 1.297-.465.402 1.174 1.297-.465.402 1.679 1.844.993-.902.864.967a4.803 4.803 0 01-.562.37 4.291 4.291 0 01-2.102.548c-2.354 0-4.269-1.892-4.269-4.22-.008-2.31 1.907-4.212 4.26-4.212zm-.782 3.953l1.019-.902.912 1.007-1.019.902-.912-1.007zm.725 1.74l1.01-.91.921 1.007-1.019.902-.912-.999zm-1.45-3.455l1.019-.902.912 1.007-1.018.902zm1.866-.483l.757-.676.685.749-.758.684-.684-.757zm1.352 3.1l.757-.676.685.757-.758.677-.684-.758zm.668 1.523l.758-.677.684.749-.758.684zm.31-3.48l.505-.45.456.499-.505.45-.457-.499zm-.652-1.49l.505-.458.457.507-.506.452-.456-.5zm1.295 2.98l.505-.45.464.499-.513.45-.456-.498zm-2.272-1.119l.757-.676.684.749-.757.676-.684-.749zM2.367 3.037h-.039l-.721 2.74h-.59L.132 1.884h.612l.612 2.905h.038l.71-2.905h.486l.76 2.905h.038l.557-2.905h.64l-.886 3.893h-.59M5.361 4.12h1.25c-.027-.577-.305-.807-.6-.807-.334 0-.59.258-.65.807m1.688 1.032v.417a1.92 1.92 0 01-.968.253c-.918 0-1.294-.571-1.294-1.438 0-.835.42-1.439 1.24-1.439.683 0 1.103.445 1.103 1.34v.203H5.35c0 .658.267.95.83.95.295 0 .568-.105.868-.286m1.354.23c.174.077.366.088.502.088.405 0 .71-.253.71-1.142 0-.697-.251-.922-.617-.922-.218 0-.377.06-.595.18v1.796zm.005-2.201c.164-.088.442-.204.738-.204.677 0 1.043.472 1.043 1.35 0 1.027-.492 1.527-1.284 1.527-.29 0-.737-.093-1.065-.27v-3.83l.568-.138v1.565zm4.24 1.77h.027l1.169-3.07h.677v3.894h-.59V2.952h-.049l-1.114 2.823h-.35l-1.114-2.756h-.05v2.756h-.491V1.882h.661m5.508 2.502c0-.741-.3-1.054-.672-1.054-.36 0-.672.313-.672 1.054 0 .752.285 1.053.672 1.053.388 0 .672-.301.672-1.054m-1.917 0c0-.96.525-1.438 1.246-1.438s1.245.477 1.245 1.438c0 .939-.497 1.439-1.245 1.439-.749 0-1.245-.5-1.245-1.439m2.922-1.032c.246-.148.765-.406 1.393-.406.656 0 .901.258.901.823v1.988h-.568v-1.86c0-.435-.212-.511-.491-.511a1.51 1.51 0 00-.667.197v2.174h-.568V3.351zm3.497.769h1.25c-.026-.577-.305-.807-.6-.807-.334 0-.59.258-.65.807m1.687 1.032v.417a1.917 1.917 0 01-.967.253c-.917 0-1.294-.571-1.294-1.438 0-.835.42-1.439 1.24-1.439.682 0 1.104.445 1.104 1.34v.203h-1.78c0 .658.266.95.829.95.295 0 .569-.105.868-.286m2.352-2.207h.585l-.99 2.744c-.273.758-.605 1.153-1.234 1.153v-.45c.372 0 .601-.295.733-.702l-1.05-2.745h.601l.7 2.02h.033l.622-2.02z" fill="#006cb4"/></svg>