<svg xmlns="http://www.w3.org/2000/svg" width="3779.533" height="6047.24" viewBox="0 0 2834.65 4535.43"><path d="M815.906 2082.543a15.873 15.873 0 01-7.164 1.719c-5.976 0-11.164-3.285-13.894-8.149l-1.043-2.285-43.492-95.433c-.47-1.04-.758-2.211-.758-3.356a7.962 7.962 0 0112.726-6.383l51.32 36.54a23.757 23.757 0 0013.047 3.89c2.872 0 5.614-.535 8.168-1.461l241.348-107.418c-43.262-50.988-114.508-84.309-195.137-84.309-131.937 0-238.882 89.125-238.882 199.079 0 59.98 32.175 113.976 82.539 150.472 4.039 2.883 6.687 7.625 6.687 12.973 0 1.765-.379 3.387-.84 5.07-4.023 15.004-10.46 39.035-10.765 40.16-.5 1.883-1.282 3.848-1.282 5.82a7.96 7.96 0 007.97 7.962c1.722 0 3.136-.641 4.593-1.48l52.297-30.196c3.937-2.27 8.097-3.676 12.691-3.676 2.438 0 4.797.375 7.016 1.055 24.398 7.015 50.722 10.918 77.976 10.918 131.934 0 238.895-89.137 238.895-199.078 0-33.305-9.871-64.665-27.215-92.254l-275.059 158.812zm561.449-38.285l-3.171 11.262c-2.653 9.398-4.996 17.695-7.024 25.894-2.578-12.09-6.152-25.602-9.36-37.527l-21.288-80.274-.371-1.422h-13.957l-23.809 82.223c-4.266 13.906-8.043 26.461-10.695 37.445-2.04-8.683-4.493-18.367-7.067-28.535l-23.09-89.71-.386-1.423h-16.106l38.688 146.489.37 1.437h13.731l24.88-83.926c4.34-14.308 7.612-25.554 9.976-35.379 2.117 10.376 5.058 21.77 8.746 35.278l21.504 82.601.37 1.426h13.938l43.59-145.457.75-2.469h-16.183zm58.922.515c3.922-22.03 18.387-29.918 30.762-29.918 7.871 0 14.176 2.364 18.781 7.051 6.793 6.895 8.332 16.899 8.602 22.867zm32.032-43.93c-28.946 0-48.399 23.188-48.399 57.704 0 32.105 20.133 53.683 50.094 53.683 18.832 0 29.527-4.832 33.254-6.894l2.293-1.281-6.785-11.75-1.598.734c-5.297 2.457-12.512 4.965-25.89 4.965-21.942 0-34.95-14.434-35.84-39.633h74.19l.49-2.187c.472-2.204.472-3.809.472-6.723 0-3.957-.547-17.79-7.7-29.797-7.417-12.492-19.054-18.82-34.581-18.82m161.765 91.266h-.012c-8.003 3.683-19.218 5.894-30.023 5.894-35.95 0-57.41-22.723-57.41-60.79 0-39.519 22.094-63.12 59.101-63.12 10.239 0 19.97 1.93 27.415 5.43l1.601.753 7.227-12.547-2.16-1.183c-2.856-1.57-13.762-6.68-34.297-6.68-44.868 0-75.016 30.992-75.016 77.13 0 55.526 37.797 75.233 70.164 75.233 18.234 0 32.45-3.859 39.684-7.472l2.359-1.192-7.043-12.191zm73.098-91.266c-7.918 0-15.508 2.176-21.879 6.277-3.668 2.106-7.082 5.008-9.992 8.477v-55.73h-15.692v150.245h15.692v-64.66c0-3.879.176-6.379 1.113-9.219 4.399-12.336 15.922-20.957 28.012-20.957 21.836 0 25.097 20.09 25.097 32.075v62.761h15.704v-63.812c0-43.27-31.707-45.457-38.055-45.457m178.215-20.454h-15.715v23.758h-17.106v12.825h17.106v61.222c0 12.192 2.281 20.72 6.93 25.996 4.21 5.391 10.964 8.247 19.511 8.247 5.934 0 11.078-.93 15.27-2.766l2.531-1.106-6.598-11.418-1.367.301c-2.375.504-5.254.762-8.558.762-8.414 0-12.004-5.418-12.004-18.117v-63.121h28.937v-12.825h-28.937zm113.832-4.019c3.074-.516 8.847-1.219 17.281-1.219 22.934 0 36.082 10.84 36.082 29.743 0 20.378-13.844 32.07-37.98 32.07-4.68 0-10.582-.168-15.383-1.406zm17.703-15.23a176.6 176.6 0 00-31.113 2.777l-2.293.414v145.79h15.703v-60.11c4.23.785 8.922.96 14.547.96 18.828 0 34.406-5.956 43.879-16.745 7.152-7.856 10.644-17.797 10.644-30.395 0-12.297-4.09-22.617-11.832-29.867-8.59-8.383-22.258-12.824-39.535-12.824m224.281 42.027l-25.375 67.465c-2.035 5.297-3.832 10.574-5.348 15.066a311.561 311.561 0 00-5.097-14.465l-26.621-66.312-.692-1.754h-16.773l39.125 97.8c1.055 2.66 1.078 3.38 1.078 3.38 0 .699-.55 2.125-1.055 3.382-5.047 11.977-11.648 20.012-16.273 24.633-6.36 6.121-13.235 9.274-16.777 10.594l-2.848 1.043 11.836 12.266c2.672-1.012 6.84-4.079 14.719-10.72 13.503-11.776 22.039-29.679 34.98-62.937l30.887-76.808 1.086-2.633zm-456.734 62.586c6.836-6.629 19.664-9.984 38.136-9.984l1.91.011.032 19.028c0 1.332-.152 3.312-.91 5.222-3.035 8.903-11.813 18.399-27.356 18.399-8.078 0-17.5-4.809-17.5-18.336 0-5.844 1.91-10.664 5.688-14.34m55.781 17.5v-39.7c0-27.945-13.094-42.71-37.848-42.71-10.933 0-22.652 3.41-31.293 9.097l-1.625.98 6.817 11.79 1.715-1.145c6.347-4.324 14.64-6.718 23.332-6.718h.359c6.98 0 12.41 1.875 16.137 5.574 4.504 4.457 6.691 11.457 6.703 21.379-24.254.082-41.762 5.277-52.059 15.476-6.523 6.461-9.828 14.703-9.828 24.496 0 14.77 10.192 30.668 32.567 30.668 15.597 0 25.582-7.546 30.816-13.07l1.082 10.746h15.074l-.515-3.222c-1.262-7.813-1.434-15.98-1.434-23.641m293.672-8.445c0 1.34-.152 3.336-.899 5.222-3.043 8.89-11.82 18.403-27.359 18.403-8.074 0-17.5-4.813-17.5-18.34 0-5.844 1.91-10.664 5.691-14.34 6.832-6.629 19.668-9.984 38.125-9.984l1.93.011zm15.703 8.441v-39.691c0-27.95-13.082-42.715-37.84-42.715-10.312 0-21.555 3.129-30.074 8.363l-1.578.992 6.742 11.668 1.684-1.054c6.183-3.84 14.058-5.965 22.175-5.965h.375c6.957 0 12.387 1.875 16.125 5.57 4.493 4.465 6.676 11.46 6.688 21.383-24.23.082-41.738 5.289-52.047 15.476-6.52 6.465-9.824 14.7-9.824 24.5 0 14.762 10.191 30.66 32.55 30.66 15.61 0 25.602-7.535 30.829-13.07l1.074 10.75h15.094l-.52-3.222c-1.277-7.844-1.453-15.993-1.453-23.645" fill="#40b93c"/></svg>