<svg xmlns="http://www.w3.org/2000/svg" viewBox="0 0 512.5 512.5" width="512" height="512"><g fill="#d6b8c6"><path d="M504.75 418.5a7.5 7.5 0 00-7.5 7.5v78.5c0 9.673 15 9.673 15 0V426a7.5 7.5 0 00-7.5-7.5zm0-169.145h-58.894v-27.043h18.011c10.964 0 19.883-8.919 19.883-19.883V19.884C483.75 8.92 474.831 0 463.867 0H184.059c-10.964 0-19.883 8.92-19.883 19.884v26.929c0 9.673 15 9.673 15 0V19.884A4.889 4.889 0 01184.059 15h279.809a4.89 4.89 0 014.883 4.884v145.429h-22.894V85.406a7.499 7.499 0 00-10.212-6.993c-1.962.761-43.34 17.659-52.146 86.899H179.176v-79.5c0-9.673-15-9.673-15 0v116.617c0 10.964 8.919 19.883 19.883 19.883h100.746v27.043H114.516c16.612-16.594 18.234-42.871 18.234-64.949a7.5 7.5 0 00-7.5-7.5h-40.5v-14.159c24.06 5.114 50.288-14.616 49.967-39.645-.043-3.352-.459-6.758-3.556-8.803-14.246-9.403-33.866-5.485-46.411 4.783v-13.529c21.433-14.793 23.025-49.629 2.429-65.889-2.075-1.638-4.371-3.197-6.834-4.201-10.571-4.316-22.191 14.513-24.71 21.781-5.951 17.174-.568 36.926 14.114 47.824v13.931c-9.627-7.833-22.2-11.696-34.483-9.236-5.076 1.017-13.971 3.314-15.078 9.467-4.758 26.476 25.235 48.643 49.562 43.539v14.137h-43.5a7.5 7.5 0 00-7.5 7.5c0 22.047 1.196 48.357 17.806 64.949H7.75a7.5 7.5 0 00-7.5 7.5V504.5c0 9.673 15 9.673 15 0v-35h135.5v35c0 9.673 15 9.673 15 0v-191h265.215c.039 2.613.289 16.688.32 20.906H304.356c-29.651 0-51.62 7.718-65.298 22.939-16.422 18.274-14.26 40.426-14.159 41.359a7.5 7.5 0 007.457 6.701h96.894v13.5h-29.5c-9.673 0-9.673 15 0 15h29.5V497h-96c-9.673 0-9.673 15 0 15h100.825c.832.318 1.731.5 2.675.5s1.843-.182 2.675-.5H440.25c9.673 0 9.673-15 0-15h-96v-91.594h50.106c17.218 0 29.664-4.151 38.052-12.69 14.699-14.965 14.251-40.022 13.684-71.747-.044-2.454-.087-4.95-.125-7.47h51.283V384c0 9.673 15 9.673 15 0V256.855a7.5 7.5 0 00-7.5-7.5zM97.276 128.496c9.652-6.124 18.049-4.681 22.421-3.137-1.32 15.547-20.221 26.86-34.668 21.963.606-4.811 3.048-12.99 12.247-18.826zm-49.852 15.601c-6.372-4.043-11.792-11.005-12.493-18.742 15.02-5.28 32.683 6.418 34.64 21.967-7.285 2.47-15.761.826-22.147-3.225zm30.213-92.928c12.56 9.554 11.997 31.359-.044 41.054-3.715-3.055-9.319-9.481-9.319-20.441-.001-11.43 5.717-17.747 9.363-20.613zM33.856 191.906h83.781c-1.27 40.515-13.362 56.5-41.888 56.5-28.917.001-40.677-15.47-41.893-56.5zm387.851 190.299c-5.421 5.519-14.367 8.201-27.351 8.201H240.013c.694-5.988 3.006-15.026 10.203-23.035 10.712-11.921 28.927-17.965 54.141-17.965h126.736c-.62 14.699-2.842 26.137-9.386 32.799zm47.043-201.892v22.117a4.888 4.888 0 01-4.883 4.883h-18.011v-27h22.894zm-49.624-68.955c4.084-5.395 8.19-9.41 11.73-12.322v187.863c-3.528-3.023-7.604-7.146-11.659-12.622-14.615-19.739-22.341-48.049-22.341-81.872 0-33.773 7.702-61.799 22.27-81.047zm-35.253 110.955c1.432 10.095 3.553 19.077 6.138 27.043h-26.89v-27.043h20.752zm-204.697-19.884v-22.117h202.993a230.97 230.97 0 00.169 27H184.059a4.887 4.887 0 01-4.883-4.883zm120.629 19.884h48.316v27.043h-48.316v-27.043zm96.096 42.042c7.815 16.7 17.516 27.488 25.365 34.145H15.25v-34.145h380.651zM15.25 454.5v-63h135.5v63H15.25zm135.5-78H15.25v-63h135.5v63zm295.106-78v-34.145h51.394V298.5h-51.394z"/><path d="M54.75 352.5h57c9.673 0 9.673-15 0-15h-57c-9.673 0-9.673 15 0 15zm57 63h-57c-9.673 0-9.673 15 0 15h57c9.673 0 9.673-15 0-15z"/></g></svg>