<svg fill="#fff" height="512" width="512" xmlns="http://www.w3.org/2000/svg"><path d="M444.382 306.14C459.39 276.48 467 244.471 467 211 467 94.654 372.346 0 256 0c-44.469 0-87 13.672-122.998 39.538a7.5 7.5 0 008.753 12.182C175.187 27.697 214.691 15 256 15c108.075 0 196 87.925 196 196 0 60.638-27.248 116.603-74.844 154.054-1.897-.159-176.236 0-178.156-.054-4.142 0-7.5 3.357-7.5 7.5s3.358 7.5 7.5 7.5h176.5c6.893 0 12.5 5.607 12.5 12.5V431h-63c-4.142 0-7.5 3.357-7.5 7.5s3.358 7.5 7.5 7.5h80.5c6.893 0 12.5 5.607 12.5 12.5v36c0 1.379-1.122 2.5-2.5 2.5h-318a2.503 2.503 0 01-2.5-2.5v-36c0-6.893 5.607-12.5 12.5-12.5H290c4.142 0 7.5-3.357 7.5-7.5s-3.358-7.5-7.5-7.5H125v-38.5c0-6.893 5.607-12.5 12.5-12.5H164c4.142 0 7.5-3.357 7.5-7.5s-3.358-7.5-7.5-7.5c-1.22.045-28.733-.12-29.068.124C87.277 327.673 60 271.692 60 211c0-51.652 19.919-100.4 56.089-137.263a7.5 7.5 0 10-10.707-10.505C66.444 102.916 45 155.395 45 211c0 33.521 7.632 65.575 22.684 95.271 12.628 24.914 30.388 47.376 51.726 65.544-5.761 5.044-9.41 12.445-9.41 20.686V431h-2.5C92.336 431 80 443.337 80 458.5v36c0 9.649 7.851 17.5 17.5 17.5h318c9.649 0 17.5-7.851 17.5-17.5v-36c0-15.163-12.336-27.5-27.5-27.5H403v-38.5c0-8.475-3.856-16.064-9.902-21.113 21.15-18.122 38.752-40.479 51.284-65.247z"/><path d="M363.18 106.052c-1.435-4.265-4.923-7.351-9.331-8.257l-24.498-5.034-12.806-21.483c-4.493-8.145-17.286-8.007-21.604.225l-12.359 21.742-24.389 5.541c-9.13 1.754-12.958 13.964-6.462 20.616l16.86 18.473-2.267 24.907c-1.165 9.228 9.305 16.639 17.61 12.518l22.779-10.326 22.988 9.853c8.417 3.949 18.691-3.681 17.346-12.88l-2.782-24.854 16.475-18.818c2.963-3.389 3.875-7.958 2.44-12.223zm-30.931 21.991a12.537 12.537 0 00-3.015 9.62l2.427 21.684-20.056-8.597a12.53 12.53 0 00-10.083.105l-19.872 9.009 1.978-21.73a12.536 12.536 0 00-3.216-9.558l-14.708-16.115 21.278-4.834a12.525 12.525 0 008.096-6.013l10.782-18.967 11.171 18.738a12.529 12.529 0 008.221 5.846l21.371 4.393zm-104.063 41.79l-.001-.002c-3.957-7.125-15.11-6.984-18.918.198l-8.011 14.093-15.807 3.592c-7.983 1.562-11.322 12.213-5.661 18.053l10.928 11.975-1.469 16.143c-.985 8.077 8.131 14.542 15.421 10.963l14.765-6.693 14.899 6.386c7.377 3.427 16.337-3.226 15.191-11.278l-1.803-16.11 10.677-12.196c5.54-5.958 1.981-16.534-6.032-17.934l-15.878-3.263zm7.073 38.779a10.969 10.969 0 00-2.645 8.431l1.227 10.966-10.146-4.348a10.959 10.959 0 00-8.829.093l-10.05 4.556 1-10.988A10.971 10.971 0 00203 208.95l-7.438-8.15 10.764-2.446a10.97 10.97 0 007.088-5.265l5.454-9.594 5.651 9.48a10.973 10.973 0 007.198 5.116l10.809 2.221z"/></svg>