<svg height="512" viewBox="0 0 60 60" width="512" xmlns="http://www.w3.org/2000/svg"><path d="M59 53.278V30a.978.978 0 00-.115-.443h.01l-2.448-4.895A2.983 2.983 0 0053.764 23H47v-1a1 1 0 00-.293-.707l-5.414-5.414A2.96 2.96 0 0040 15.13V8.385l2-.537v2.429a3.065 3.065 0 001.367 2.555 1 1 0 101.11-1.664 1.068 1.068 0 01-.477-.891V7.223a2 2 0 00-.48-3.663L30.514.068a1.991 1.991 0 00-1.028 0L16.48 3.56a2.011 2.011 0 000 3.88l3.52.945V15h-.063a2.99 2.99 0 00-2.3 1.08l-4.4 5.28A1 1 0 0013 22v1H6.236a2.983 2.983 0 00-2.683 1.658l-2.448 4.895h.01A.978.978 0 001 30v23.278A1.993 1.993 0 000 55v2a2 2 0 002 2h13.278A1.99 1.99 0 0017 60h26a1.993 1.993 0 001.722-1H58a2 2 0 002-2v-2a1.993 1.993 0 00-1-1.722zM44 53h-1V31h14v22zm-11 0h-6V42h6zm1-13h-8a1 1 0 00-1 1v12h-6V31h22v22h-6V41a1 1 0 00-1-1zm11-17v2H15v-2zm-2 4v2H17v-2zm10.764-2a.994.994 0 01.894.553L56.382 29H45v-2a2 2 0 002-2zM30 2l13.014 3.5h-.013L30.005 9 17 5.492zm-8 6.922l7.486 2.01c.337.09.691.09 1.028 0L38 8.922V15H22zm-2.831 8.438a1 1 0 01.768-.36h19.234a1 1 0 01.708.293L43.586 21H16.135zM5.342 25.553A.994.994 0 016.236 25H13a2 2 0 002 2v2H3.618zM2 55h13v2H2zm14-2H3V31h14v22zm1 5v-3h26v3zm41-1H45v-2h13z"/><path d="M27 33a1 1 0 00-1 1v2a1 1 0 002 0v-2a1 1 0 00-1-1zm-14 1a1 1 0 00-1 1v2a1 1 0 002 0v-2a1 1 0 00-1-1zm-6 0a1 1 0 00-1 1v2a1 1 0 002 0v-2a1 1 0 00-1-1zm6 6a1 1 0 00-1 1v2a1 1 0 002 0v-2a1 1 0 00-1-1zm-6 0a1 1 0 00-1 1v2a1 1 0 002 0v-2a1 1 0 00-1-1zm6 6a1 1 0 00-1 1v2a1 1 0 002 0v-2a1 1 0 00-1-1zm-6 0a1 1 0 00-1 1v2a1 1 0 002 0v-2a1 1 0 00-1-1zm46-12a1 1 0 00-1 1v2a1 1 0 002 0v-2a1 1 0 00-1-1zm-6 0a1 1 0 00-1 1v2a1 1 0 002 0v-2a1 1 0 00-1-1zm6 6a1 1 0 00-1 1v2a1 1 0 002 0v-2a1 1 0 00-1-1zm-6 0a1 1 0 00-1 1v2a1 1 0 002 0v-2a1 1 0 00-1-1zm6 6a1 1 0 00-1 1v2a1 1 0 002 0v-2a1 1 0 00-1-1zm-6 0a1 1 0 00-1 1v2a1 1 0 002 0v-2a1 1 0 00-1-1zM33 33a1 1 0 00-1 1v2a1 1 0 002 0v-2a1 1 0 00-1-1z"/></svg>