<svg xmlns="http://www.w3.org/2000/svg" fill="#fff" width="512" height="512"><path d="M496 424h-60a28.031 28.031 0 0028-28v-8a28.031 28.031 0 00-28-28h-19.45l-21.78-100.26A48.215 48.215 0 00346.96 216H304v-8a8.074 8.074 0 00-.49-2.75A59.858 59.858 0 00318.79 176H320a24.032 24.032 0 0024-24v-52a84.092 84.092 0 00-84-84h-8a84.092 84.092 0 00-84 84v52a24.032 24.032 0 0024 24h1.21a59.858 59.858 0 0015.28 29.25A8.074 8.074 0 00208 208v8h-42.96a48.215 48.215 0 00-47.81 43.74L98.93 344H92a27.525 27.525 0 00-6.65.81l-22.19-44.39a8.005 8.005 0 10-14.32 7.16l22.68 45.35A27.918 27.918 0 0064 372v24a28.031 28.031 0 0028 28H16a8 8 0 00-8 8v32a8 8 0 008 8h8v16a8 8 0 008 8h448a8 8 0 008-8v-16h8a8 8 0 008-8v-32a8 8 0 00-8-8zm-84-48h24a12.01 12.01 0 0112 12v8a12.01 12.01 0 01-12 12h-24a12.01 12.01 0 01-12-12v-8a12.01 12.01 0 0112-12zm-84-224a8.011 8.011 0 01-8 8v-32h8zm-136 8a8.011 8.011 0 01-8-8v-24h8zm-8-48v-12a68.071 68.071 0 0168-68h8a68.071 68.071 0 0168 68v12h-8v-4c0-1.53-.06-3.06-.17-4.55a8 8 0 00-10.94-6.82C270.77 111.81 200.7 112 200 112zm24 52v-36.12c18.1-.45 62.86-2.58 96-12.63V164a44.052 44.052 0 01-44 44h-8a44.052 44.052 0 01-44-44zm80 53.04V224c0 13.23-14.35 24-32 24s-32-10.77-32-24v-6.96a59.553 59.553 0 0028 6.96h8a59.553 59.553 0 0028-6.96zm-155.02 45.59a7.954 7.954 0 00.16-1.09 32.138 32.138 0 0131.9-29.54h43.93c4.46 18.24 23.85 32 47.03 32s42.57-13.76 47.03-32h43.93a32.138 32.138 0 0131.9 29.54 7.954 7.954 0 00.16 1.09l21.68 99.76A28.035 28.035 0 00384 388v8a28.031 28.031 0 0028 28h-36V300a28.031 28.031 0 00-28-28H164a28.031 28.031 0 00-28 28v124h-36a28.031 28.031 0 0028-28v-24a27.987 27.987 0 00-13.57-23.98zM360 300v124H152V300a12.01 12.01 0 0112-12h184a12.01 12.01 0 0112 12zM80 396v-24a12.01 12.01 0 0112-12h8a12.01 12.01 0 0112 12v24a12.01 12.01 0 01-12 12h-8a12.01 12.01 0 01-12-12zm392 84H40v-8h432zm16-24H24v-16h464z"/><path d="M256 336a32 32 0 1032 32 32.036 32.036 0 00-32-32zm0 48a16 16 0 1116-16 16.019 16.019 0 01-16 16z"/><circle cx="232" cy="144" r="8"/><circle cx="280" cy="144" r="8"/><path d="M248 192h16a8 8 0 000-16h-16a8 8 0 000 16z"/></svg>