<svg width="285" height="285" fill="none" xmlns="http://www.w3.org/2000/svg"><path d="M98.808 54.678l4.782-50.397 29.716 40.987L155.975 0l12.899 48.952 37.497-34.022-5.664 50.304 47.259-18.187-23.459 44.861 50.641.108-38.087 33.362 47.182 18.387-47.569 17.356 37.351 34.183-50.63-.993 22.477 45.36-46.852-19.207 4.567 50.416-36.749-34.831-13.961 48.66-21.676-45.751-30.602 40.332-3.685-50.485-43.11 26.555 14.812-48.407-49.797 9.199 31.304-39.795-49.76-9.406 43.575-25.796L.939 114.416l49.95-8.326-30.433-40.46 49.587 10.275-13.758-48.717 42.523 27.49z" fill="#E6007E"/></svg>