<svg width="60" height="60" fill="none" xmlns="http://www.w3.org/2000/svg"><path d="M60 13.69v18.163s-3.887.766-4.688.867c-.798.1-3.307.91-5.125-.837-2.804-2.687-12.765-12.594-12.765-12.594s-1.718-1.686-4.476-.229c-2.531 1.334-6.284 3.29-7.852 4.051-2.963 1.578-5.419-.925-5.419-2.83 0-1.48.923-2.483 2.242-3.22 3.574-2.168 11.107-6.396 14.245-8.063 1.907-1.015 3.281-1.101 5.9 1.104a764.254 764.254 0 016.094 5.185s.936.78 2.429.466C54.25 14.978 60 13.691 60 13.691zM20.35 44.466c.482-1.24.321-2.625-.604-3.576-.83-.851-2.044-1.075-3.201-.81.323-1.148.145-2.369-.69-3.231-.835-.849-2.046-1.077-3.202-.81.32-1.145.143-2.367-.694-3.226-1.309-1.343-3.573-1.285-5.06.133-1.48 1.42-2.428 3.992-1.108 5.506 1.319 1.507 2.834.59 3.989.327-.322 1.146-1.284 2.212-.099 3.712s2.834.59 3.99.329c-.323 1.141-1.243 2.314-.103 3.705 1.15 1.395 3.034.651 4.278.265-.48 1.235-1.508 2.566-.187 4.057 1.319 1.502 4.366.807 5.854-.613 1.485-1.42 1.627-3.67.321-5.017-.901-.924-2.245-1.14-3.484-.75zm27.159-9.449c-10.76-10.76-5.699-5.697-11.49-11.5 0 0-1.74-1.732-4.033-.726-1.61.706-3.683 1.667-5.243 2.402-1.714.898-2.947 1.177-3.526 1.173-3.314-.022-6.002-2.685-6.002-5.995 0-2.148 1.14-4.017 2.84-5.079 2.391-1.654 7.895-4.581 7.895-4.581s-1.677-2.125-5.35-2.125c-3.671 0-11.343 5.026-11.343 5.026s-2.176 1.394-5.278.138L0 11.667V32.45s1.707.494 3.241 1.12c.347-.987.906-1.9 1.681-2.653 2.545-2.424 6.764-2.45 9.08-.065a5.728 5.728 0 011.432 2.545 5.799 5.799 0 012.458 1.498c.7.72 1.184 1.59 1.434 2.54.932.288 1.776.8 2.458 1.5A5.872 5.872 0 0123.3 41.72a5.882 5.882 0 012.564 1.536c1.391 1.43 1.885 3.369 1.586 5.24.002 0 .007 0 .01.004.022.03.861.965 1.385 1.493a2.643 2.643 0 003.73 0 2.648 2.648 0 000-3.73c-.037-.037-3.701-3.87-3.406-4.166.292-.296 4.96 4.562 5.048 4.65a2.644 2.644 0 003.727 0 2.643 2.643 0 000-3.727c-.05-.048-.26-.249-.338-.33 0 0-4.629-4.122-4.276-4.475.356-.354 6.106 5.011 6.115 5.011 1.033.93 2.625.924 3.62-.07.967-.968.988-2.498.13-3.53-.018-.054-4.381-4.614-4.041-4.957.346-.348 4.663 4.098 4.672 4.107a2.645 2.645 0 003.728 0 2.65 2.65 0 000-3.732l-.046-.027z" fill="#323232"/></svg>