<svg width="263" height="104" fill="none" xmlns="http://www.w3.org/2000/svg"><path fill-rule="evenodd" clip-rule="evenodd" d="M138.035 53.861c-.452.229-.888.48-1.302.756v-7.703h-14V76.34h14v-1.93c.405.27.827.52 1.265.747l.029.014.026.014c1.994.992 4.168 1.45 6.45 1.45 2.293 0 4.476-.455 6.467-1.46l.018-.008a12.615 12.615 0 002.529-1.695l-2.196 4.486 2.707 1.801c1.4.932 2.993 1.573 4.704 1.989 1.713.436 3.512.641 5.38.641 3.706 0 7.127-.924 9.705-3.305a10.578 10.578 0 002.168-2.745h11.183v-.407a22.268 22.268 0 005.564.703c2.102 0 4.101-.288 5.896-.996 1.388-.546 2.69-1.322 3.743-2.413.242.286.505.56.792.822l.012.01.012.012c2.109 1.887 4.841 2.565 7.646 2.565 1.04 0 2.08-.084 3.083-.296h13.003V74.39c.438.29.898.555 1.379.794l.018.009c2.014.988 4.212 1.441 6.52 1.441 2.494 0 4.86-.545 6.934-1.812l.093-.057c1.16.603 2.476 1.029 3.864 1.337a22.28 22.28 0 004.851.532c2.102 0 4.102-.288 5.896-.996 1.698-.668 3.268-1.681 4.41-3.193 1.096-1.452 1.694-3.155 1.694-5.006 0-1.965-.533-4.027-2.087-5.626L263 55.735l-2.982-1.575c-1.219-.644-2.579-1.068-4.007-1.335a21.327 21.327 0 00-4.257-.423c-2.074 0-4.051.292-5.837.995l-.019.008c-1.041.417-2.031.964-2.902 1.676a11.042 11.042 0 00-1.226-.867c-2.074-1.267-4.44-1.812-6.934-1.812-2.308 0-4.506.453-6.52 1.441l-.018.009c-.471.235-.924.495-1.356.78a7.275 7.275 0 00.654-3.06c0-2.047-.831-3.886-2.403-5.216-1.558-1.315-3.445-1.785-5.274-1.785-1.884 0-3.771.53-5.319 1.885a6.799 6.799 0 00-1.859 2.594h-12.614v4.262a16.533 16.533 0 00-1.961-.487 21.33 21.33 0 00-4.258-.423c-2.073 0-4.05.292-5.837.995l-.018.008c-.163.065-.325.133-.485.205a7.482 7.482 0 00.277-2.039c0-2.046-.83-3.885-2.404-5.215-1.557-1.315-3.444-1.785-5.272-1.785-1.885 0-3.771.53-5.32 1.885-1.551 1.354-2.357 3.197-2.357 5.234 0 .342.023.679.068 1.009h-7.074a11.602 11.602 0 00-2.669-.297 11.57 11.57 0 00-5.592 1.42 10.798 10.798 0 00-3.007 2.392 11.938 11.938 0 00-3.257-2.358c-1.988-1-4.169-1.454-6.458-1.454-2.282 0-4.456.458-6.45 1.45l-.018.01zm-2.885 10.643c0-1.622.402-3.065 1.205-4.33.12-.191.246-.375.378-.553.762-1.023 1.744-1.837 2.946-2.444 1.432-.712 3.04-1.068 4.824-1.068 1.803 0 3.411.356 4.823 1.068 1.177.586 2.136 1.366 2.877 2.34.159.21.307.429.446.656.704 1.11 1.101 2.355 1.189 3.737a9.7 9.7 0 01.017.594c0 1.621-.402 3.075-1.206 4.36-.04.066-.083.132-.126.198-.776 1.172-1.841 2.105-3.197 2.798-1.412.712-3.02 1.067-4.823 1.067-1.784 0-3.392-.355-4.824-1.067-1.202-.623-2.184-1.44-2.946-2.451a8.842 8.842 0 01-.378-.545c-.803-1.285-1.205-2.739-1.205-4.36zm21.266-5.117a8.51 8.51 0 00-.275.43c-.705 1.187-1.059 2.551-1.059 4.093 0 .201.007.399.019.594.08 1.303.426 2.48 1.04 3.53l.02.032c.177.294.367.57.574.831a7.331 7.331 0 002.23 1.895 8.208 8.208 0 002.214.79 8.355 8.355 0 001.638.16c.212 0 .418-.008.618-.02a6.951 6.951 0 001.609-.288 4.805 4.805 0 001.933-1.117 5.26 5.26 0 00.282-.296v.296c0 1.108-.304 1.948-.912 2.522-.607.573-1.578.86-2.912.86-.204 0-.409-.008-.618-.024a9.789 9.789 0 01-2.146-.421l-.16-.05c-.889-.29-1.631-.659-2.223-1.107l-2.235 4.568c.62.412 1.321.761 2.104 1.047a13.314 13.314 0 001.456.436c1.392.356 2.891.534 4.499.534 3.137 0 5.549-.781 7.235-2.343a7.1 7.1 0 001.822-2.64c.137-.34.255-.695.354-1.068.255-.962.383-2.04.383-3.233V56.406h-6.324v1.84c-.615-.894-1.468-1.507-2.562-1.84a6.648 6.648 0 00-1.114-.232 8.825 8.825 0 00-1.089-.065 7.924 7.924 0 00-3.852.98 7.156 7.156 0 00-2.549 2.298zm23.753-4.286c-1.03 0-1.891-.234-2.587-.703a3.794 3.794 0 01-.325-.246 3.592 3.592 0 01-.412-.437 3.054 3.054 0 01-.534-1.016 3.502 3.502 0 01-.143-1.009c0-.989.363-1.8 1.089-2.432.745-.653 1.715-.979 2.912-.979 1.215 0 2.186.306 2.911.92.726.612 1.089 1.404 1.089 2.372 0 .404-.057.78-.167 1.128a3.239 3.239 0 01-.51.973 3.625 3.625 0 01-.412.45c-.725.653-1.696.98-2.911.98zm6.999 3.121c-.205.194-.389.4-.554.616a4.558 4.558 0 00-.94 2.765v.053c0 1.325.343 2.343 1.029 3.055.15.152.305.293.465.424a5.34 5.34 0 001.976 1.03c.354.091.738.176 1.149.256.354.068.727.132 1.122.191a38.389 38.389 0 001.464.192c.425.053.778.106 1.06.16l.048.01c.139.026.261.053.363.08.391.1.588.277.588.534 0 .258-.157.455-.47.594-.11.044-.251.08-.424.107l-.017.003a7.81 7.81 0 01-1.148.068c-.186 0-.372-.005-.561-.015h-.01a11.76 11.76 0 01-.979-.093 13.111 13.111 0 01-1.697-.351 10.995 10.995 0 01-.859-.274l-.027-.01a8.557 8.557 0 01-1.485-.71l-1.823 4.419c.488.28 1.064.53 1.73.749a16.339 16.339 0 001.752.461 18.66 18.66 0 003.812.391c1.784 0 3.304-.247 4.559-.741 1.255-.494 2.195-1.157 2.824-1.987.152-.203.287-.411.403-.625.359-.66.537-1.372.537-2.134 0-.392-.03-.758-.092-1.097a6.16 6.16 0 00-.063-.294l-.041-.151a3.514 3.514 0 00-.732-1.374 2.675 2.675 0 00-.131-.139 5.289 5.289 0 00-2.011-1.325l-.063-.023a5.49 5.49 0 00-.337-.105 18.914 18.914 0 00-2.249-.476 31.02 31.02 0 00-1.339-.18c-.709-.087-1.238-.176-1.589-.264-.391-.118-.588-.306-.588-.563 0-.33.298-.554.894-.672l.066-.013a7.069 7.069 0 011.217-.087c.151 0 .302.004.452.01h.005c.329.015.654.044.974.09a9.302 9.302 0 012.494.722l.05.023.008.003c.224.104.446.217.663.339l1.824-4.42a6.92 6.92 0 00-.296-.148l-.044-.02a9.063 9.063 0 00-.995-.392 12.007 12.007 0 00-1.665-.419 17.752 17.752 0 00-3.559-.356c-1.744 0-3.245.248-4.499.742-.913.365-1.659.822-2.241 1.371zm14.429-.926h2.206v-4.538h6.647v4.538h3.295v4.894h-3.295v4.093c0 .495.128.88.383 1.157s.588.415.999.415c.084 0 .165-.003.246-.009a2.59 2.59 0 00.841-.206c.145-.063.282-.14.413-.23l1.589 4.657a5.761 5.761 0 01-1.424.564 8.04 8.04 0 01-.552.122l-.026.004c-.488.09-1.019.143-1.595.162a14.62 14.62 0 01-.491.008c-2.255 0-3.991-.543-5.206-1.63a5.06 5.06 0 01-1.194-1.647c-.295-.644-.487-1.38-.574-2.21-.037-.35-.056-.715-.056-1.097V62.19h-2.206v-4.894zm15.823-2.84c.68.43 1.513.645 2.499.645 1.215 0 2.187-.326 2.912-.979.154-.142.291-.292.412-.45.226-.297.396-.621.509-.973.111-.349.168-.724.168-1.128 0-.968-.363-1.76-1.089-2.372-.725-.614-1.697-.92-2.912-.92-1.196 0-2.166.326-2.912.979-.725.633-1.088 1.443-1.088 2.432 0 .358.049.694.143 1.009a3.054 3.054 0 00.534 1.016c.121.153.258.299.411.437.131.11.269.212.413.304zm9.121 5.717c.121-.186.246-.367.378-.54.78-1.029 1.782-1.847 3.005-2.456 1.451-.712 3.089-1.068 4.912-1.068 1.961 0 3.638.426 5.029 1.276.246.15.479.31.698.481l.125.1a6.53 6.53 0 012.06 2.949l-5.147 2.55a6.437 6.437 0 00-.202-.413c-.499-.927-1.16-1.48-1.98-1.658a2.883 2.883 0 00-.613-.064c-.783 0-1.441.277-1.97.83-.51.554-.765 1.335-.765 2.344 0 1.028.255 1.819.765 2.373.529.553 1.187.83 1.97.83.214 0 .417-.021.613-.063.82-.179 1.481-.732 1.98-1.66.07-.13.137-.267.202-.412l5.147 2.55a6.835 6.835 0 01-.699 1.434 6.446 6.446 0 01-1.486 1.615 7.91 7.91 0 01-1.589.95c-1.2.538-2.579.806-4.138.806-1.823 0-3.461-.355-4.912-1.067-1.223-.609-2.225-1.427-3.005-2.455a9.102 9.102 0 01-.378-.541c-.803-1.285-1.205-2.739-1.205-4.36 0-1.622.402-3.065 1.205-4.33zm16.742 11.153a9.02 9.02 0 001.55.688 16.576 16.576 0 001.934.522c1.253.261 2.523.391 3.811.391 1.783 0 3.303-.247 4.559-.741 1.254-.494 2.196-1.157 2.823-1.987.627-.83.941-1.75.941-2.759 0-.509-.052-.973-.156-1.391-.167-.671-.468-1.226-.902-1.664a5.296 5.296 0 00-2.412-1.453 18.934 18.934 0 00-2.25-.476 31.02 31.02 0 00-1.339-.18c-.708-.087-1.238-.176-1.587-.264-.393-.118-.59-.306-.59-.563 0-.33.3-.554.896-.672l.065-.013a7.056 7.056 0 011.216-.087c.152 0 .302.004.452.01h.005c.329.015.654.044.974.09a9.27 9.27 0 012.544.745l.008.003c.225.104.446.217.665.339l1.823-4.42a8.673 8.673 0 00-1.336-.56 12.652 12.652 0 00-1.665-.419 17.78 17.78 0 00-3.558-.356c-1.745 0-3.245.248-4.5.742-.723.29-1.344.637-1.859 1.042a5.164 5.164 0 00-.934.945 4.551 4.551 0 00-.942 2.765v.053c0 .352.024.683.073.991.102.653.313 1.208.631 1.667.099.142.207.274.325.397.131.132.266.257.405.373a5.34 5.34 0 002.324 1.152c.271.065.559.126.863.185.352.068.727.132 1.122.191a37.259 37.259 0 001.463.192c.424.053.777.106 1.059.16l.05.01c.139.026.259.053.361.08.393.1.588.277.588.534 0 .258-.156.455-.47.594a2 2 0 01-.424.107l-.016.003a7.82 7.82 0 01-1.148.068c-.186 0-.373-.005-.562-.015h-.008c-.324-.017-.65-.048-.981-.093a13.111 13.111 0 01-2.373-.56 8.635 8.635 0 01-.181-.065l-.028-.01a8.522 8.522 0 01-1.485-.71l-1.824 4.419zM133.057 50.622v22.009h-6.647V50.622h6.647zm43.788 22.009V56.406h6.647v16.225h-6.647zm39.751-16.225v16.225h6.647V56.406h-6.647z" fill="#fff"/><path d="M147.362 64.495c0 1.811-1.269 3.28-2.834 3.28-1.564 0-2.833-1.469-2.833-3.28 0-1.812 1.269-3.28 2.833-3.28 1.565 0 2.834 1.468 2.834 3.28zm20.114-.623c0 1.55-1.269 2.805-2.834 2.805-1.564 0-2.832-1.256-2.832-2.805 0-1.55 1.268-2.806 2.832-2.806 1.565 0 2.834 1.256 2.834 2.806zM21.304 0H0v86.516h57.285l-23.908-22.78H21.304V0z" fill="#fff"/><path d="M82.85 102.753L40.48 63.736 82.85 24.96h33.14L74.565 63.736l41.425 39.017H82.85zM48.857 10.857c0 5.996-4.748 10.857-10.605 10.857s-10.605-4.86-10.605-10.857C27.647 4.861 32.395 0 38.252 0s10.605 4.86 10.605 10.857z" fill="#fff"/><path d="M111.325 63.574c0 5.996-4.748 10.857-10.605 10.857s-10.605-4.86-10.605-10.857c0-5.996 4.748-10.857 10.605-10.857s10.605 4.861 10.605 10.857z" fill="#fff"/><path fill-rule="evenodd" clip-rule="evenodd" d="M25.429 58.525V25.018h49.245L37.795 58.525H25.429z" fill="#fff"/><path d="M3.04 100.329h5.29v2.257H0V90.412h3.04v9.917zm16.905 2.257h-3.03V90.412h3.03v12.174zm13.496-4.532l-1.247 1.321v3.211h-3.04V90.412h3.04v5.368l1.057-1.547 2.719-3.821h3.759l-4.261 5.384 4.26 6.79h-3.602l-2.685-4.532zm24.554-1.304c0 1.187-.228 2.238-.684 3.152-.457.915-1.106 1.62-1.949 2.116-.837.49-1.793.736-2.867.736-1.073 0-2.026-.237-2.857-.711a5.002 5.002 0 01-1.95-2.049c-.461-.886-.703-1.903-.727-3.052v-.685c0-1.193.226-2.244.676-3.153.456-.914 1.106-1.62 1.949-2.115.848-.496 1.812-.744 2.892-.744 1.068 0 2.02.245 2.858.736.837.49 1.487 1.19 1.949 2.098.467.903.704 1.94.71 3.11v.561zm-3.092-.51c0-1.21-.21-2.127-.632-2.751-.416-.63-1.014-.945-1.793-.945-1.524 0-2.33 1.104-2.416 3.311l-.009.895c0 1.193.205 2.11.615 2.751.41.641 1.02.962 1.828.962.767 0 1.36-.315 1.775-.945.416-.63.626-1.536.632-2.718v-.56z" fill="#fff"/></svg>